<svg width="32" height="32" viewBox="0 0 32 32" fill="none" xmlns="http://www.w3.org/2000/svg">
<rect x="1" y="1" width="30" height="30" rx="15" fill="#FF506F"/>
<rect x="1" y="1" width="30" height="30" rx="15" stroke="black" stroke-width="2"/>
<path d="M20.5352 22H11.5088V19.8555L15.6133 15.6104C15.959 15.2295 16.2373 14.8867 16.4482 14.582C16.665 14.2715 16.8203 13.9932 16.9141 13.7471C17.0137 13.4951 17.0635 13.2725 17.0635 13.0791C17.0635 12.5635 16.9551 12.1826 16.7383 11.9365C16.5215 11.6904 16.208 11.5674 15.7979 11.5674C15.5166 11.5674 15.2734 11.6494 15.0684 11.8135C14.8633 11.9775 14.7021 12.1973 14.585 12.4727C14.4736 12.748 14.418 13.0586 14.418 13.4043H11.2451C11.2451 12.6016 11.4385 11.8691 11.8252 11.207C12.2178 10.5391 12.7598 10.0088 13.4512 9.61621C14.1484 9.21777 14.957 9.01855 15.877 9.01855C17.3184 9.01855 18.4053 9.34961 19.1377 10.0117C19.876 10.668 20.2451 11.5938 20.2451 12.7891C20.2451 13.4043 20.1221 13.9814 19.876 14.5205C19.6299 15.0537 19.2754 15.5986 18.8125 16.1553C18.3496 16.7061 17.79 17.3154 17.1338 17.9834L15.666 19.4512H20.5352V22Z" fill="#FEF8EE"/>
</svg>
