<svg width="32" height="32" viewBox="0 0 32 32" fill="none" xmlns="http://www.w3.org/2000/svg">
<rect x="1" y="1" width="30" height="30" rx="15" fill="#FF506F"/>
<rect x="1" y="1" width="30" height="30" rx="15" stroke="black" stroke-width="2"/>
<path d="M15.7188 14.2393C16.0527 14.2393 16.3281 14.1836 16.5449 14.0723C16.7617 13.9551 16.9229 13.7881 17.0283 13.5713C17.1338 13.3486 17.1865 13.082 17.1865 12.7715C17.1865 12.5723 17.1367 12.3818 17.0371 12.2002C16.9434 12.0127 16.7939 11.8604 16.5889 11.7432C16.3838 11.626 16.123 11.5674 15.8066 11.5674C15.6016 11.5674 15.3965 11.6055 15.1914 11.6816C14.9922 11.752 14.8252 11.8574 14.6904 11.998C14.5615 12.1328 14.4971 12.2969 14.4971 12.4902H11.333C11.333 11.752 11.5352 11.125 11.9395 10.6094C12.3496 10.0938 12.8857 9.70117 13.5479 9.43164C14.2158 9.15625 14.9336 9.01855 15.7012 9.01855C16.6211 9.01855 17.4297 9.15918 18.127 9.44043C18.8301 9.71582 19.3779 10.126 19.7705 10.6709C20.1631 11.2158 20.3594 11.8896 20.3594 12.6924C20.3594 13.1494 20.2539 13.5742 20.043 13.9668C19.8379 14.3535 19.5479 14.6934 19.1729 14.9863C18.8037 15.2734 18.3701 15.499 17.8721 15.6631C17.374 15.8213 16.835 15.9004 16.2549 15.9004H14.2422V14.2393H15.7188ZM14.2422 15.0654H16.2549C16.8877 15.0654 17.4648 15.1357 17.9863 15.2764C18.5137 15.4111 18.9678 15.6162 19.3486 15.8916C19.7354 16.167 20.0312 16.5127 20.2363 16.9287C20.4473 17.3447 20.5527 17.8311 20.5527 18.3877C20.5527 19.1904 20.3389 19.876 19.9111 20.4443C19.4834 21.0068 18.9033 21.4375 18.1709 21.7363C17.4385 22.0293 16.6123 22.1758 15.6924 22.1758C15.1592 22.1758 14.623 22.1055 14.084 21.9648C13.5449 21.8184 13.0527 21.5957 12.6074 21.2969C12.168 20.998 11.8135 20.6113 11.5439 20.1367C11.2744 19.6562 11.1396 19.082 11.1396 18.4141H14.3213C14.3213 18.6309 14.3887 18.833 14.5234 19.0205C14.6641 19.2021 14.8457 19.3486 15.0684 19.46C15.291 19.5713 15.5342 19.627 15.7979 19.627C16.3018 19.627 16.6914 19.4922 16.9668 19.2227C17.248 18.9531 17.3887 18.6484 17.3887 18.3086C17.3887 17.9102 17.3213 17.5938 17.1865 17.3594C17.0576 17.1191 16.8672 16.9492 16.6152 16.8496C16.3691 16.7441 16.0703 16.6914 15.7188 16.6914H14.2422V15.0654Z" fill="#FEF8EE"/>
</svg>
