<svg width="56" height="56" viewBox="0 0 56 56" fill="none" xmlns="http://www.w3.org/2000/svg">
<path d="M9.33333 0C4.179 0 0 4.179 0 9.33333V46.6667C0 51.821 4.179 56 9.33333 56H46.6667C51.821 56 56 51.821 56 46.6667V9.33333C56 4.179 51.821 0 46.6667 0H9.33333ZM32.6667 17.5H44.3333V20.4987H32.6667V17.5ZM10.6709 17.5023H20.7197C21.8106 17.5023 27.7106 17.4321 27.7106 22.8571C27.7106 25.7411 25.743 26.714 24.8691 27.141C26.1793 27.5703 28.5811 28.7857 28.5811 32.498C28.5822 38.252 22.0299 38.4988 21.1572 38.5H10.6709V17.5023ZM15.1507 21.1413V26.07H19.9587C20.6132 26.07 22.7956 25.7012 22.7956 23.4997C22.7956 21.2982 19.9563 21.1413 19.5212 21.1413H15.1507ZM38.8486 22.1667C44.6341 22.1667 46.2044 26.6816 46.4365 27.7585C46.6664 28.8353 46.6667 29.7881 46.6667 31.0785H34.9362C34.9362 32.3688 35.622 35.2803 39.0765 35.2803C39.997 35.2803 40.6884 35.0625 41.3779 34.6331C42.0674 34.2015 42.2965 33.7716 42.5264 33.3411H46.4365C45.747 35.0608 44.8272 36.3527 43.4447 37.2126C42.0657 38.0724 40.4549 38.5 38.6162 38.5C37.4659 38.5 36.3132 38.2845 35.1641 37.8529C34.2436 37.4212 33.3254 36.7811 32.637 36.1348C31.9464 35.4931 31.4857 34.6321 31.026 33.5576C30.5652 32.699 30.3333 31.4067 30.3333 30.3333C30.3333 29.2612 30.7636 22.1667 38.8486 22.1667ZM38.6344 25.04C35.2569 25.04 34.7038 28.2958 34.7038 28.5104H42.1025C41.8715 27.4278 40.9001 25.04 38.6344 25.04ZM15.1029 29.0732V34.8564H20.1296C20.5659 34.8564 23.6227 34.7133 23.6227 32.0719C23.6239 29.4271 21.2216 29.0732 20.1296 29.0732H15.1029Z" fill="black"/>
</svg>
