<svg width="32" height="32" viewBox="0 0 32 32" fill="none" xmlns="http://www.w3.org/2000/svg">
<path d="M22.667 2.66699C23.2878 2.66703 23.9008 2.81131 24.4561 3.08887C25.0112 3.36653 25.4947 3.77003 25.8672 4.2666L29.8672 9.60059L30.0498 9.86426C30.448 10.4951 30.6628 11.2272 30.667 11.9775C30.667 11.9817 30.666 11.9861 30.666 11.9902C30.666 11.9935 30.667 11.9967 30.667 12C30.667 12.017 30.6647 12.0339 30.6641 12.0508C30.6534 12.8829 30.3861 13.692 29.8936 14.3643L19.2461 29.001L19.2471 29.0029C18.8766 29.5177 18.3886 29.9373 17.8242 30.2266C17.2597 30.5158 16.6343 30.667 16 30.667L15.7627 30.6592C15.2104 30.6263 14.6697 30.4796 14.1758 30.2266C13.6113 29.9373 13.1234 29.5177 12.7529 29.0029V29.001L2.10254 14.3604L2.10449 14.3594C1.61406 13.688 1.34651 12.881 1.33594 12.0508C1.33531 12.0339 1.33301 12.017 1.33301 12V11.9766C1.33816 11.1192 1.61934 10.2864 2.13379 9.60059L6.13184 4.27051C6.50392 3.77324 6.98676 3.36916 7.54199 3.09082C8.0979 2.81224 8.7112 2.66717 9.33301 2.66699H22.667ZM4.6543 13.333L13.3682 25.3145L9.68164 13.333H4.6543ZM22.3184 13.333L18.6309 25.3145L27.3457 13.333H22.3184ZM12.4717 13.333L16 24.7979L19.5273 13.333H12.4717ZM9.17969 5.34277C9.0259 5.36072 8.87643 5.40587 8.7373 5.47559C8.55197 5.56849 8.38973 5.7021 8.26562 5.86816L8.26465 5.87109L4.66699 10.667H9.77832L12.001 5.33301H9.33301L9.17969 5.34277ZM12.665 10.667H19.334L17.1113 5.33301H14.8887L12.665 10.667ZM22.2217 10.667H27.334L23.7344 5.86719C23.6102 5.70161 23.4478 5.5662 23.2627 5.47363C23.0778 5.38136 22.8736 5.33305 22.667 5.33301H19.999L22.2217 10.667Z" fill="black"/>
</svg>
