<svg width="56" height="56" viewBox="0 0 56 56" fill="none" xmlns="http://www.w3.org/2000/svg">
<path d="M28 0C23.7962 0 19.8195 0.955593 16.2367 2.625C16.2132 2.61813 16.1891 2.60994 16.1656 2.60312L16.1437 2.67422C6.6264 7.15265 0 16.8102 0 28C0 43.4308 12.5692 56 28 56C43.4308 56 56 43.4308 56 28C56 12.5692 43.4308 0 28 0ZM28 5.6C32.806 5.6 37.0022 7.4317 40.6437 9.99141C38.8753 11.7487 36.8158 13.3031 34.5461 14.5687C31.5745 10.985 27.9585 8.13149 24.1555 5.99375C25.4016 5.76204 26.6729 5.6 28 5.6ZM16.8984 8.80469C21.2374 10.4373 25.5965 13.116 29.1047 16.8875C23.2801 18.6562 16.6077 18.5492 9.90938 15.4711C11.7687 12.7894 14.1456 10.5112 16.8984 8.80469ZM44.8383 13.6172C47.2395 16.4319 48.7479 19.8435 49.5195 23.6141C46.3755 23.2271 43.1684 23.4101 40.0258 24.0461C39.3874 22.3187 38.6103 20.6866 37.7234 19.1516C40.3653 17.5917 42.7695 15.72 44.8383 13.6172ZM7.08203 20.6391C15.9852 24.9012 25.0139 24.5934 32.6812 21.6125C33.4348 22.8748 34.0953 24.2123 34.6445 25.632C25.8704 29.0635 18.3223 36.2868 15.3289 45.9977C9.58374 41.9492 5.6 35.5888 5.6 28C5.6 25.3861 6.26534 22.968 7.08203 20.6391ZM44.4062 29.0828C46.3258 29.0482 48.1982 29.3784 50.0555 29.7062C49.4949 36.8124 45.737 42.9939 40.1898 46.7086C41.4787 42.9892 42.4723 38.0951 41.8852 32.1289C41.7961 31.2252 41.6582 30.3473 41.5023 29.482C41.8261 29.4164 42.146 29.3053 42.4703 29.2523C43.122 29.146 43.7664 29.0943 44.4062 29.0828ZM36.0938 31.1773C36.1708 31.6758 36.2619 32.1679 36.3125 32.6812C37.258 42.2882 33.9189 48.0403 32.6211 49.9023C31.1334 50.2184 29.5916 50.4 28 50.4C25.2756 50.4 22.739 49.7418 20.3273 48.8578C22.4563 40.6143 28.7774 34.3268 36.0938 31.1773Z" fill="black"/>
</svg>
