<svg width="32" height="32" viewBox="0 0 32 32" fill="none" xmlns="http://www.w3.org/2000/svg">
<path d="M17.6336 1.36374C18.0241 1.29153 18.4261 1.33656 18.7885 1.49265L18.9409 1.56687L19.0867 1.6528C19.3702 1.83696 19.602 2.09023 19.7612 2.38848L19.8354 2.54082L19.8953 2.69968C20.0195 3.07374 20.0304 3.47736 19.9253 3.85984C19.9205 3.87709 19.9164 3.89487 19.9109 3.91192L17.351 11.938L17.3289 12.0005H26.6661C27.1694 11.9995 27.663 12.1404 28.0893 12.408C28.5166 12.6763 28.8585 13.0609 29.0763 13.5161C29.294 13.9712 29.379 14.4786 29.3198 14.9796C29.2606 15.4808 29.0596 15.9549 28.7417 16.3468C28.7168 16.3774 28.691 16.4071 28.6635 16.4354L15.463 30.0356L15.4617 30.0343C15.1701 30.3462 14.7878 30.5593 14.3667 30.6372C13.9206 30.7197 13.4594 30.648 13.0594 30.4341C12.6594 30.2201 12.3438 29.8756 12.1648 29.4588C11.986 29.0421 11.9547 28.577 12.075 28.1398L12.0893 28.0877L14.6492 20.0617L14.6713 20.0005H5.3328V19.9992C4.82997 19.9999 4.33687 19.859 3.91093 19.5916C3.48385 19.3234 3.14172 18.9397 2.92395 18.4848C2.70612 18.0296 2.62124 17.5211 2.68046 17.02C2.73974 16.519 2.94075 16.0446 3.25858 15.6528C3.28333 15.6223 3.30937 15.5924 3.33671 15.5643L16.5372 1.9653C16.8289 1.65325 17.2123 1.44168 17.6336 1.36374ZM5.33671 17.3338H14.6661C15.0962 17.333 15.5202 17.4361 15.9018 17.6346C16.2844 17.8336 16.6137 18.1218 16.8601 18.4757C17.1066 18.8297 17.2633 19.2392 17.3172 19.6671C17.3683 20.0733 17.3206 20.484 17.187 20.8703L17.1909 20.8716L15.5021 26.1658L26.6635 14.6671H17.3328V14.6658C16.9032 14.6664 16.4796 14.5646 16.0984 14.3663C15.7158 14.1673 15.3866 13.8779 15.1401 13.5239C14.8938 13.1701 14.737 12.7615 14.6831 12.3338C14.6318 11.9271 14.678 11.5148 14.812 11.1281H14.8094L16.4969 5.83249L5.33671 17.3338Z" fill="black"/>
</svg>
