<svg width="32" height="32" viewBox="0 0 32 32" fill="none" xmlns="http://www.w3.org/2000/svg">
<path d="M19.8398 17.335C20.3586 17.334 20.8662 17.4832 21.3008 17.7666C21.719 18.0394 22.0515 18.424 22.2617 18.876L22.8174 20H26.667C27.374 20.0001 28.0518 20.2813 28.5518 20.7812C29.0519 21.2813 29.333 21.9598 29.333 22.667V26.667C29.3329 27.3741 29.0518 28.0517 28.5518 28.5518C28.0517 29.0518 27.3741 29.3329 26.667 29.333H17.333C16.6259 29.3329 15.9483 29.0518 15.4482 28.5518C14.9482 28.0517 14.6671 27.3741 14.667 26.667V20C14.667 19.2928 14.9481 18.6144 15.4482 18.1143C15.9482 17.6144 16.626 17.3331 17.333 17.333H19.8398V17.335ZM17.333 26.667H26.667V22.667H22.7822C22.2944 22.6606 21.817 22.5203 21.4033 22.2617C20.9899 22.0032 20.656 21.6355 20.4365 21.2002L20.4307 21.1904L19.8711 20.0576C19.8618 20.0388 19.8531 20.0192 19.8447 20H17.333V26.667ZM4 2.66699C4.73638 2.66699 5.33301 3.26362 5.33301 4V6.66699L5.33984 6.79883C5.37024 7.10382 5.50503 7.39069 5.72363 7.60938C5.97368 7.85942 6.31337 8 6.66699 8H10.667C11.4031 8.00018 11.9998 8.59689 12 9.33301C12 10.0693 11.4032 10.6668 10.667 10.667H6.66699C6.20812 10.667 5.75745 10.5868 5.33301 10.4365V21.333C5.33301 21.6866 5.47358 22.0263 5.72363 22.2764C5.97368 22.5264 6.31337 22.667 6.66699 22.667H10.667C11.4032 22.6672 12 23.2637 12 24C12 24.7363 11.4032 25.3328 10.667 25.333H6.66699C5.60613 25.333 4.58901 24.9113 3.83887 24.1611C3.08872 23.411 2.66699 22.3939 2.66699 21.333V4C2.66699 3.26362 3.26362 2.66699 4 2.66699ZM20 2.66699C20.4139 2.66699 20.8221 2.76314 21.1924 2.94824C21.5625 3.1333 21.8845 3.4024 22.1328 3.7334L23.333 5.33301H26.667C27.374 5.33309 28.0518 5.61444 28.5518 6.11426C29.0519 6.61436 29.333 7.29276 29.333 8V12C29.333 12.7072 29.0519 13.3856 28.5518 13.8857C28.0518 14.3856 27.374 14.6669 26.667 14.667H17.333C16.626 14.6669 15.9482 14.3856 15.4482 13.8857C14.9481 13.3856 14.667 12.7072 14.667 12V5.33301C14.6671 4.62588 14.9482 3.94826 15.4482 3.44824C15.9483 2.94822 16.6259 2.66708 17.333 2.66699H20ZM17.333 12H26.667V8H23.333C22.9191 7.99995 22.5108 7.90384 22.1406 7.71875C21.7705 7.53368 21.4485 7.26459 21.2002 6.93359L20 5.33301H17.333V12Z" fill="black"/>
</svg>
