<svg width="56" height="56" viewBox="0 0 56 56" fill="none" xmlns="http://www.w3.org/2000/svg">
<path d="M22.6124 16.9555C24.9884 15.7229 27.6929 15.2703 30.3407 15.6629C33.0418 16.0635 35.5416 17.3241 37.4725 19.2549C39.4033 21.1858 40.6639 23.6855 41.0644 26.3867C41.457 29.0344 41.0045 31.739 39.7718 34.115C38.539 36.491 36.5871 38.4175 34.1962 39.621C31.8053 40.8244 29.0956 41.2442 26.4529 40.8192C23.8099 40.3939 21.3682 39.145 19.4753 37.2521C17.5824 35.3591 16.3335 32.9175 15.9082 30.2744C15.4832 27.6318 15.9029 24.9221 17.1063 22.5312C18.3099 20.1402 20.2364 18.1884 22.6124 16.9555ZM29.595 20.6992C28.0061 20.4636 26.3822 20.735 24.9565 21.4747C23.5308 22.2145 22.375 23.3859 21.6529 24.8206C20.9308 26.2552 20.6793 27.8809 20.9345 29.4666C21.1896 31.0524 21.939 32.5169 23.0747 33.6526C24.2105 34.7884 25.675 35.5377 27.2608 35.7929C28.8465 36.048 30.4721 35.7965 31.9068 35.0745C33.3415 34.3524 34.5129 33.1966 35.2527 31.7709C35.9924 30.3452 36.2638 28.7212 36.0282 27.1324C35.7878 25.5121 35.0313 24.0127 33.873 22.8543C32.7147 21.696 31.2153 20.9396 29.595 20.6992Z" fill="black"/>
<path d="M42.3884 11.8182C43.7942 11.8182 44.9339 12.9578 44.9339 14.3636C44.9339 15.7694 43.7942 16.9091 42.3884 16.9091H42.3636C40.9578 16.9091 39.8181 15.7694 39.8181 14.3636C39.8181 12.9578 40.9578 11.8182 42.3636 11.8182H42.3884Z" fill="black"/>
<path d="M50.9091 15.2727C50.9091 9.64946 46.3505 5.09091 40.7273 5.09091H15.2727C9.64946 5.09091 5.09091 9.64946 5.09091 15.2727V40.7273C5.09091 46.3505 9.64946 50.9091 15.2727 50.9091H40.7273C46.3505 50.9091 50.9091 46.3505 50.9091 40.7273V15.2727ZM56 40.7273C56 49.1622 49.1622 56 40.7273 56H15.2727C6.83783 56 0 49.1622 0 40.7273V15.2727C0 6.83783 6.83783 0 15.2727 0H40.7273C49.1622 0 56 6.83783 56 15.2727V40.7273Z" fill="black"/>
</svg>
