<svg width="239" height="55" viewBox="0 0 239 55" fill="none" xmlns="http://www.w3.org/2000/svg">
<path d="M203.813 40.3038H193.24V0.949951H203.813V13.6959L203.225 23.6225L209.216 15.7517L213.152 11.2877H225.369L214.327 23.0351L225.134 40.3038H213.328L207.396 29.3787L203.813 33.3728V40.3038Z" fill="#0D0D0D"/>
<path d="M172.248 40.3039H161.676V11.2878H172.248V19.9222C173.071 15.1057 175.714 10.7004 181.764 10.7004C187.168 10.7004 190.457 14.0485 190.457 19.9809V40.3039H179.884V24.0925C179.884 20.5683 179.238 18.6887 176.066 18.6887C173.012 18.6887 172.248 19.8047 172.248 24.5037V40.3039Z" fill="#0D0D0D"/>
<path d="M139.21 40.95C134.981 40.95 131.633 38.8355 131.633 33.6079C131.633 28.9089 134.276 26.3245 140.737 24.3274L148.549 21.9192C148.255 20.2746 147.374 19.5697 145.025 19.5697C141.677 19.5697 137.917 21.3906 135.509 24.0925L130.81 16.3392C134.452 13.0499 139.562 10.7004 145.612 10.7004C153.072 10.7004 157.653 14.3421 157.653 21.8017V30.5536C157.653 31.8458 158.006 32.2569 159.063 32.2569H160.766V40.3039H154.775C151.486 40.3039 148.255 38.8942 148.255 34.7826V32.5506C147.374 36.3098 145.142 40.95 139.21 40.95ZM141.031 32.1395C141.031 33.0793 141.735 33.6079 143.263 33.6079C146.728 33.6079 148.255 32.2569 148.255 29.2614V28.3803L143.498 30.0837C141.5 30.7885 141.031 31.3759 141.031 32.1395Z" fill="#0D0D0D"/>
<path d="M129.884 40.3038H119.312V0.949951H129.884V40.3038Z" fill="#0D0D0D"/>
<path d="M103.551 40.3038H82.6996V0.949951H103.727C113.302 0.949951 116.356 5.64892 116.356 10.9353C116.356 19.3347 108.191 20.3332 102.376 20.3332C113.595 20.3332 117.531 24.3273 117.531 30.2598C117.531 38.0131 111.833 40.3038 103.551 40.3038ZM101.202 10.3479H93.2722V16.2216H101.202C103.727 16.2216 105.196 15.3993 105.196 13.3435C105.196 11.2289 103.727 10.3479 101.202 10.3479ZM102.083 24.4448H93.2722V30.9059H102.083C105.372 30.9059 106.723 29.7899 106.723 27.6753C106.723 25.5021 105.372 24.4448 102.083 24.4448Z" fill="#0D0D0D"/>
<path d="M61.7079 40.3039H51.1353V11.2878H61.7079V19.9222C62.5303 15.1057 65.1734 10.7004 71.2233 10.7004C76.6272 10.7004 79.9164 14.0485 79.9164 19.9809V40.3039H69.3438V24.0925C69.3438 20.5683 68.6976 18.6887 65.5258 18.6887C62.4715 18.6887 61.7079 19.8047 61.7079 24.5037V40.3039Z" fill="#0D0D0D"/>
<path d="M30.3019 40.8912C18.8482 40.8912 12.6808 35.3111 12.6808 22.5065V0.949951H23.2535V22.6239C23.2535 28.204 25.7204 30.6122 30.3607 30.6122C35.1184 30.6122 37.4679 28.204 37.4679 22.6239V0.949951H48.0405V22.5065C48.0405 35.3111 42.0494 40.8912 30.3019 40.8912Z" fill="#0D0D0D"/>
<path d="M181.957 52.5037C181.733 52.5037 181.555 52.4386 181.425 52.3083C181.298 52.1781 181.234 52.017 181.234 51.825C181.234 51.6296 181.298 51.4669 181.425 51.3367C181.555 51.2032 181.733 51.1365 181.957 51.1365C182.182 51.1365 182.358 51.2032 182.484 51.3367C182.615 51.4669 182.68 51.6296 182.68 51.825C182.68 52.017 182.615 52.1781 182.484 52.3083C182.358 52.4386 182.182 52.5037 181.957 52.5037Z" fill="#FF506F"/>
<path d="M178.012 52.5476C177.527 52.5476 177.117 52.4613 176.781 52.2888C176.449 52.113 176.197 51.8901 176.025 51.6199C175.855 51.3497 175.771 51.0714 175.771 50.7849H176.972C176.985 50.9867 177.042 51.1511 177.143 51.2781C177.247 51.4018 177.377 51.4913 177.533 51.5466C177.693 51.602 177.859 51.6296 178.031 51.6296C178.233 51.6296 178.402 51.6036 178.539 51.5515C178.676 51.4962 178.778 51.4229 178.847 51.3318C178.918 51.2374 178.954 51.1283 178.954 51.0046C178.954 50.894 178.925 50.7947 178.866 50.7068C178.811 50.6189 178.702 50.5375 178.539 50.4626C178.38 50.3878 178.144 50.3178 177.831 50.2527C177.46 50.1746 177.133 50.0704 176.85 49.9402C176.566 49.81 176.344 49.6423 176.181 49.4373C176.021 49.2289 175.941 48.9766 175.941 48.6804C175.941 48.3907 176.025 48.1238 176.191 47.8796C176.357 47.6355 176.594 47.4402 176.903 47.2937C177.213 47.144 177.579 47.0691 178.002 47.0691C178.448 47.0691 178.83 47.144 179.15 47.2937C179.472 47.4402 179.719 47.6404 179.892 47.8943C180.064 48.1449 180.15 48.4314 180.15 48.7537H178.9C178.9 48.5453 178.826 48.3663 178.676 48.2166C178.526 48.0636 178.3 47.9871 177.997 47.9871C177.815 47.9871 177.66 48.0164 177.533 48.075C177.406 48.1335 177.312 48.2117 177.25 48.3093C177.188 48.4037 177.157 48.5079 177.157 48.6218C177.157 48.7325 177.188 48.8302 177.25 48.9148C177.315 48.9962 177.424 49.0694 177.577 49.1345C177.73 49.1964 177.943 49.2566 178.217 49.3152C178.614 49.3966 178.959 49.5024 179.252 49.6326C179.548 49.7595 179.776 49.9288 179.936 50.1404C180.098 50.3487 180.18 50.6173 180.18 50.946C180.18 51.2553 180.09 51.532 179.911 51.7761C179.735 52.017 179.485 52.2058 179.159 52.3425C178.834 52.4792 178.451 52.5476 178.012 52.5476Z" fill="#FF506F"/>
<path d="M173.598 47.1667H174.853V52.45H173.671L173.598 51.2V47.1667ZM174.174 50.0867C174.174 50.5587 174.104 50.9802 173.964 51.3513C173.824 51.7224 173.606 52.0154 173.31 52.2302C173.013 52.4418 172.633 52.5476 172.167 52.5476C171.646 52.5476 171.225 52.3946 170.902 52.0886C170.58 51.7826 170.419 51.2797 170.419 50.5798V47.1667H171.669V50.5896C171.669 50.8272 171.705 51.0144 171.776 51.1511C171.851 51.2846 171.951 51.3806 172.074 51.4392C172.201 51.4945 172.34 51.5222 172.489 51.5222C172.812 51.5222 173.066 51.4604 173.251 51.3367C173.437 51.2097 173.568 51.0388 173.647 50.824C173.728 50.6059 173.769 50.3634 173.769 50.0964L174.174 50.0867Z" fill="#FF506F"/>
<path d="M169.189 52.45H167.934V44.95H169.189V52.45Z" fill="#FF506F"/>
<path d="M164.848 52.5476C164.516 52.5476 164.228 52.4858 163.983 52.3621C163.739 52.2351 163.533 52.0577 163.363 51.8298C163.197 51.602 163.064 51.335 162.963 51.0291C162.862 50.7198 162.789 50.3829 162.743 50.0183V49.6765C162.802 49.1622 162.913 48.7097 163.075 48.3191C163.238 47.9285 163.463 47.6225 163.749 47.4011C164.039 47.1798 164.402 47.0691 164.838 47.0691C165.284 47.0691 165.66 47.1814 165.966 47.406C166.272 47.6306 166.503 47.9447 166.659 48.3484C166.819 48.7488 166.899 49.2175 166.899 49.7546V49.8572C166.899 50.3715 166.819 50.8321 166.659 51.239C166.503 51.6427 166.272 51.9617 165.966 52.196C165.663 52.4304 165.29 52.5476 164.848 52.5476ZM162.235 54.4812V47.1667H163.388L163.485 48.1824V54.4812H162.235ZM164.506 51.5417C164.779 51.5417 164.999 51.4653 165.165 51.3123C165.334 51.1593 165.456 50.9558 165.531 50.7019C165.609 50.4447 165.649 50.1632 165.649 49.8572V49.7546C165.649 49.4421 165.609 49.1606 165.531 48.9099C165.453 48.6593 165.33 48.4607 165.16 48.3142C164.991 48.1645 164.77 48.0896 164.496 48.0896C164.294 48.0896 164.122 48.1222 163.979 48.1873C163.835 48.2524 163.715 48.3451 163.617 48.4656C163.523 48.5828 163.448 48.7244 163.393 48.8904C163.341 49.0531 163.305 49.2338 163.285 49.4324V50.2625C163.321 50.5001 163.383 50.7166 163.471 50.9119C163.559 51.1039 163.686 51.2569 163.852 51.3708C164.021 51.4848 164.239 51.5417 164.506 51.5417Z" fill="#FF506F"/>
<path d="M155.946 52.5476C155.52 52.5476 155.152 52.432 154.843 52.2009C154.534 51.9666 154.296 51.6475 154.13 51.2439C153.964 50.8403 153.881 50.3813 153.881 49.8669V49.7644C153.881 49.2306 153.964 48.7618 154.13 48.3582C154.296 47.9513 154.534 47.6355 154.843 47.4109C155.152 47.183 155.523 47.0691 155.956 47.0691C156.383 47.0691 156.737 47.1814 157.021 47.406C157.307 47.6274 157.532 47.935 157.694 48.3289C157.86 48.7195 157.971 49.172 158.026 49.6863V49.9744C157.971 50.4692 157.862 50.9102 157.699 51.2976C157.537 51.685 157.312 51.991 157.025 52.2156C156.739 52.4369 156.379 52.5476 155.946 52.5476ZM156.264 51.5222C156.524 51.5222 156.737 51.4653 156.903 51.3513C157.073 51.2374 157.203 51.0828 157.294 50.8875C157.388 50.6921 157.452 50.4708 157.484 50.2234V49.4421C157.465 49.2468 157.426 49.0662 157.367 48.9001C157.312 48.7341 157.235 48.5909 157.138 48.4705C157.043 48.35 156.925 48.2572 156.781 48.1921C156.638 48.1238 156.469 48.0896 156.274 48.0896C156 48.0896 155.779 48.1645 155.609 48.3142C155.443 48.4639 155.321 48.6658 155.243 48.9197C155.168 49.1736 155.131 49.4552 155.131 49.7644V49.8669C155.131 50.1729 155.168 50.4513 155.243 50.7019C155.318 50.9526 155.439 51.1528 155.605 51.3025C155.771 51.449 155.99 51.5222 156.264 51.5222ZM157.411 52.45L157.289 51.3318V44.95H158.544V52.45H157.411Z" fill="#FF506F"/>
<path d="M151.786 52.45H150.536V47.1667H151.723L151.786 48.2312V52.45ZM153.373 48.324C153.298 48.311 153.217 48.3012 153.129 48.2947C153.044 48.2882 152.961 48.2849 152.88 48.2849C152.616 48.2849 152.397 48.3321 152.221 48.4265C152.045 48.5177 151.912 48.6511 151.82 48.8269C151.733 48.9994 151.68 49.2061 151.664 49.447L151.386 49.4275C151.386 48.9815 151.444 48.5811 151.562 48.2263C151.679 47.8682 151.853 47.5867 152.084 47.3816C152.318 47.1733 152.61 47.0691 152.958 47.0691C153.026 47.0691 153.103 47.0756 153.188 47.0886C153.272 47.0984 153.337 47.113 153.383 47.1326L153.373 48.324Z" fill="#FF506F"/>
<path d="M147.514 52.5476C146.983 52.5476 146.526 52.4353 146.142 52.2107C145.761 51.9828 145.466 51.6752 145.258 51.2878C145.053 50.9005 144.95 50.4692 144.95 49.9939V49.7937C144.95 49.2468 145.054 48.7699 145.263 48.363C145.471 47.9529 145.758 47.6355 146.122 47.4109C146.487 47.183 146.902 47.0691 147.367 47.0691C147.875 47.0691 148.297 47.1798 148.632 47.4011C148.97 47.6192 149.224 47.9236 149.394 48.3142C149.563 48.7016 149.648 49.1508 149.648 49.6619V50.199H145.541V49.3103H148.412V49.2126C148.406 49.0108 148.367 48.8236 148.295 48.6511C148.223 48.4786 148.111 48.3403 147.958 48.2361C147.808 48.1287 147.61 48.075 147.362 48.075C147.105 48.075 146.89 48.1466 146.718 48.2898C146.549 48.433 146.42 48.6332 146.332 48.8904C146.247 49.1475 146.205 49.4486 146.205 49.7937V49.9939C146.205 50.2869 146.259 50.5505 146.366 50.7849C146.477 51.0193 146.635 51.2048 146.84 51.3416C147.048 51.475 147.297 51.5417 147.587 51.5417C147.864 51.5417 148.111 51.488 148.329 51.3806C148.551 51.2699 148.741 51.1121 148.9 50.907L149.55 51.5662C149.384 51.8136 149.132 52.0398 148.793 52.2449C148.458 52.4467 148.031 52.5476 147.514 52.5476Z" fill="#FF506F"/>
<path d="M142.143 52.5476C141.811 52.5476 141.523 52.4858 141.278 52.3621C141.034 52.2351 140.828 52.0577 140.658 51.8298C140.492 51.602 140.359 51.335 140.258 51.0291C140.157 50.7198 140.084 50.3829 140.038 50.0183V49.6765C140.097 49.1622 140.207 48.7097 140.37 48.3191C140.533 47.9285 140.758 47.6225 141.044 47.4011C141.334 47.1798 141.697 47.0691 142.133 47.0691C142.579 47.0691 142.955 47.1814 143.261 47.406C143.567 47.6306 143.798 47.9447 143.954 48.3484C144.114 48.7488 144.193 49.2175 144.193 49.7546V49.8572C144.193 50.3715 144.114 50.8321 143.954 51.239C143.798 51.6427 143.567 51.9617 143.261 52.196C142.958 52.4304 142.585 52.5476 142.143 52.5476ZM139.53 54.4812V47.1667H140.683L140.78 48.1824V54.4812H139.53ZM141.801 51.5417C142.074 51.5417 142.294 51.4653 142.46 51.3123C142.629 51.1593 142.751 50.9558 142.826 50.7019C142.904 50.4447 142.943 50.1632 142.943 49.8572V49.7546C142.943 49.4421 142.904 49.1606 142.826 48.9099C142.748 48.6593 142.624 48.4607 142.455 48.3142C142.286 48.1645 142.065 48.0896 141.791 48.0896C141.589 48.0896 141.417 48.1222 141.274 48.1873C141.13 48.2524 141.01 48.3451 140.912 48.4656C140.818 48.5828 140.743 48.7244 140.688 48.8904C140.636 49.0531 140.6 49.2338 140.58 49.4324V50.2625C140.616 50.5001 140.678 50.7166 140.766 50.9119C140.854 51.1039 140.981 51.2569 141.147 51.3708C141.316 51.4848 141.534 51.5417 141.801 51.5417Z" fill="#FF506F"/>
<path d="M134.018 52.5476C133.487 52.5476 133.03 52.4353 132.646 52.2107C132.265 51.9828 131.97 51.6752 131.762 51.2878C131.557 50.9005 131.454 50.4692 131.454 49.9939V49.7937C131.454 49.2468 131.558 48.7699 131.767 48.363C131.975 47.9529 132.261 47.6355 132.626 47.4109C132.991 47.183 133.406 47.0691 133.871 47.0691C134.379 47.0691 134.801 47.1798 135.136 47.4011C135.474 47.6192 135.728 47.9236 135.898 48.3142C136.067 48.7016 136.151 49.1508 136.151 49.6619V50.199H132.045V49.3103H134.916V49.2126C134.91 49.0108 134.871 48.8236 134.799 48.6511C134.727 48.4786 134.615 48.3403 134.462 48.2361C134.312 48.1287 134.114 48.075 133.866 48.075C133.609 48.075 133.394 48.1466 133.222 48.2898C133.053 48.433 132.924 48.6332 132.836 48.8904C132.751 49.1475 132.709 49.4486 132.709 49.7937V49.9939C132.709 50.2869 132.763 50.5505 132.87 50.7849C132.981 51.0193 133.139 51.2048 133.344 51.3416C133.552 51.475 133.801 51.5417 134.091 51.5417C134.368 51.5417 134.615 51.488 134.833 51.3806C135.054 51.2699 135.245 51.1121 135.404 50.907L136.054 51.5662C135.888 51.8136 135.636 52.0398 135.297 52.2449C134.962 52.4467 134.535 52.5476 134.018 52.5476Z" fill="#FF506F"/>
<path d="M128.49 52.5476C128.005 52.5476 127.595 52.4613 127.26 52.2888C126.928 52.113 126.676 51.8901 126.503 51.6199C126.334 51.3497 126.249 51.0714 126.249 50.7849H127.45C127.463 50.9867 127.52 51.1511 127.621 51.2781C127.725 51.4018 127.856 51.4913 128.012 51.5466C128.171 51.602 128.337 51.6296 128.51 51.6296C128.712 51.6296 128.881 51.6036 129.018 51.5515C129.154 51.4962 129.257 51.4229 129.325 51.3318C129.397 51.2374 129.433 51.1283 129.433 51.0046C129.433 50.894 129.403 50.7947 129.345 50.7068C129.289 50.6189 129.18 50.5375 129.018 50.4626C128.858 50.3878 128.622 50.3178 128.31 50.2527C127.939 50.1746 127.611 50.0704 127.328 49.9402C127.045 49.81 126.822 49.6423 126.659 49.4373C126.5 49.2289 126.42 48.9766 126.42 48.6804C126.42 48.3907 126.503 48.1238 126.669 47.8796C126.835 47.6355 127.073 47.4402 127.382 47.2937C127.691 47.144 128.057 47.0691 128.481 47.0691C128.927 47.0691 129.309 47.144 129.628 47.2937C129.95 47.4402 130.198 47.6404 130.37 47.8943C130.543 48.1449 130.629 48.4314 130.629 48.7537H129.379C129.379 48.5453 129.304 48.3663 129.154 48.2166C129.005 48.0636 128.778 47.9871 128.476 47.9871C128.293 47.9871 128.139 48.0164 128.012 48.075C127.885 48.1335 127.79 48.2117 127.729 48.3093C127.667 48.4037 127.636 48.5079 127.636 48.6218C127.636 48.7325 127.667 48.8302 127.729 48.9148C127.794 48.9962 127.903 49.0694 128.056 49.1345C128.209 49.1964 128.422 49.2566 128.695 49.3152C129.093 49.3966 129.438 49.5024 129.731 49.6326C130.027 49.7595 130.255 49.9288 130.414 50.1404C130.577 50.3487 130.658 50.6173 130.658 50.946C130.658 51.2553 130.569 51.532 130.39 51.7761C130.214 52.017 129.963 52.2058 129.638 52.3425C129.312 52.4792 128.93 52.5476 128.49 52.5476Z" fill="#FF506F"/>
<path d="M120.99 52.5476C120.46 52.5476 120.002 52.4353 119.618 52.2107C119.237 51.9828 118.943 51.6752 118.734 51.2878C118.529 50.9005 118.427 50.4692 118.427 49.9939V49.7937C118.427 49.2468 118.531 48.7699 118.739 48.363C118.948 47.9529 119.234 47.6355 119.599 47.4109C119.963 47.183 120.378 47.0691 120.844 47.0691C121.352 47.0691 121.773 47.1798 122.108 47.4011C122.447 47.6192 122.701 47.9236 122.87 48.3142C123.039 48.7016 123.124 49.1508 123.124 49.6619V50.199H119.018V49.3103H121.889V49.2126C121.882 49.0108 121.843 48.8236 121.772 48.6511C121.7 48.4786 121.588 48.3403 121.435 48.2361C121.285 48.1287 121.086 48.075 120.839 48.075C120.582 48.075 120.367 48.1466 120.194 48.2898C120.025 48.433 119.897 48.6332 119.809 48.8904C119.724 49.1475 119.682 49.4486 119.682 49.7937V49.9939C119.682 50.2869 119.735 50.5505 119.843 50.7849C119.954 51.0193 120.111 51.2048 120.316 51.3416C120.525 51.475 120.774 51.5417 121.064 51.5417C121.34 51.5417 121.588 51.488 121.806 51.3806C122.027 51.2699 122.218 51.1121 122.377 50.907L123.026 51.5662C122.86 51.8136 122.608 52.0398 122.27 52.2449C121.934 52.4467 121.508 52.5476 120.99 52.5476Z" fill="#FF506F"/>
<path d="M114.286 52.45H113.036V47.1667H114.213L114.286 48.2947V52.45ZM113.686 49.6277C113.689 49.1134 113.777 48.6658 113.949 48.2849C114.125 47.9008 114.371 47.6029 114.687 47.3914C115.002 47.1765 115.37 47.0691 115.79 47.0691C116.129 47.0691 116.423 47.1342 116.674 47.2644C116.925 47.3914 117.118 47.5997 117.255 47.8894C117.395 48.1791 117.465 48.5681 117.465 49.0564V52.45H116.21V49.0466C116.21 48.8057 116.176 48.6153 116.108 48.4753C116.039 48.3354 115.937 48.2361 115.8 48.1775C115.666 48.1189 115.502 48.0896 115.307 48.0896C115.108 48.0896 114.932 48.1287 114.779 48.2068C114.63 48.2849 114.501 48.394 114.394 48.5339C114.289 48.6739 114.21 48.8367 114.154 49.0222C114.102 49.2078 114.076 49.408 114.076 49.6228L113.686 49.6277Z" fill="#FF506F"/>
<path d="M106.22 52.45H104.97V47.1667H106.147L106.22 48.2947V52.45ZM105.619 49.6277C105.622 49.1134 105.71 48.6658 105.883 48.2849C106.059 47.9008 106.304 47.6029 106.62 47.3914C106.936 47.1765 107.304 47.0691 107.724 47.0691C108.062 47.0691 108.357 47.1342 108.608 47.2644C108.858 47.3914 109.052 47.5997 109.189 47.8894C109.329 48.1791 109.399 48.5681 109.399 49.0564V52.45H108.144V49.0466C108.144 48.8057 108.109 48.6153 108.041 48.4753C107.973 48.3354 107.87 48.2361 107.733 48.1775C107.6 48.1189 107.436 48.0896 107.24 48.0896C107.042 48.0896 106.866 48.1287 106.713 48.2068C106.563 48.2849 106.435 48.394 106.327 48.5339C106.223 48.6739 106.143 48.8367 106.088 49.0222C106.036 49.2078 106.01 49.408 106.01 49.6228L105.619 49.6277Z" fill="#FF506F"/>
<path d="M99.0909 49.7595C99.0909 49.2452 99.1886 48.7862 99.3839 48.3826C99.5792 47.9789 99.8591 47.6599 100.224 47.4255C100.592 47.1879 101.034 47.0691 101.552 47.0691C102.076 47.0691 102.524 47.1879 102.895 47.4255C103.266 47.6599 103.547 47.9789 103.739 48.3826C103.935 48.7862 104.032 49.2452 104.032 49.7595V49.8621C104.032 50.3731 103.935 50.8321 103.739 51.239C103.547 51.6427 103.266 51.9617 102.895 52.196C102.527 52.4304 102.082 52.5476 101.562 52.5476C101.041 52.5476 100.596 52.4304 100.229 52.196C99.8608 51.9617 99.5792 51.6427 99.3839 51.239C99.1886 50.8321 99.0909 50.3731 99.0909 49.8621V49.7595ZM100.341 49.8621C100.341 50.1681 100.383 50.4496 100.468 50.7068C100.553 50.9607 100.684 51.1641 100.863 51.3171C101.042 51.4669 101.275 51.5417 101.562 51.5417C101.848 51.5417 102.081 51.4669 102.26 51.3171C102.439 51.1641 102.569 50.9607 102.65 50.7068C102.735 50.4496 102.777 50.1681 102.777 49.8621V49.7595C102.777 49.4568 102.735 49.1785 102.65 48.9246C102.569 48.6674 102.437 48.4623 102.255 48.3093C102.076 48.1531 101.842 48.075 101.552 48.075C101.269 48.075 101.038 48.1531 100.858 48.3093C100.679 48.4623 100.548 48.6674 100.463 48.9246C100.382 49.1785 100.341 49.4568 100.341 49.7595V49.8621Z" fill="#FF506F"/>
<path d="M97.4112 45.1306C97.6326 45.1306 97.8067 45.1941 97.9337 45.321C98.0606 45.4447 98.1241 45.601 98.1241 45.7898C98.1241 45.9786 98.0606 46.1365 97.9337 46.2634C97.8067 46.3871 97.6326 46.449 97.4112 46.449C97.1899 46.449 97.0157 46.3871 96.8888 46.2634C96.7651 46.1365 96.7032 45.9786 96.7032 45.7898C96.7032 45.601 96.7651 45.4447 96.8888 45.321C97.0157 45.1941 97.1899 45.1306 97.4112 45.1306ZM98.0411 52.45H96.7862V47.1667H98.0411V52.45Z" fill="#FF506F"/>
<path d="M95.8194 48.0896H92.8067V47.1667H95.8194V48.0896ZM94.8917 45.8728V50.9363C94.8917 51.0958 94.9145 51.2179 94.9601 51.3025C95.0056 51.3839 95.0691 51.4392 95.1505 51.4685C95.2351 51.4978 95.3344 51.5125 95.4483 51.5125C95.5297 51.5125 95.6078 51.5076 95.6827 51.4978C95.7576 51.488 95.8162 51.4783 95.8585 51.4685V52.4304C95.7576 52.463 95.642 52.4906 95.5118 52.5134C95.3816 52.5362 95.2302 52.5476 95.0577 52.5476C94.781 52.5476 94.5352 52.4988 94.3204 52.4011C94.1056 52.3002 93.9379 52.1391 93.8175 51.9177C93.7003 51.6964 93.6417 51.4018 93.6417 51.0339V45.8728H94.8917Z" fill="#FF506F"/>
<path d="M90.8976 48.8855C90.8976 48.6186 90.8243 48.407 90.6778 48.2507C90.5346 48.0912 90.3132 48.0115 90.0138 48.0115C89.8347 48.0115 89.6785 48.0424 89.545 48.1042C89.4148 48.1628 89.3139 48.2442 89.2423 48.3484C89.1707 48.4526 89.1349 48.573 89.1349 48.7097H87.8849C87.8849 48.42 87.9744 48.1514 88.1534 47.9041C88.3357 47.6534 88.5912 47.4516 88.92 47.2986C89.2488 47.1456 89.6362 47.0691 90.0821 47.0691C90.4825 47.0691 90.8373 47.1375 91.1466 47.2742C91.4591 47.4076 91.7048 47.6095 91.8839 47.8796C92.0629 48.1498 92.1524 48.4884 92.1524 48.8953V51.2097C92.1524 51.4669 92.1703 51.6899 92.2061 51.8787C92.242 52.0642 92.2924 52.227 92.3575 52.3669V52.45H91.0831C91.0213 52.3197 90.974 52.1521 90.9415 51.947C90.9122 51.7419 90.8976 51.5401 90.8976 51.3416V48.8855ZM91.0782 49.9939H90.2677C89.851 49.9939 89.5385 50.0736 89.3302 50.2332C89.1218 50.3894 89.0177 50.5977 89.0177 50.8582C89.0177 51.06 89.086 51.2276 89.2227 51.3611C89.3627 51.4945 89.558 51.5613 89.8087 51.5613C90.0431 51.5613 90.2465 51.5141 90.419 51.4197C90.5916 51.3253 90.7267 51.2113 90.8243 51.0779C90.922 50.9412 90.9724 50.8126 90.9757 50.6921L91.3614 51.2488C91.3191 51.379 91.2524 51.519 91.1612 51.6687C91.0701 51.8184 90.9496 51.96 90.7999 52.0935C90.6534 52.227 90.4776 52.336 90.2726 52.4207C90.0675 52.5053 89.8298 52.5476 89.5597 52.5476C89.2179 52.5476 88.9102 52.4792 88.6368 52.3425C88.3666 52.2058 88.1534 52.0186 87.9972 51.781C87.8442 51.5401 87.7677 51.2699 87.7677 50.9705C87.7677 50.4106 87.976 49.9809 88.3927 49.6814C88.8126 49.3787 89.4115 49.2273 90.1895 49.2273H91.0782V49.9939Z" fill="#FF506F"/>
<path d="M85.7218 52.45H84.4718V47.1667H85.6583L85.7218 48.2312V52.45ZM87.3087 48.324C87.2338 48.311 87.1524 48.3012 87.0645 48.2947C86.9799 48.2882 86.8969 48.2849 86.8155 48.2849C86.5518 48.2849 86.3321 48.3321 86.1563 48.4265C85.9806 48.5177 85.8471 48.6511 85.756 48.8269C85.6681 48.9994 85.616 49.2061 85.5997 49.447L85.3214 49.4275C85.3214 48.9815 85.38 48.5811 85.4972 48.2263C85.6143 47.8682 85.7885 47.5867 86.0196 47.3816C86.254 47.1733 86.5453 47.0691 86.8936 47.0691C86.962 47.0691 87.0385 47.0756 87.1231 47.0886C87.2078 47.0984 87.2729 47.113 87.3185 47.1326L87.3087 48.324Z" fill="#FF506F"/>
<path d="M82.5675 45.1306C82.7888 45.1306 82.963 45.1941 83.0899 45.321C83.2169 45.4447 83.2804 45.601 83.2804 45.7898C83.2804 45.9786 83.2169 46.1365 83.0899 46.2634C82.963 46.3871 82.7888 46.449 82.5675 46.449C82.3461 46.449 82.172 46.3871 82.045 46.2634C81.9213 46.1365 81.8595 45.9786 81.8595 45.7898C81.8595 45.601 81.9213 45.4447 82.045 45.321C82.172 45.1941 82.3461 45.1306 82.5675 45.1306ZM83.1974 52.45H81.9425V47.1667H83.1974V52.45Z" fill="#FF506F"/>
<path d="M78.8419 52.5476C78.5099 52.5476 78.2218 52.4858 77.9776 52.3621C77.7335 52.2351 77.5268 52.0577 77.3575 51.8298C77.1915 51.602 77.058 51.335 76.9571 51.0291C76.8562 50.7198 76.783 50.3829 76.7374 50.0183V49.6765C76.796 49.1622 76.9067 48.7097 77.0694 48.3191C77.2322 47.9285 77.4568 47.6225 77.7433 47.4011C78.033 47.1798 78.3959 47.0691 78.8321 47.0691C79.2781 47.0691 79.6541 47.1814 79.9601 47.406C80.266 47.6306 80.4972 47.9447 80.6534 48.3484C80.8129 48.7488 80.8927 49.2175 80.8927 49.7546V49.8572C80.8927 50.3715 80.8129 50.8321 80.6534 51.239C80.4972 51.6427 80.266 51.9617 79.9601 52.196C79.6573 52.4304 79.2846 52.5476 78.8419 52.5476ZM76.2296 54.4812V47.1667H77.3819L77.4796 48.1824V54.4812H76.2296ZM78.5001 51.5417C78.7735 51.5417 78.9933 51.4653 79.1593 51.3123C79.3285 51.1593 79.4506 50.9558 79.5255 50.7019C79.6036 50.4447 79.6427 50.1632 79.6427 49.8572V49.7546C79.6427 49.4421 79.6036 49.1606 79.5255 48.9099C79.4474 48.6593 79.3237 48.4607 79.1544 48.3142C78.9851 48.1645 78.7638 48.0896 78.4903 48.0896C78.2885 48.0896 78.116 48.1222 77.9727 48.1873C77.8295 48.2524 77.7091 48.3451 77.6114 48.4656C77.517 48.5828 77.4421 48.7244 77.3868 48.8904C77.3347 49.0531 77.2989 49.2338 77.2794 49.4324V50.2625C77.3152 50.5001 77.377 50.7166 77.4649 50.9119C77.5528 51.1039 77.6798 51.2569 77.8458 51.3708C78.0151 51.4848 78.2332 51.5417 78.5001 51.5417Z" fill="#FF506F"/>
<path d="M73.0606 52.5476C72.5756 52.5476 72.1655 52.4613 71.8302 52.2888C71.4981 52.113 71.2459 51.8901 71.0733 51.6199C70.9041 51.3497 70.8194 51.0714 70.8194 50.7849H72.0206C72.0336 50.9867 72.0906 51.1511 72.1915 51.2781C72.2957 51.4018 72.4259 51.4913 72.5821 51.5466C72.7416 51.602 72.9076 51.6296 73.0802 51.6296C73.282 51.6296 73.4513 51.6036 73.588 51.5515C73.7247 51.4962 73.8272 51.4229 73.8956 51.3318C73.9672 51.2374 74.003 51.1283 74.003 51.0046C74.003 50.894 73.9737 50.7947 73.9151 50.7068C73.8598 50.6189 73.7507 50.5375 73.588 50.4626C73.4285 50.3878 73.1925 50.3178 72.88 50.2527C72.5089 50.1746 72.1817 50.0704 71.8985 49.9402C71.6153 49.81 71.3923 49.6423 71.2296 49.4373C71.0701 49.2289 70.9903 48.9766 70.9903 48.6804C70.9903 48.3907 71.0733 48.1238 71.2393 47.8796C71.4054 47.6355 71.643 47.4402 71.9522 47.2937C72.2615 47.144 72.6277 47.0691 73.0509 47.0691C73.4968 47.0691 73.8793 47.144 74.1983 47.2937C74.5206 47.4402 74.768 47.6404 74.9405 47.8943C75.113 48.1449 75.1993 48.4314 75.1993 48.7537H73.9493C73.9493 48.5453 73.8744 48.3663 73.7247 48.2166C73.575 48.0636 73.3487 47.9871 73.046 47.9871C72.8637 47.9871 72.7091 48.0164 72.5821 48.075C72.4552 48.1335 72.3608 48.2117 72.2989 48.3093C72.2371 48.4037 72.2061 48.5079 72.2061 48.6218C72.2061 48.7325 72.2371 48.8302 72.2989 48.9148C72.364 48.9962 72.4731 49.0694 72.6261 49.1345C72.7791 49.1964 72.9923 49.2566 73.2657 49.3152C73.6629 49.3966 74.0079 49.5024 74.3009 49.6326C74.5971 49.7595 74.825 49.9288 74.9845 50.1404C75.1472 50.3487 75.2286 50.6173 75.2286 50.946C75.2286 51.2553 75.1391 51.532 74.9601 51.7761C74.7843 52.017 74.5336 52.2058 74.2081 52.3425C73.8826 52.4792 73.5001 52.5476 73.0606 52.5476Z" fill="#FF506F"/>
<path d="M66.7276 52.45H65.4776V47.1667H66.6544L66.7276 48.2947V52.45ZM66.127 49.6277C66.1303 49.1134 66.2182 48.6658 66.3907 48.2849C66.5665 47.9008 66.8123 47.6029 67.128 47.3914C67.4438 47.1765 67.8116 47.0691 68.2315 47.0691C68.5701 47.0691 68.8647 47.1342 69.1153 47.2644C69.366 47.3914 69.5597 47.5997 69.6964 47.8894C69.8364 48.1791 69.9063 48.5681 69.9063 49.0564V52.45H68.6515V49.0466C68.6515 48.8057 68.6173 48.6153 68.5489 48.4753C68.4806 48.3354 68.378 48.2361 68.2413 48.1775C68.1078 48.1189 67.9435 48.0896 67.7481 48.0896C67.5496 48.0896 67.3738 48.1287 67.2208 48.2068C67.0711 48.2849 66.9425 48.394 66.8351 48.5339C66.7309 48.6739 66.6511 48.8367 66.5958 49.0222C66.5437 49.2078 66.5177 49.408 66.5177 49.6228L66.127 49.6277Z" fill="#FF506F"/>
<path d="M63.5929 45.1306C63.8142 45.1306 63.9884 45.1941 64.1153 45.321C64.2423 45.4447 64.3058 45.601 64.3058 45.7898C64.3058 45.9786 64.2423 46.1365 64.1153 46.2634C63.9884 46.3871 63.8142 46.449 63.5929 46.449C63.3715 46.449 63.1974 46.3871 63.0704 46.2634C62.9467 46.1365 62.8849 45.9786 62.8849 45.7898C62.8849 45.601 62.9467 45.4447 63.0704 45.321C63.1974 45.1941 63.3715 45.1306 63.5929 45.1306ZM64.2227 52.45H62.9679V47.1667H64.2227V52.45Z" fill="#FF506F"/>
<path d="M61.8497 45.6628C61.8497 45.8712 61.8106 46.0876 61.7325 46.3123C61.6576 46.5336 61.5535 46.7452 61.42 46.947C61.2898 47.1456 61.1401 47.3181 60.9708 47.4646L60.3507 47.0886C60.4809 46.8868 60.5867 46.672 60.6681 46.4441C60.7527 46.2162 60.795 45.9574 60.795 45.6677V44.95H61.8497V45.6628Z" fill="#FF506F"/>
<path d="M59.8624 52.45H56.2979V51.405H59.8624V52.45ZM56.669 52.45H55.3702V45.3406H56.669V52.45Z" fill="#FF506F"/>
</svg>
