<svg width="138" height="138" viewBox="0 0 138 138" fill="none" xmlns="http://www.w3.org/2000/svg">
<g filter="url(#filter0_d_750_1788)">
<rect x="3" y="3" width="126" height="126" fill="#FEF8EE" stroke="black" stroke-width="6"/>
<path d="M68.0312 21.0666C67.1892 22.7159 65.1711 23.3641 63.5317 22.5148C61.5671 21.5001 59.5534 21.0308 57.5353 21.1157C50.2159 21.4242 46.0639 29.0944 45.8901 29.4207C45.2887 30.5515 44.1349 31.1997 42.9409 31.1997C42.4108 31.1997 41.8718 31.07 41.3728 30.8018C39.7423 29.9347 39.1275 27.9054 39.9918 26.2694C40.611 25.1028 46.3445 14.8759 57.2547 14.4155C60.4355 14.2814 63.5807 15.001 66.5878 16.552C68.2272 17.4013 68.8732 19.4217 68.0312 21.0666Z" fill="black"/>
<path d="M89.17 21.0663C90.012 22.7157 92.0301 23.3638 93.6695 22.5145C95.6341 21.4999 97.6477 21.0306 99.6658 21.1155C106.985 21.4239 111.137 29.0941 111.311 29.4204C111.912 30.5513 113.066 31.1994 114.26 31.1994C114.79 31.1994 115.329 31.0698 115.828 30.8016C117.459 29.9345 118.074 27.9052 117.209 26.2692C116.59 25.1026 110.857 14.8756 99.9465 14.4152C96.7657 14.2811 93.6205 15.0008 90.6134 16.5518C88.974 17.4011 88.328 19.4214 89.17 21.0663Z" fill="black"/>
<path d="M100.201 37.1997C102.998 37.1998 105.64 38.2143 107.981 40.0142C104.473 42.0681 102.001 47.0193 102.001 52.8003C102.001 60.4217 106.299 66.6001 111.601 66.6001C113.871 66.6001 115.954 65.4653 117.598 63.5718C117.599 63.6802 117.601 63.7892 117.601 63.8979C117.6 78.6427 109.809 90.5997 100.201 90.6001C90.5935 90.6001 82.8009 78.6474 82.8008 63.8979C82.8008 49.1483 90.5889 37.1997 100.201 37.1997Z" fill="black"/>
<path d="M57.001 37.1997C59.7993 37.1998 62.4423 38.2135 64.7842 40.0132C61.2748 42.0663 58.8008 47.018 58.8008 52.8003C58.8009 60.4216 63.0986 66.5999 68.4004 66.6001C70.6704 66.6001 72.754 65.4652 74.3975 63.5718C74.3983 63.68 74.4004 63.7884 74.4004 63.897C74.4004 78.6464 66.6085 90.5998 57.001 90.6001C47.3933 90.6001 39.6006 78.6421 39.6006 63.897C39.6008 49.1521 47.3934 37.1997 57.001 37.1997Z" fill="black"/>
</g>
<defs>
<filter id="filter0_d_750_1788" x="0" y="0" width="138" height="138" filterUnits="userSpaceOnUse" color-interpolation-filters="sRGB">
<feFlood flood-opacity="0" result="BackgroundImageFix"/>
<feColorMatrix in="SourceAlpha" type="matrix" values="0 0 0 0 0 0 0 0 0 0 0 0 0 0 0 0 0 0 127 0" result="hardAlpha"/>
<feOffset dx="6" dy="6"/>
<feComposite in2="hardAlpha" operator="out"/>
<feColorMatrix type="matrix" values="0 0 0 0 0 0 0 0 0 0 0 0 0 0 0 0 0 0 1 0"/>
<feBlend mode="normal" in2="BackgroundImageFix" result="effect1_dropShadow_750_1788"/>
<feBlend mode="normal" in="SourceGraphic" in2="effect1_dropShadow_750_1788" result="shape"/>
</filter>
</defs>
</svg>
