<svg width="521" height="117" viewBox="0 0 521 117" fill="none" xmlns="http://www.w3.org/2000/svg">
<path d="M442.098 89.4217C442.328 75.6291 442.443 61.147 442.443 45.2855C442.443 29.8839 442.328 15.7465 442.098 2.06893L470.373 0.11499L469.224 47.3544H472.212L488.074 13.9075H518.187L502.096 42.642C499.452 47.8142 494.05 49.6532 484.51 49.998V51.4922C494.395 51.837 498.993 54.1358 502.441 60.2275C508.073 69.3075 513.935 79.0773 520.486 89.4217H488.993L472.327 54.9403H469.224C469.569 64.2503 469.798 75.2843 470.373 89.4217H442.098Z" fill="#0D0D0D"/>
<path d="M360.466 89.4217C360.926 78.0428 360.926 64.4802 360.926 51.4922C360.926 38.3893 360.926 25.976 360.466 13.9075H388.741L386.327 33.1021H387.821C393.108 17.8154 402.303 12.4133 413.912 12.4133C430.233 12.4133 437.129 22.0681 437.129 39.9984C437.129 55.0553 437.129 77.0084 437.359 89.4217H409.314C409.659 77.1233 409.659 65.5146 409.659 50.9175C409.659 39.6536 406.441 35.171 398.97 35.171C394.258 35.171 390.35 37.125 388.281 40.9179C388.281 56.6644 388.281 77.5831 388.741 89.4217H360.466Z" fill="#0D0D0D"/>
<path d="M301.419 90.8008C287.971 90.8008 279.466 83.6747 279.466 71.4913C279.466 59.1929 287.282 50.9174 306.936 50.9174C314.867 50.9174 321.763 51.4921 328.889 52.2966V48.1589C328.889 37.8145 325.211 31.6078 314.867 31.6078C312.223 31.6078 309.809 32.0676 307.396 33.217C306.936 38.0444 306.706 42.5269 306.706 47.4693L280.615 44.0211C282.224 22.2979 296.132 12.1833 318.889 12.1833C345.21 12.1833 355.899 23.1024 355.899 45.1705L355.785 69.5373C355.785 77.468 355.785 83.4448 356.129 89.4216H328.314L331.073 69.6523H329.579C326.705 80.6863 317.625 90.8008 301.419 90.8008ZM313.947 71.6062C319.579 71.6062 324.521 69.3074 328.889 63.9054V58.6182C324.407 58.5033 321.188 58.3884 316.476 58.3884C309.465 58.3884 306.131 61.1469 306.131 65.2846C306.131 69.4224 309.235 71.6062 313.947 71.6062Z" fill="#0D0D0D"/>
<path d="M248.279 89.4216L248.509 44.0212C248.509 29.8838 248.279 15.0569 247.934 1.72407L275.864 0C275.634 14.5971 275.519 27.2403 275.634 41.4925C275.634 53.9058 275.979 77.583 276.209 85.5137V88.5021V89.4216C273.106 89.5366 270.347 89.4216 264.83 89.4216H248.279Z" fill="#0D0D0D"/>
<path d="M163.394 89.4217C163.739 77.5831 163.969 57.1241 163.969 45.6304C163.969 34.2515 163.739 13.5627 163.394 1.72412H207.3C235.46 1.72412 243.046 7.81582 243.046 22.6428C243.046 34.9411 236.839 42.8719 213.737 43.1017V44.8258C238.104 44.8258 245.115 52.0669 245.115 66.2042C245.115 82.4105 236.494 89.4217 209.714 89.4217H163.394ZM208.45 69.7673C214.082 68.6179 216.495 65.6295 216.495 60.6872C216.495 52.9864 212.932 49.7681 202.588 49.7681H188.565V63.3308C188.565 67.5835 189.715 69.4225 194.312 69.7673H208.45ZM206.036 38.5042C211.668 37.3548 213.737 34.4814 213.737 29.8839C213.737 22.298 210.174 19.1947 200.174 19.1947H188.565V32.1826C188.565 36.3204 189.715 38.1594 194.312 38.5042H206.036Z" fill="#0D0D0D"/>
<path d="M81.5259 89.4217C81.9856 78.0428 81.9856 64.4802 81.9856 51.4922C81.9856 38.3893 81.9856 25.976 81.5259 13.9075H109.801L107.387 33.1021H108.881C114.168 17.8154 123.363 12.4133 134.972 12.4133C151.293 12.4133 158.189 22.0681 158.189 39.9984C158.189 55.0553 158.189 77.0084 158.419 89.4217H130.374C130.719 77.1233 130.719 65.5146 130.719 50.9175C130.719 39.6536 127.501 35.171 120.03 35.171C115.318 35.171 111.41 37.125 109.341 40.9179C109.341 56.6644 109.341 77.5831 109.801 89.4217H81.5259Z" fill="#0D0D0D"/>
<path d="M38.0444 90.9159C10.1145 90.9159 0 78.5026 0 52.8714V1.72412H27.0104V54.4806C27.0104 65.2847 31.2631 69.8822 39.3087 69.8822C43.3316 69.8822 46.205 69.5374 49.1934 68.6179C49.6531 63.9055 49.883 59.5378 49.883 53.2163V1.72412H76.8934V52.8714C76.8934 78.5026 67.6984 90.9159 38.0444 90.9159Z" fill="#0D0D0D"/>
<path d="M435.461 112.871C434.347 112.871 433.387 112.635 432.58 112.163C431.78 111.685 431.162 111.039 430.724 110.225C430.293 109.412 430.078 108.506 430.078 107.508V107.088C430.078 105.939 430.297 104.938 430.734 104.083C431.172 103.222 431.773 102.555 432.539 102.084C433.305 101.605 434.176 101.366 435.154 101.366C436.22 101.366 437.105 101.598 437.81 102.063C438.521 102.521 439.054 103.16 439.409 103.981C439.765 104.794 439.942 105.738 439.942 106.811V107.939H431.319V106.073H437.348V105.867C437.334 105.444 437.252 105.051 437.102 104.688C436.952 104.326 436.716 104.035 436.395 103.817C436.08 103.591 435.663 103.478 435.144 103.478C434.604 103.478 434.152 103.629 433.79 103.929C433.435 104.23 433.165 104.651 432.98 105.191C432.802 105.731 432.713 106.363 432.713 107.088V107.508C432.713 108.123 432.826 108.677 433.052 109.169C433.284 109.661 433.616 110.051 434.046 110.338C434.484 110.618 435.007 110.759 435.615 110.759C436.196 110.759 436.716 110.646 437.174 110.42C437.639 110.188 438.039 109.856 438.374 109.426L439.737 110.81C439.389 111.329 438.859 111.804 438.148 112.235C437.444 112.659 436.548 112.871 435.461 112.871Z" fill="#0D0D0D"/>
<path d="M424.74 112.871C423.605 112.871 422.662 112.621 421.91 112.122C421.158 111.616 420.598 110.943 420.229 110.102C419.859 109.255 419.675 108.318 419.675 107.293V106.954C419.675 105.922 419.859 104.986 420.229 104.145C420.604 103.297 421.165 102.624 421.91 102.125C422.662 101.619 423.602 101.366 424.73 101.366C425.625 101.366 426.412 101.544 427.088 101.899C427.772 102.248 428.305 102.74 428.688 103.376C429.071 104.005 429.269 104.746 429.283 105.601H426.812C426.798 105.211 426.706 104.856 426.535 104.534C426.364 104.213 426.121 103.957 425.807 103.765C425.499 103.574 425.126 103.478 424.689 103.478C424.053 103.478 423.561 103.646 423.212 103.981C422.871 104.316 422.631 104.75 422.495 105.283C422.365 105.809 422.3 106.366 422.3 106.954V107.293C422.3 107.881 422.365 108.441 422.495 108.974C422.625 109.501 422.864 109.931 423.212 110.266C423.561 110.594 424.06 110.759 424.709 110.759C425.099 110.759 425.448 110.683 425.755 110.533C426.07 110.376 426.319 110.16 426.504 109.887C426.695 109.614 426.798 109.296 426.812 108.933H429.283C429.269 109.672 429.057 110.338 428.647 110.933C428.237 111.528 427.69 111.999 427.006 112.348C426.33 112.697 425.574 112.871 424.74 112.871Z" fill="#0D0D0D"/>
<path d="M415.629 105.18C415.629 104.62 415.475 104.176 415.168 103.847C414.867 103.512 414.402 103.345 413.773 103.345C413.397 103.345 413.069 103.41 412.789 103.54C412.515 103.663 412.303 103.834 412.153 104.052C412.003 104.271 411.927 104.524 411.927 104.811H409.302C409.302 104.203 409.49 103.639 409.866 103.119C410.249 102.593 410.786 102.169 411.476 101.848C412.167 101.527 412.98 101.366 413.917 101.366C414.758 101.366 415.503 101.51 416.152 101.797C416.808 102.077 417.324 102.501 417.7 103.068C418.076 103.635 418.264 104.346 418.264 105.201V110.061C418.264 110.601 418.302 111.07 418.377 111.466C418.452 111.856 418.558 112.198 418.695 112.491V112.666H416.019C415.889 112.392 415.79 112.04 415.721 111.61C415.66 111.179 415.629 110.755 415.629 110.338V105.18ZM416.009 107.508H414.306C413.431 107.508 412.775 107.676 412.338 108.01C411.9 108.339 411.681 108.776 411.681 109.323C411.681 109.747 411.825 110.099 412.112 110.379C412.406 110.659 412.816 110.8 413.343 110.8C413.835 110.8 414.262 110.7 414.624 110.502C414.987 110.304 415.27 110.065 415.475 109.784C415.68 109.497 415.786 109.227 415.793 108.974L416.603 110.143C416.514 110.417 416.374 110.711 416.183 111.025C415.991 111.34 415.739 111.637 415.424 111.917C415.116 112.198 414.747 112.427 414.317 112.604C413.886 112.782 413.387 112.871 412.82 112.871C412.102 112.871 411.456 112.727 410.882 112.44C410.314 112.153 409.866 111.76 409.538 111.261C409.217 110.755 409.056 110.188 409.056 109.559C409.056 108.383 409.494 107.481 410.369 106.852C411.251 106.216 412.509 105.898 414.142 105.898H416.009V107.508Z" fill="#0D0D0D"/>
<path d="M403.76 112.871C403.062 112.871 402.457 112.741 401.945 112.481C401.432 112.215 400.998 111.842 400.642 111.364C400.294 110.885 400.013 110.324 399.802 109.682C399.59 109.032 399.436 108.325 399.34 107.559V106.842C399.463 105.761 399.696 104.811 400.037 103.991C400.379 103.171 400.851 102.528 401.452 102.063C402.061 101.598 402.823 101.366 403.739 101.366C404.676 101.366 405.465 101.602 406.108 102.073C406.75 102.545 407.236 103.205 407.564 104.052C407.899 104.893 408.066 105.878 408.066 107.006V107.221C408.066 108.301 407.899 109.268 407.564 110.123C407.236 110.97 406.75 111.64 406.108 112.133C405.472 112.625 404.689 112.871 403.76 112.871ZM398.274 116.931V101.571H400.694L400.899 103.704V116.931H398.274ZM403.042 110.759C403.616 110.759 404.077 110.598 404.426 110.277C404.781 109.955 405.038 109.528 405.195 108.995C405.359 108.455 405.441 107.864 405.441 107.221V107.006C405.441 106.349 405.359 105.758 405.195 105.232C405.031 104.705 404.771 104.288 404.416 103.981C404.06 103.666 403.595 103.509 403.021 103.509C402.597 103.509 402.235 103.577 401.934 103.714C401.634 103.851 401.381 104.046 401.176 104.299C400.977 104.545 400.82 104.842 400.704 105.191C400.594 105.532 400.519 105.912 400.478 106.329V108.072C400.553 108.571 400.683 109.026 400.868 109.436C401.052 109.839 401.319 110.16 401.668 110.4C402.023 110.639 402.481 110.759 403.042 110.759Z" fill="#0D0D0D"/>
<path d="M392.249 112.871C391.23 112.871 390.369 112.69 389.665 112.327C388.968 111.958 388.438 111.49 388.076 110.923C387.72 110.355 387.542 109.771 387.542 109.169H390.065C390.092 109.593 390.212 109.938 390.424 110.205C390.643 110.465 390.916 110.653 391.244 110.769C391.579 110.885 391.928 110.943 392.29 110.943C392.714 110.943 393.069 110.888 393.356 110.779C393.644 110.663 393.859 110.509 394.002 110.318C394.153 110.119 394.228 109.89 394.228 109.631C394.228 109.398 394.167 109.19 394.043 109.005C393.927 108.821 393.698 108.65 393.356 108.492C393.021 108.335 392.526 108.188 391.87 108.052C391.09 107.887 390.403 107.669 389.809 107.395C389.214 107.122 388.746 106.77 388.404 106.339C388.069 105.902 387.901 105.372 387.901 104.75C387.901 104.141 388.076 103.581 388.424 103.068C388.773 102.555 389.272 102.145 389.921 101.838C390.571 101.523 391.34 101.366 392.229 101.366C393.165 101.366 393.968 101.523 394.638 101.838C395.315 102.145 395.834 102.566 396.197 103.099C396.559 103.625 396.74 104.227 396.74 104.904H394.115C394.115 104.466 393.958 104.09 393.644 103.776C393.329 103.454 392.854 103.294 392.218 103.294C391.835 103.294 391.511 103.355 391.244 103.478C390.978 103.601 390.779 103.765 390.649 103.97C390.52 104.169 390.455 104.387 390.455 104.627C390.455 104.859 390.52 105.064 390.649 105.242C390.786 105.413 391.015 105.567 391.336 105.703C391.658 105.833 392.105 105.96 392.68 106.083C393.514 106.254 394.238 106.476 394.854 106.749C395.476 107.016 395.954 107.371 396.289 107.816C396.631 108.253 396.802 108.817 396.802 109.508C396.802 110.157 396.614 110.738 396.238 111.251C395.869 111.757 395.342 112.153 394.659 112.44C393.975 112.727 393.172 112.871 392.249 112.871Z" fill="#0D0D0D"/>
<path d="M382.358 112.871C381.244 112.871 380.284 112.635 379.477 112.163C378.677 111.685 378.059 111.039 377.621 110.225C377.19 109.412 376.975 108.506 376.975 107.508V107.088C376.975 105.939 377.194 104.938 377.631 104.083C378.069 103.222 378.67 102.555 379.436 102.084C380.202 101.605 381.073 101.366 382.051 101.366C383.117 101.366 384.002 101.598 384.707 102.063C385.417 102.521 385.951 103.16 386.306 103.981C386.662 104.794 386.839 105.738 386.839 106.811V107.939H378.216V106.073H384.245V105.867C384.231 105.444 384.149 105.051 383.999 104.688C383.849 104.326 383.613 104.035 383.292 103.817C382.977 103.591 382.56 103.478 382.041 103.478C381.5 103.478 381.049 103.629 380.687 103.929C380.332 104.23 380.062 104.651 379.877 105.191C379.699 105.731 379.61 106.363 379.61 107.088V107.508C379.61 108.123 379.723 108.677 379.949 109.169C380.181 109.661 380.513 110.051 380.943 110.338C381.381 110.618 381.904 110.759 382.512 110.759C383.093 110.759 383.613 110.646 384.071 110.42C384.536 110.188 384.936 109.856 385.271 109.426L386.634 110.81C386.286 111.329 385.756 111.804 385.045 112.235C384.341 112.659 383.445 112.871 382.358 112.871Z" fill="#0D0D0D"/>
<path d="M370.791 112.666H368.156V96.9158H370.791V112.666Z" fill="#0D0D0D"/>
<path d="M363.536 101.571H366.171V112.666H363.689L363.536 110.041V101.571ZM364.746 107.703C364.746 108.694 364.599 109.579 364.305 110.359C364.011 111.138 363.553 111.753 362.931 112.204C362.309 112.649 361.509 112.871 360.531 112.871C359.438 112.871 358.552 112.55 357.875 111.907C357.199 111.264 356.86 110.208 356.86 108.739V101.571H359.485V108.759C359.485 109.258 359.561 109.651 359.711 109.938C359.868 110.219 360.077 110.42 360.336 110.543C360.603 110.659 360.894 110.718 361.208 110.718C361.885 110.718 362.418 110.588 362.808 110.328C363.197 110.061 363.474 109.702 363.638 109.251C363.809 108.793 363.895 108.284 363.895 107.723L364.746 107.703Z" fill="#0D0D0D"/>
<path d="M351.205 112.871C350.09 112.871 349.13 112.635 348.323 112.163C347.523 111.685 346.905 111.039 346.467 110.225C346.037 109.412 345.821 108.506 345.821 107.508V107.088C345.821 105.939 346.04 104.938 346.478 104.083C346.915 103.222 347.517 102.555 348.282 102.084C349.048 101.605 349.919 101.366 350.897 101.366C351.963 101.366 352.849 101.598 353.553 102.063C354.264 102.521 354.797 103.16 355.152 103.981C355.508 104.794 355.686 105.738 355.686 106.811V107.939H347.062V106.073H353.091V105.867C353.078 105.444 352.996 105.051 352.845 104.688C352.695 104.326 352.459 104.035 352.138 103.817C351.823 103.591 351.406 103.478 350.887 103.478C350.347 103.478 349.896 103.629 349.533 103.929C349.178 104.23 348.908 104.651 348.723 105.191C348.545 105.731 348.457 106.363 348.457 107.088V107.508C348.457 108.123 348.569 108.677 348.795 109.169C349.027 109.661 349.359 110.051 349.79 110.338C350.227 110.618 350.75 110.759 351.358 110.759C351.939 110.759 352.459 110.646 352.917 110.42C353.382 110.188 353.782 109.856 354.117 109.426L355.48 110.81C355.132 111.329 354.602 111.804 353.891 112.235C353.187 112.659 352.292 112.871 351.205 112.871Z" fill="#0D0D0D"/>
<path d="M340.227 112.871C339.209 112.871 338.347 112.69 337.643 112.327C336.946 111.958 336.416 111.49 336.054 110.923C335.698 110.355 335.521 109.771 335.521 109.169H338.043C338.071 109.593 338.19 109.938 338.402 110.205C338.621 110.465 338.894 110.653 339.222 110.769C339.557 110.885 339.906 110.943 340.268 110.943C340.692 110.943 341.048 110.888 341.335 110.779C341.622 110.663 341.837 110.509 341.981 110.318C342.131 110.119 342.206 109.89 342.206 109.631C342.206 109.398 342.145 109.19 342.022 109.005C341.906 108.821 341.677 108.65 341.335 108.492C341 108.335 340.504 108.188 339.848 108.052C339.069 107.887 338.382 107.669 337.787 107.395C337.192 107.122 336.724 106.77 336.382 106.339C336.047 105.902 335.88 105.372 335.88 104.75C335.88 104.141 336.054 103.581 336.403 103.068C336.751 102.555 337.25 102.145 337.9 101.838C338.549 101.523 339.318 101.366 340.207 101.366C341.143 101.366 341.947 101.523 342.616 101.838C343.293 102.145 343.813 102.566 344.175 103.099C344.537 103.625 344.719 104.227 344.719 104.904H342.094C342.094 104.466 341.936 104.09 341.622 103.776C341.307 103.454 340.832 103.294 340.197 103.294C339.814 103.294 339.489 103.355 339.222 103.478C338.956 103.601 338.758 103.765 338.628 103.97C338.498 104.169 338.433 104.387 338.433 104.627C338.433 104.859 338.498 105.064 338.628 105.242C338.764 105.413 338.993 105.567 339.315 105.703C339.636 105.833 340.084 105.96 340.658 106.083C341.492 106.254 342.217 106.476 342.832 106.749C343.454 107.016 343.932 107.371 344.267 107.816C344.609 108.253 344.78 108.817 344.78 109.508C344.78 110.157 344.592 110.738 344.216 111.251C343.847 111.757 343.321 112.153 342.637 112.44C341.953 112.727 341.15 112.871 340.227 112.871Z" fill="#0D0D0D"/>
<path d="M322.958 112.666H320.333V101.571H322.805L322.958 103.94V112.666ZM321.697 106.739C321.704 105.659 321.889 104.719 322.251 103.919C322.62 103.113 323.136 102.487 323.799 102.043C324.462 101.592 325.235 101.366 326.117 101.366C326.828 101.366 327.446 101.503 327.973 101.776C328.499 102.043 328.906 102.48 329.193 103.089C329.487 103.697 329.634 104.514 329.634 105.539V112.666H326.999V105.519C326.999 105.013 326.927 104.613 326.783 104.319C326.64 104.025 326.424 103.817 326.137 103.694C325.857 103.571 325.512 103.509 325.102 103.509C324.685 103.509 324.315 103.591 323.994 103.755C323.68 103.919 323.41 104.148 323.184 104.442C322.965 104.736 322.798 105.078 322.682 105.468C322.572 105.857 322.518 106.278 322.518 106.729L321.697 106.739Z" fill="#0D0D0D"/>
<path d="M315.908 101.571H318.543V112.666H316.062L315.908 110.041V101.571ZM317.118 107.703C317.118 108.694 316.971 109.579 316.677 110.359C316.383 111.138 315.925 111.753 315.303 112.204C314.681 112.649 313.881 112.871 312.904 112.871C311.81 112.871 310.925 112.55 310.248 111.907C309.571 111.264 309.233 110.208 309.233 108.739V101.571H311.858V108.759C311.858 109.258 311.933 109.651 312.083 109.938C312.241 110.219 312.449 110.42 312.709 110.543C312.976 110.659 313.266 110.718 313.581 110.718C314.257 110.718 314.791 110.588 315.18 110.328C315.57 110.061 315.847 109.702 316.011 109.251C316.182 108.793 316.267 108.284 316.267 107.723L317.118 107.703Z" fill="#0D0D0D"/>
<path d="M296.199 112.666H293.574V101.571H296.045L296.199 103.94V112.666ZM294.938 106.739C294.945 105.659 295.129 104.719 295.491 103.919C295.861 103.113 296.377 102.487 297.04 102.043C297.703 101.592 298.475 101.366 299.357 101.366C300.068 101.366 300.687 101.503 301.213 101.776C301.74 102.043 302.146 102.48 302.433 103.089C302.727 103.697 302.874 104.514 302.874 105.539V112.666H300.239V105.519C300.239 105.013 300.167 104.613 300.024 104.319C299.88 104.025 299.665 103.817 299.378 103.694C299.097 103.571 298.752 103.509 298.342 103.509C297.925 103.509 297.556 103.591 297.235 103.755C296.92 103.919 296.65 104.148 296.425 104.442C296.206 104.736 296.038 105.078 295.922 105.468C295.813 105.857 295.758 106.278 295.758 106.729L294.938 106.739Z" fill="#0D0D0D"/>
<path d="M287.898 112.871C286.784 112.871 285.823 112.635 285.017 112.163C284.217 111.685 283.598 111.039 283.161 110.225C282.73 109.412 282.515 108.506 282.515 107.508V107.088C282.515 105.939 282.733 104.938 283.171 104.083C283.608 103.222 284.21 102.555 284.976 102.084C285.741 101.605 286.613 101.366 287.59 101.366C288.657 101.366 289.542 101.598 290.246 102.063C290.957 102.521 291.49 103.16 291.846 103.981C292.201 104.794 292.379 105.738 292.379 106.811V107.939H283.755V106.073H289.785V105.867C289.771 105.444 289.689 105.051 289.539 104.688C289.388 104.326 289.152 104.035 288.831 103.817C288.517 103.591 288.1 103.478 287.58 103.478C287.04 103.478 286.589 103.629 286.227 103.929C285.871 104.23 285.601 104.651 285.417 105.191C285.239 105.731 285.15 106.363 285.15 107.088V107.508C285.15 108.123 285.263 108.677 285.488 109.169C285.721 109.661 286.052 110.051 286.483 110.338C286.92 110.618 287.443 110.759 288.052 110.759C288.633 110.759 289.152 110.646 289.61 110.42C290.075 110.188 290.475 109.856 290.81 109.426L292.174 110.81C291.825 111.329 291.295 111.804 290.584 112.235C289.88 112.659 288.985 112.871 287.898 112.871Z" fill="#0D0D0D"/>
<path d="M272.628 112.871C271.514 112.871 270.554 112.635 269.747 112.163C268.947 111.685 268.329 111.039 267.891 110.225C267.46 109.412 267.245 108.506 267.245 107.508V107.088C267.245 105.939 267.464 104.938 267.901 104.083C268.339 103.222 268.94 102.555 269.706 102.084C270.472 101.605 271.343 101.366 272.321 101.366C273.387 101.366 274.272 101.598 274.977 102.063C275.688 102.521 276.221 103.16 276.576 103.981C276.932 104.794 277.109 105.738 277.109 106.811V107.939H268.486V106.073H274.515V105.867C274.501 105.444 274.419 105.051 274.269 104.688C274.119 104.326 273.883 104.035 273.562 103.817C273.247 103.591 272.83 103.478 272.311 103.478C271.771 103.478 271.319 103.629 270.957 103.929C270.602 104.23 270.332 104.651 270.147 105.191C269.969 105.731 269.88 106.363 269.88 107.088V107.508C269.88 108.123 269.993 108.677 270.219 109.169C270.451 109.661 270.783 110.051 271.213 110.338C271.651 110.618 272.174 110.759 272.782 110.759C273.363 110.759 273.883 110.646 274.341 110.42C274.806 110.188 275.206 109.856 275.541 109.426L276.904 110.81C276.556 111.329 276.026 111.804 275.315 112.235C274.611 112.659 273.715 112.871 272.628 112.871Z" fill="#0D0D0D"/>
<path d="M264.092 101.571H266.819L263.005 112.666H261.313L261.467 110.615L264.092 101.571ZM262.195 110.635L262.307 112.666H260.626L256.781 101.571H259.518L262.195 110.635Z" fill="#0D0D0D"/>
<path d="M254.457 97.2952C254.922 97.2952 255.288 97.4285 255.554 97.6951C255.821 97.9548 255.954 98.283 255.954 98.6794C255.954 99.0759 255.821 99.4075 255.554 99.6741C255.288 99.9338 254.922 100.064 254.457 100.064C253.992 100.064 253.627 99.9338 253.36 99.6741C253.1 99.4075 252.97 99.0759 252.97 98.6794C252.97 98.283 253.1 97.9548 253.36 97.6951C253.627 97.4285 253.992 97.2952 254.457 97.2952ZM255.78 112.666H253.145V101.571H255.78V112.666Z" fill="#0D0D0D"/>
<path d="M251.745 103.509H245.418V101.571H251.745V103.509ZM249.796 98.8538V109.487C249.796 109.822 249.844 110.078 249.94 110.256C250.036 110.427 250.169 110.543 250.34 110.605C250.518 110.666 250.726 110.697 250.965 110.697C251.136 110.697 251.3 110.687 251.458 110.666C251.615 110.646 251.738 110.625 251.827 110.605V112.625C251.615 112.693 251.372 112.751 251.099 112.799C250.825 112.847 250.507 112.871 250.145 112.871C249.564 112.871 249.048 112.768 248.597 112.563C248.146 112.351 247.793 112.013 247.541 111.548C247.294 111.083 247.171 110.465 247.171 109.692V98.8538H249.796Z" fill="#0D0D0D"/>
<path d="M242.039 105.18C242.039 104.62 241.885 104.176 241.577 103.847C241.276 103.512 240.812 103.345 240.183 103.345C239.807 103.345 239.479 103.41 239.198 103.54C238.925 103.663 238.713 103.834 238.562 104.052C238.412 104.271 238.337 104.524 238.337 104.811H235.712C235.712 104.203 235.9 103.639 236.276 103.119C236.659 102.593 237.195 102.169 237.886 101.848C238.576 101.527 239.39 101.366 240.326 101.366C241.167 101.366 241.912 101.51 242.562 101.797C243.218 102.077 243.734 102.501 244.11 103.068C244.486 103.635 244.674 104.346 244.674 105.201V110.061C244.674 110.601 244.711 111.07 244.787 111.466C244.862 111.856 244.968 112.198 245.104 112.491V112.666H242.428C242.298 112.392 242.199 112.04 242.131 111.61C242.069 111.179 242.039 110.755 242.039 110.338V105.18ZM242.418 107.508H240.716C239.841 107.508 239.185 107.676 238.747 108.01C238.31 108.339 238.091 108.776 238.091 109.323C238.091 109.747 238.234 110.099 238.521 110.379C238.815 110.659 239.226 110.8 239.752 110.8C240.244 110.8 240.671 110.7 241.034 110.502C241.396 110.304 241.68 110.065 241.885 109.784C242.09 109.497 242.196 109.227 242.203 108.974L243.013 110.143C242.924 110.417 242.784 110.711 242.592 111.025C242.401 111.34 242.148 111.637 241.833 111.917C241.526 112.198 241.157 112.427 240.726 112.604C240.295 112.782 239.796 112.871 239.229 112.871C238.511 112.871 237.865 112.727 237.291 112.44C236.724 112.153 236.276 111.76 235.948 111.261C235.626 110.755 235.466 110.188 235.466 109.559C235.466 108.383 235.903 107.481 236.778 106.852C237.66 106.216 238.918 105.898 240.552 105.898H242.418V107.508Z" fill="#0D0D0D"/>
<path d="M230.149 112.871C229.034 112.871 228.074 112.635 227.267 112.163C226.468 111.685 225.849 111.039 225.411 110.225C224.981 109.412 224.765 108.506 224.765 107.508V107.088C224.765 105.939 224.984 104.938 225.422 104.083C225.859 103.222 226.461 102.555 227.226 102.084C227.992 101.605 228.864 101.366 229.841 101.366C230.907 101.366 231.793 101.598 232.497 102.063C233.208 102.521 233.741 103.16 234.096 103.981C234.452 104.794 234.63 105.738 234.63 106.811V107.939H226.006V106.073H232.035V105.867C232.022 105.444 231.94 105.051 231.789 104.688C231.639 104.326 231.403 104.035 231.082 103.817C230.767 103.591 230.35 103.478 229.831 103.478C229.291 103.478 228.84 103.629 228.477 103.929C228.122 104.23 227.852 104.651 227.667 105.191C227.49 105.731 227.401 106.363 227.401 107.088V107.508C227.401 108.123 227.513 108.677 227.739 109.169C227.971 109.661 228.303 110.051 228.734 110.338C229.171 110.618 229.694 110.759 230.302 110.759C230.884 110.759 231.403 110.646 231.861 110.42C232.326 110.188 232.726 109.856 233.061 109.426L234.425 110.81C234.076 111.329 233.546 111.804 232.835 112.235C232.131 112.659 231.236 112.871 230.149 112.871ZM230.754 97.2747H233.686L230.866 100.382H228.744L230.754 97.2747Z" fill="#0D0D0D"/>
<path d="M220.966 112.666H218.341V101.571H220.832L220.966 103.806V112.666ZM224.298 104.001C224.141 103.974 223.97 103.953 223.785 103.94C223.608 103.926 223.433 103.919 223.262 103.919C222.709 103.919 222.247 104.018 221.878 104.217C221.509 104.408 221.229 104.688 221.037 105.057C220.853 105.42 220.743 105.854 220.709 106.36L220.125 106.319C220.125 105.382 220.248 104.541 220.494 103.796C220.74 103.044 221.106 102.453 221.591 102.022C222.083 101.585 222.695 101.366 223.427 101.366C223.57 101.366 223.731 101.38 223.908 101.407C224.086 101.427 224.223 101.458 224.319 101.499L224.298 104.001Z" fill="#0D0D0D"/>
<path d="M212.572 112.871C211.438 112.871 210.494 112.621 209.742 112.122C208.99 111.616 208.43 110.943 208.061 110.102C207.691 109.255 207.507 108.318 207.507 107.293V106.954C207.507 105.922 207.691 104.986 208.061 104.145C208.437 103.297 208.997 102.624 209.742 102.125C210.494 101.619 211.434 101.366 212.562 101.366C213.458 101.366 214.244 101.544 214.92 101.899C215.604 102.248 216.137 102.74 216.52 103.376C216.903 104.005 217.101 104.746 217.115 105.601H214.644C214.63 105.211 214.538 104.856 214.367 104.534C214.196 104.213 213.953 103.957 213.639 103.765C213.331 103.574 212.958 103.478 212.521 103.478C211.885 103.478 211.393 103.646 211.044 103.981C210.703 104.316 210.463 104.75 210.327 105.283C210.197 105.809 210.132 106.366 210.132 106.954V107.293C210.132 107.881 210.197 108.441 210.327 108.974C210.457 109.501 210.696 109.931 211.044 110.266C211.393 110.594 211.892 110.759 212.542 110.759C212.931 110.759 213.28 110.683 213.587 110.533C213.902 110.376 214.151 110.16 214.336 109.887C214.527 109.614 214.63 109.296 214.644 108.933H217.115C217.101 109.672 216.889 110.338 216.479 110.933C216.069 111.528 215.522 111.999 214.838 112.348C214.162 112.697 213.406 112.871 212.572 112.871Z" fill="#0D0D0D"/>
<path d="M197.662 112.871C196.548 112.871 195.587 112.635 194.781 112.163C193.981 111.685 193.362 111.039 192.925 110.225C192.494 109.412 192.279 108.506 192.279 107.508V107.088C192.279 105.939 192.497 104.938 192.935 104.083C193.372 103.222 193.974 102.555 194.74 102.084C195.505 101.605 196.377 101.366 197.354 101.366C198.421 101.366 199.306 101.598 200.01 102.063C200.721 102.521 201.254 103.16 201.61 103.981C201.965 104.794 202.143 105.738 202.143 106.811V107.939H193.519V106.073H199.549V105.867C199.535 105.444 199.453 105.051 199.302 104.688C199.152 104.326 198.916 104.035 198.595 103.817C198.281 103.591 197.864 103.478 197.344 103.478C196.804 103.478 196.353 103.629 195.99 103.929C195.635 104.23 195.365 104.651 195.18 105.191C195.003 105.731 194.914 106.363 194.914 107.088V107.508C194.914 108.123 195.027 108.677 195.252 109.169C195.485 109.661 195.816 110.051 196.247 110.338C196.684 110.618 197.207 110.759 197.816 110.759C198.397 110.759 198.916 110.646 199.374 110.42C199.839 110.188 200.239 109.856 200.574 109.426L201.938 110.81C201.589 111.329 201.059 111.804 200.348 112.235C199.644 112.659 198.749 112.871 197.662 112.871Z" fill="#0D0D0D"/>
<path d="M190.694 112.666H188.058V96.9158H190.694V112.666Z" fill="#0D0D0D"/>
<path d="M185.889 112.666H183.254V96.9158H185.889V112.666Z" fill="#0D0D0D"/>
<path d="M179.731 97.2952C180.196 97.2952 180.562 97.4285 180.828 97.6951C181.095 97.9548 181.228 98.283 181.228 98.6794C181.228 99.0759 181.095 99.4075 180.828 99.6741C180.562 99.9338 180.196 100.064 179.731 100.064C179.266 100.064 178.9 99.9338 178.634 99.6741C178.374 99.4075 178.244 99.0759 178.244 98.6794C178.244 98.283 178.374 97.9548 178.634 97.6951C178.9 97.4285 179.266 97.2952 179.731 97.2952ZM181.054 112.666H178.418V101.571H181.054V112.666Z" fill="#0D0D0D"/>
<path d="M172.517 112.871C171.403 112.871 170.442 112.635 169.635 112.163C168.836 111.685 168.217 111.039 167.78 110.225C167.349 109.412 167.134 108.506 167.134 107.508V107.088C167.134 105.939 167.352 104.938 167.79 104.083C168.227 103.222 168.829 102.555 169.594 102.084C170.36 101.605 171.232 101.366 172.209 101.366C173.276 101.366 174.161 101.598 174.865 102.063C175.576 102.521 176.109 103.16 176.465 103.981C176.82 104.794 176.998 105.738 176.998 106.811V107.939H168.374V106.073H174.404V105.867C174.39 105.444 174.308 105.051 174.157 104.688C174.007 104.326 173.771 104.035 173.45 103.817C173.135 103.591 172.719 103.478 172.199 103.478C171.659 103.478 171.208 103.629 170.845 103.929C170.49 104.23 170.22 104.651 170.035 105.191C169.858 105.731 169.769 106.363 169.769 107.088V107.508C169.769 108.123 169.882 108.677 170.107 109.169C170.34 109.661 170.671 110.051 171.102 110.338C171.539 110.618 172.062 110.759 172.671 110.759C173.252 110.759 173.771 110.646 174.229 110.42C174.694 110.188 175.094 109.856 175.429 109.426L176.793 110.81C176.444 111.329 175.914 111.804 175.203 112.235C174.499 112.659 173.604 112.871 172.517 112.871Z" fill="#0D0D0D"/>
<path d="M163.98 101.571H166.707L162.893 112.666H161.201L161.355 110.615L163.98 101.571ZM162.083 110.635L162.196 112.666H160.514L156.669 101.571H159.406L162.083 110.635Z" fill="#0D0D0D"/>
<path d="M148.598 105.18C148.598 104.62 148.444 104.176 148.136 103.847C147.835 103.512 147.371 103.345 146.742 103.345C146.366 103.345 146.038 103.41 145.757 103.54C145.484 103.663 145.272 103.834 145.122 104.052C144.971 104.271 144.896 104.524 144.896 104.811H142.271C142.271 104.203 142.459 103.639 142.835 103.119C143.218 102.593 143.754 102.169 144.445 101.848C145.135 101.527 145.949 101.366 146.885 101.366C147.726 101.366 148.471 101.51 149.121 101.797C149.777 102.077 150.293 102.501 150.669 103.068C151.045 103.635 151.233 104.346 151.233 105.201V110.061C151.233 110.601 151.271 111.07 151.346 111.466C151.421 111.856 151.527 112.198 151.664 112.491V112.666H148.987C148.857 112.392 148.758 112.04 148.69 111.61C148.628 111.179 148.598 110.755 148.598 110.338V105.18ZM148.977 107.508H147.275C146.4 107.508 145.744 107.676 145.306 108.01C144.869 108.339 144.65 108.776 144.65 109.323C144.65 109.747 144.793 110.099 145.081 110.379C145.375 110.659 145.785 110.8 146.311 110.8C146.803 110.8 147.23 110.7 147.593 110.502C147.955 110.304 148.239 110.065 148.444 109.784C148.649 109.497 148.755 109.227 148.762 108.974L149.572 110.143C149.483 110.417 149.343 110.711 149.151 111.025C148.96 111.34 148.707 111.637 148.393 111.917C148.085 112.198 147.716 112.427 147.285 112.604C146.854 112.782 146.355 112.871 145.788 112.871C145.07 112.871 144.424 112.727 143.85 112.44C143.283 112.153 142.835 111.76 142.507 111.261C142.186 110.755 142.025 110.188 142.025 109.559C142.025 108.383 142.462 107.481 143.337 106.852C144.219 106.216 145.477 105.898 147.111 105.898H148.977V107.508Z" fill="#0D0D0D"/>
<path d="M141.209 103.509H134.883V101.571H141.209V103.509ZM139.261 98.8538V109.487C139.261 109.822 139.309 110.078 139.405 110.256C139.5 110.427 139.634 110.543 139.804 110.605C139.982 110.666 140.191 110.697 140.43 110.697C140.601 110.697 140.765 110.687 140.922 110.666C141.079 110.646 141.202 110.625 141.291 110.605V112.625C141.079 112.693 140.837 112.751 140.563 112.799C140.29 112.847 139.972 112.871 139.61 112.871C139.029 112.871 138.512 112.768 138.061 112.563C137.61 112.351 137.258 112.013 137.005 111.548C136.759 111.083 136.636 110.465 136.636 109.692V98.8538H139.261Z" fill="#0D0D0D"/>
<path d="M125.704 112.871C124.59 112.871 123.629 112.635 122.823 112.163C122.023 111.685 121.404 111.039 120.967 110.225C120.536 109.412 120.321 108.506 120.321 107.508V107.088C120.321 105.939 120.54 104.938 120.977 104.083C121.415 103.222 122.016 102.555 122.782 102.084C123.547 101.605 124.419 101.366 125.396 101.366C126.463 101.366 127.348 101.598 128.052 102.063C128.763 102.521 129.296 103.16 129.652 103.981C130.007 104.794 130.185 105.738 130.185 106.811V107.939H121.562V106.073H127.591V105.867C127.577 105.444 127.495 105.051 127.345 104.688C127.194 104.326 126.958 104.035 126.637 103.817C126.323 103.591 125.906 103.478 125.386 103.478C124.846 103.478 124.395 103.629 124.033 103.929C123.677 104.23 123.407 104.651 123.223 105.191C123.045 105.731 122.956 106.363 122.956 107.088V107.508C122.956 108.123 123.069 108.677 123.294 109.169C123.527 109.661 123.858 110.051 124.289 110.338C124.727 110.618 125.25 110.759 125.858 110.759C126.439 110.759 126.958 110.646 127.417 110.42C127.881 110.188 128.281 109.856 128.616 109.426L129.98 110.81C129.631 111.329 129.102 111.804 128.391 112.235C127.687 112.659 126.791 112.871 125.704 112.871Z" fill="#0D0D0D"/>
<path d="M119.536 103.509H113.209V101.571H119.536V103.509ZM117.587 98.8538V109.487C117.587 109.822 117.635 110.078 117.731 110.256C117.827 110.427 117.96 110.543 118.131 110.605C118.309 110.666 118.517 110.697 118.756 110.697C118.927 110.697 119.091 110.687 119.249 110.666C119.406 110.646 119.529 110.625 119.618 110.605V112.625C119.406 112.693 119.163 112.751 118.89 112.799C118.616 112.847 118.298 112.871 117.936 112.871C117.355 112.871 116.839 112.768 116.388 112.563C115.937 112.351 115.584 112.013 115.332 111.548C115.085 111.083 114.962 110.465 114.962 109.692V98.8538H117.587Z" fill="#0D0D0D"/>
<path d="M109.881 101.571H112.516V112.666H110.035L109.881 110.041V101.571ZM111.091 107.703C111.091 108.694 110.944 109.579 110.65 110.359C110.356 111.138 109.898 111.753 109.276 112.204C108.654 112.649 107.854 112.871 106.877 112.871C105.783 112.871 104.898 112.55 104.221 111.907C103.544 111.264 103.206 110.208 103.206 108.739V101.571H105.831V108.759C105.831 109.258 105.906 109.651 106.056 109.938C106.214 110.219 106.422 110.42 106.682 110.543C106.948 110.659 107.239 110.718 107.553 110.718C108.23 110.718 108.763 110.588 109.153 110.328C109.543 110.061 109.82 109.702 109.984 109.251C110.155 108.793 110.24 108.284 110.24 107.723L111.091 107.703Z" fill="#0D0D0D"/>
<path d="M91.5105 107.016C91.5105 105.936 91.7156 104.972 92.1257 104.124C92.5359 103.277 93.1238 102.607 93.8894 102.115C94.6619 101.615 95.5916 101.366 96.6785 101.366C97.7791 101.366 98.719 101.615 99.4983 102.115C100.278 102.607 100.869 103.277 101.272 104.124C101.682 104.972 101.887 105.936 101.887 107.016V107.231C101.887 108.304 101.682 109.268 101.272 110.123C100.869 110.97 100.278 111.64 99.4983 112.133C98.7258 112.625 97.7927 112.871 96.699 112.871C95.6052 112.871 94.6721 112.625 93.8997 112.133C93.1272 111.64 92.5359 110.97 92.1257 110.123C91.7156 109.268 91.5105 108.304 91.5105 107.231V107.016ZM94.1355 107.231C94.1355 107.874 94.2244 108.465 94.4021 109.005C94.5798 109.538 94.8567 109.966 95.2327 110.287C95.6086 110.601 96.0974 110.759 96.699 110.759C97.3005 110.759 97.7893 110.601 98.1653 110.287C98.5413 109.966 98.8147 109.538 98.9856 109.005C99.1633 108.465 99.2522 107.874 99.2522 107.231V107.016C99.2522 106.38 99.1633 105.796 98.9856 105.262C98.8147 104.722 98.5378 104.292 98.155 103.97C97.7791 103.642 97.2869 103.478 96.6785 103.478C96.0837 103.478 95.5984 103.642 95.2224 103.97C94.8464 104.292 94.5696 104.722 94.3918 105.262C94.2209 105.796 94.1355 106.38 94.1355 107.016V107.231Z" fill="#0D0D0D"/>
<path d="M87.8545 112.666H85.1372V97.7361H87.8545V112.666ZM92.4893 99.9407H80.5435V97.7361H92.4893V99.9407Z" fill="#0D0D0D"/>
</svg>
