<svg width="32" height="32" viewBox="0 0 32 32" fill="none" xmlns="http://www.w3.org/2000/svg">
<path d="M27.9999 12C27.9999 11.6464 27.8593 11.3073 27.6093 11.0573C27.3592 10.8072 27.0202 10.6667 26.6666 10.6667H24.0038C23.2823 10.6667 22.574 10.4712 21.9543 10.1016C21.3348 9.73187 20.827 9.20131 20.4843 8.56641L19.8359 7.36719C19.7217 7.15574 19.5526 6.97869 19.3463 6.85547C19.1397 6.73225 18.9032 6.66668 18.6627 6.66667H13.3385C13.0983 6.66666 12.8625 6.73131 12.6562 6.85417C12.45 6.97698 12.281 7.15366 12.1666 7.36458L11.5142 8.57031C11.1711 9.20425 10.6622 9.73391 10.0429 10.1029C9.50116 10.4256 8.89215 10.6152 8.26554 10.6576L7.99601 10.6667H5.33325C4.97963 10.6667 4.64059 10.8072 4.39054 11.0573C4.1405 11.3073 3.99992 11.6464 3.99992 12V24C3.99992 24.3536 4.1405 24.6927 4.39054 24.9427C4.64059 25.1928 4.97963 25.3333 5.33325 25.3333H26.6666C27.0202 25.3333 27.3592 25.1928 27.6093 24.9427C27.8593 24.6927 27.9999 24.3536 27.9999 24V12ZM30.6666 24C30.6666 25.0609 30.2449 26.078 29.4947 26.8281C28.7446 27.5783 27.7275 28 26.6666 28H5.33325C4.27239 28 3.25527 27.5783 2.50513 26.8281C1.75498 26.078 1.33325 25.0609 1.33325 24V12C1.33325 10.9391 1.75498 9.92202 2.50513 9.17188C3.25527 8.42173 4.27239 8 5.33325 8H7.99601C8.23616 8.00001 8.47197 7.93536 8.6783 7.8125C8.88473 7.68952 9.05482 7.51209 9.16919 7.30078L9.82023 6.09635L9.95695 5.86328C10.2925 5.33221 10.7497 4.88664 11.2916 4.5638C11.9107 4.195 12.6178 4 13.3385 4H18.6627C19.3842 4.00001 20.0925 4.19542 20.7122 4.5651C21.3317 4.9348 21.8395 5.46535 22.1822 6.10026L22.8306 7.29948C22.9448 7.51093 23.1139 7.68798 23.3202 7.8112C23.5268 7.93442 23.7633 7.99999 24.0038 8H26.6666C27.7275 8 28.7446 8.42173 29.4947 9.17188C30.2449 9.92202 30.6666 10.9391 30.6666 12V24Z" fill="black"/>
<path d="M18.6667 17.3333C18.6667 15.8606 17.4728 14.6667 16.0001 14.6667C14.5273 14.6667 13.3334 15.8606 13.3334 17.3333C13.3334 18.8061 14.5273 20 16.0001 20C17.4728 20 18.6667 18.8061 18.6667 17.3333ZM21.3334 17.3333C21.3334 20.2789 18.9456 22.6667 16.0001 22.6667C13.0546 22.6667 10.6667 20.2789 10.6667 17.3333C10.6667 14.3878 13.0546 12 16.0001 12C18.9456 12 21.3334 14.3878 21.3334 17.3333Z" fill="black"/>
</svg>
