<svg width="56" height="56" viewBox="0 0 56 56" fill="none" xmlns="http://www.w3.org/2000/svg">
<path d="M28 0C12.5609 0 0 12.5609 0 28C0 40.0329 7.6301 50.3151 18.3052 54.2676C17.9977 51.5265 18.0459 47.0375 18.5533 44.864C19.0284 42.8225 21.6226 31.8536 21.6226 31.8536C21.6226 31.8536 20.8394 30.2852 20.8394 27.9688C20.8394 24.3286 22.9485 21.6126 25.5749 21.6126C27.8087 21.6126 28.8859 23.2897 28.8859 25.2991C28.8859 27.546 27.4574 30.9023 26.7174 34.0129C26.1004 36.6193 28.0241 38.7444 30.5932 38.7444C35.2451 38.7444 38.8209 33.8388 38.8209 26.7588C38.8209 20.4921 34.319 16.11 27.8893 16.11C20.4428 16.11 16.0717 21.6961 16.0717 27.4695C16.0717 29.7184 16.9375 32.1305 18.0197 33.4432C18.2331 33.7029 18.2643 33.9294 18.2009 34.1931C18.0026 35.0196 17.5617 36.7975 17.4741 37.1619C17.3603 37.6421 17.0945 37.7417 16.5992 37.5112C13.3296 35.9891 11.2859 31.2104 11.2859 27.3708C11.2859 19.115 17.2838 11.5316 28.5808 11.5316C37.6612 11.5316 44.7171 18.0006 44.7171 26.649C44.7171 35.6699 39.0283 42.9292 31.1348 42.9292C28.4822 42.9292 25.9896 41.5511 25.137 39.9232C25.137 39.9232 23.8243 44.9204 23.5051 46.1455C22.9543 48.2643 20.5965 52.6537 19.4128 54.6474C22.1206 55.5222 25.005 56 28 56C43.4397 56 56 43.4397 56 28C56 12.5609 43.4397 0 28 0Z" fill="black"/>
</svg>
