<svg width="32" height="32" viewBox="0 0 32 32" fill="none" xmlns="http://www.w3.org/2000/svg">
<path d="M12.3901 13.7242C12.9108 13.2035 13.7552 13.2035 14.2759 13.7242C14.7965 14.2448 14.7964 15.0883 14.2759 15.6089L11.8853 17.9996L13.9995 20.1138L16.3901 17.7242C16.9108 17.2035 17.7552 17.2035 18.2759 17.7242C18.7965 18.2448 18.7964 19.0883 18.2759 19.6089L15.8853 21.9996L16.9429 23.0572C17.1928 23.3071 17.3334 23.6461 17.3335 23.9996C17.3335 24.3532 17.1929 24.6929 16.9429 24.9429L13.8765 28.0093C13.4556 28.4313 12.9552 28.7661 12.4048 28.9947C11.8538 29.2234 11.2631 29.3414 10.6665 29.3414C10.07 29.3414 9.47918 29.2234 8.92822 28.9947C8.37781 28.7661 7.8774 28.4313 7.45654 28.0093L6.66553 27.2183L3.60889 30.2759C3.0882 30.7964 2.24477 30.7965 1.72412 30.2759C1.20342 29.7552 1.20342 28.9109 1.72412 28.3902L4.78076 25.3326L3.99072 24.5425L3.9917 24.5416C3.56992 24.1208 3.23388 23.622 3.00537 23.0718C2.8053 22.5899 2.6893 22.0772 2.66357 21.5572L2.65869 21.3336C2.65869 20.737 2.77665 20.1462 3.00537 19.5953C3.23411 19.0444 3.56926 18.5437 3.9917 18.1226L7.05713 15.0572L7.15479 14.9683C7.39193 14.774 7.69027 14.6667 7.99951 14.6666C8.35312 14.6666 8.69282 14.8072 8.94287 15.0572L9.99951 16.1138L12.3901 13.7242ZM5.87646 20.0093L5.87451 20.0113C5.7007 20.1845 5.56246 20.3902 5.46826 20.6168C5.37405 20.8437 5.32568 21.0879 5.32568 21.3336L5.33447 21.5172C5.35254 21.6997 5.39768 21.8793 5.46826 22.0494C5.53891 22.2194 5.63488 22.3775 5.75146 22.5191L5.87451 22.6548L5.87646 22.6578L9.34229 26.1236L9.34521 26.1246C9.5185 26.2985 9.724 26.4366 9.95068 26.5308C10.1775 26.625 10.4209 26.6744 10.6665 26.6744C10.9121 26.6744 11.1555 26.625 11.3823 26.5308C11.6091 26.4366 11.8164 26.2985 11.9897 26.1246L14.1147 23.9996L13.064 22.9498C13.0617 22.9475 13.0594 22.9452 13.0571 22.9429C13.0544 22.9402 13.052 22.9369 13.0493 22.9341L7.99951 17.8853L5.87646 20.0093ZM28.3901 1.72418C28.9108 1.20348 29.7552 1.20348 30.2759 1.72418C30.7965 2.24483 30.7964 3.08826 30.2759 3.60895L27.2183 6.66656L28.0073 7.45563L28.1626 7.61676C28.5129 8.00215 28.7945 8.44626 28.9946 8.92828C29.2234 9.47924 29.3413 10.07 29.3413 10.6666C29.3413 11.2631 29.2234 11.8539 28.9946 12.4048C28.7661 12.9553 28.4293 13.4537 28.0073 13.8746L28.0093 13.8765L24.9429 16.9429C24.6928 17.193 24.3531 17.3336 23.9995 17.3336C23.6461 17.3335 23.3071 17.1928 23.0571 16.9429L15.0571 8.94293C14.8071 8.69289 14.6665 8.35318 14.6665 7.99957C14.6666 7.6461 14.8072 7.30714 15.0571 7.05719L18.1235 3.99078C18.5444 3.56882 19.0448 3.23399 19.5952 3.00543C20.1461 2.77673 20.737 2.65875 21.3335 2.65875C21.93 2.65879 22.5209 2.77673 23.0718 3.00543C23.622 3.23395 24.1217 3.569 24.5425 3.99078L25.3325 4.78082L28.3901 1.72418ZM21.3335 5.32574C21.0878 5.32574 20.8436 5.37411 20.6167 5.46832C20.3901 5.56252 20.1845 5.70075 20.0112 5.87457L20.0093 5.87653L17.8853 7.99957L23.9995 14.1148L26.1235 11.9908L26.1245 11.9879C26.2984 11.8146 26.4366 11.6091 26.5308 11.3824C26.6249 11.1555 26.6743 10.9122 26.6743 10.6666C26.6743 10.421 26.6249 10.1776 26.5308 9.95074C26.4366 9.72406 26.2984 9.51856 26.1245 9.34528L26.1235 9.34235L22.6577 5.87653L22.6548 5.87457C22.4815 5.7008 22.2759 5.56248 22.0493 5.46832C21.8226 5.37419 21.579 5.32578 21.3335 5.32574Z" fill="black"/>
</svg>
