<svg width="32" height="32" viewBox="0 0 32 32" fill="none" xmlns="http://www.w3.org/2000/svg">
<path d="M14.667 2.66699C21.2943 2.66717 26.667 8.03968 26.667 14.667C26.6669 17.5 25.682 20.1015 24.04 22.1543L28.9424 27.0566C29.4631 27.5773 29.463 28.4217 28.9424 28.9424C28.4217 29.4631 27.5773 29.4631 27.0566 28.9424L22.1543 24.04C20.1015 25.682 17.5 26.6669 14.667 26.667C8.03968 26.667 2.66717 21.2943 2.66699 14.667C2.66699 8.03957 8.03957 2.66699 14.667 2.66699ZM14.667 5.33301C9.51233 5.33301 5.33301 9.51233 5.33301 14.667C5.33318 19.8215 9.51244 24 14.667 24C19.8214 23.9998 23.9998 19.8214 24 14.667C24 9.51244 19.8215 5.33318 14.667 5.33301Z" fill="black"/>
</svg>
