<svg width="1953" height="90" viewBox="0 0 1953 90" fill="none" xmlns="http://www.w3.org/2000/svg">
<path d="M328.852 0L329.756 0.00683594C339.088 0.153185 348.253 2.54072 356.477 6.97266C364.952 11.5405 372.163 18.1381 377.465 26.1748L399.437 58.7246L399.462 58.7627C404.084 65.7819 410.393 71.53 417.811 75.4805C424.954 79.2849 432.908 81.3045 440.992 81.375H1948.5C1950.71 81.375 1952.5 83.1659 1952.5 85.375C1952.5 87.5841 1950.71 89.375 1948.5 89.375H442.002L441.089 89.377C441.04 89.3767 440.991 89.3754 440.941 89.375H284.002L283.089 89.377C273.66 89.3217 264.381 86.9773 256.051 82.541C247.465 77.9688 240.161 71.3197 234.806 63.2002L212.835 30.6504C212.826 30.6378 212.818 30.625 212.81 30.6123C208.234 23.6645 202.005 17.9613 194.682 14.0146C187.587 10.1913 179.68 8.13203 171.63 8.00586L170.851 8H4C1.79086 8 0 6.20914 0 4C0 1.79086 1.79086 0 4 0H328.852ZM201.021 8.42773C208.398 12.8965 214.702 18.9548 219.465 26.1748L241.437 58.7246L241.462 58.7627C246.084 65.7819 252.393 71.53 259.811 75.4805C267.228 79.4308 275.519 81.4573 283.923 81.375H411.966C404.281 76.8687 397.722 70.6541 392.806 63.2002L370.835 30.6504C370.826 30.6378 370.818 30.625 370.81 30.6123C366.234 23.6645 360.005 17.9613 352.682 14.0146C345.587 10.1913 337.68 8.13203 329.63 8.00586L328.851 8H200.304L201.021 8.42773Z" fill="black"/>
<path d="M352.682 14.0146C345.587 10.1913 337.68 8.13203 329.63 8.00586L328.851 8H200.304C207.99 12.5066 214.548 18.722 219.465 26.1748L241.437 58.7246L241.462 58.7627C246.084 65.7819 252.393 71.53 259.811 75.4805C267.228 79.4308 275.519 81.4573 283.923 81.375H411.966C404.281 76.8687 397.722 70.6541 392.806 63.2002L370.835 30.6504L370.81 30.6123C366.234 23.6645 360.005 17.9613 352.682 14.0146Z" fill="#B3B3B3"/>
</svg>
