<svg width="1953" height="90" viewBox="0 0 1953 90" fill="none" xmlns="http://www.w3.org/2000/svg">
<path d="M700.793 0.00683594C710.125 0.153127 719.291 2.54059 727.515 6.97266C735.99 11.5405 743.201 18.1381 748.503 26.1748L770.474 58.7246C770.482 58.7372 770.491 58.75 770.499 58.7627C775.121 65.782 781.431 71.53 788.849 75.4805C795.993 79.2849 803.946 81.3046 812.03 81.375H1948.5C1950.71 81.375 1952.5 83.1659 1952.5 85.375C1952.5 87.5841 1950.71 89.375 1948.5 89.375H813.039L812.126 89.377C812.077 89.3767 812.028 89.3754 811.979 89.375H604.039L603.126 89.377C593.697 89.3216 584.418 86.9772 576.088 82.541C567.502 77.9688 560.199 71.3195 554.844 63.2002L532.872 30.6504C532.864 30.6378 532.855 30.625 532.847 30.6123C528.271 23.6646 522.042 17.9613 514.719 14.0146C507.624 10.1915 499.718 8.13212 491.668 8.00586L490.888 8H4C1.79086 8 0 6.20914 0 4C0 1.79086 1.79086 0 4 0H699.89L700.793 0.00683594Z" fill="black"/>
<path fill-rule="evenodd" clip-rule="evenodd" d="M539.503 26.1748C534.586 18.7219 528.028 12.5066 520.341 8H699.888L700.668 8.00586C708.718 8.13212 716.624 10.1915 723.719 14.0146C731.042 17.9613 737.271 23.6646 741.847 30.6123L741.872 30.6504L763.844 63.2002C768.76 70.6539 775.318 76.8688 783.003 81.375H603.961C595.557 81.4574 587.266 79.4308 579.849 75.4805C572.43 71.53 566.121 65.782 561.499 58.7627L561.474 58.7246L539.503 26.1748Z" fill="#B3B3B3"/>
</svg>
