<svg width="1440" height="97" viewBox="0 0 1440 97" fill="none" xmlns="http://www.w3.org/2000/svg">
<path fill-rule="evenodd" clip-rule="evenodd" d="M323.311 0.0078125C333.203 0.162926 342.92 2.69326 351.638 7.3916C360.627 12.2363 368.275 19.2346 373.896 27.7598L395.838 60.2666L395.885 60.3379C400.185 66.8683 406.055 72.2163 412.956 75.8916C419.62 79.4405 427.041 81.319 434.583 81.375H1618C1622.14 81.375 1625.5 84.7329 1625.5 88.875C1625.5 93.0171 1622.14 96.375 1618 96.375H435.536L434.568 96.377C434.52 96.3767 434.472 96.3754 434.424 96.375H277.536L276.568 96.377C266.573 96.3183 256.736 93.8337 247.905 89.1309C238.815 84.2898 231.081 77.2514 225.405 68.6582L203.434 36.1084C203.418 36.0849 203.402 36.0608 203.387 36.0371C199.13 29.5733 193.335 24.2675 186.521 20.5957C179.921 17.0386 172.565 15.1233 165.075 15.0059L164.35 15H-2.5C-6.64214 15 -10 11.6421 -10 7.5C-10 3.35786 -6.64214 0 -2.5 0H322.353L323.311 0.0078125ZM204.685 15C208.975 18.7027 212.752 22.9925 215.896 27.7598L237.838 60.2666L237.885 60.3379C242.185 66.8683 248.055 72.2163 254.956 75.8916C261.857 79.5668 269.57 81.4516 277.389 81.375H394.586C390.309 77.6835 386.543 73.4084 383.405 68.6582L361.434 36.1084C361.431 36.1045 361.428 36.0999 361.425 36.0958C361.422 36.0901 361.417 36.0834 361.414 36.0777C361.41 36.0729 361.407 36.0682 361.404 36.0635C361.399 36.0552 361.392 36.0453 361.387 36.0371C357.13 29.5733 351.335 24.2675 344.521 20.5957C337.921 17.0386 330.565 15.1233 323.075 15.0059L322.35 15H204.685Z" fill="black"/>
<path fill-rule="evenodd" clip-rule="evenodd" d="M215.896 27.7598C212.752 22.9925 208.975 18.7027 204.685 15H322.35L323.075 15.0059C330.565 15.1233 337.921 17.0386 344.521 20.5957C351.335 24.2675 357.13 29.5733 361.387 36.0371L361.404 36.0635L361.414 36.0777L361.425 36.0958L361.434 36.1084L383.405 68.6582C386.543 73.4084 390.309 77.6835 394.586 81.375H277.389C269.57 81.4516 261.857 79.5668 254.956 75.8916C248.055 72.2163 242.185 66.8683 237.885 60.3379L237.838 60.2666L215.896 27.7598Z" fill="#AFAFAF"/>
</svg>
