<svg width="32" height="32" viewBox="0 0 32 32" fill="none" xmlns="http://www.w3.org/2000/svg">
<path d="M24 1.33301C26.9455 1.33301 29.333 3.72147 29.333 6.66699C29.3328 9.61236 26.9454 12 24 12C22.5179 12 21.1775 11.3949 20.2109 10.4189L13.1318 14.5498C13.2619 15.011 13.333 15.4971 13.333 16C13.333 16.5022 13.2616 16.9875 13.1318 17.4482L20.2148 21.5762C21.1811 20.6028 22.5201 20 24 20C26.9454 20 29.3328 22.3876 29.333 25.333C29.333 28.2785 26.9455 30.667 24 30.667C21.0545 30.667 18.667 28.2785 18.667 25.333C18.667 24.8281 18.738 24.3399 18.8691 23.877L11.7881 19.7529C10.8216 20.7284 9.4817 21.333 8 21.333C5.05448 21.333 2.66699 18.9455 2.66699 16C2.66699 13.0545 5.05448 10.667 8 10.667C9.48145 10.667 10.8216 11.2709 11.7881 12.2461L18.8672 8.11621C18.7373 7.65532 18.667 7.16942 18.667 6.66699C18.667 3.72147 21.0545 1.33301 24 1.33301ZM24 22.667C23.0736 22.667 22.2583 23.1395 21.7803 23.8564C21.7602 23.9019 21.7385 23.9473 21.7129 23.9912C21.6875 24.0348 21.6583 24.0756 21.6289 24.1152C21.4409 24.4804 21.3331 24.894 21.333 25.333C21.333 26.8058 22.5272 28 24 28C25.4728 28 26.667 26.8058 26.667 25.333C26.6668 23.8604 25.4727 22.667 24 22.667ZM8 13.333C6.52724 13.333 5.33301 14.5272 5.33301 16C5.33301 17.4728 6.52724 18.667 8 18.667C8.97793 18.667 9.82982 18.1384 10.2939 17.3535C10.2962 17.3496 10.2985 17.3457 10.3008 17.3418L10.3447 17.2715C10.5501 16.8936 10.667 16.4604 10.667 16C10.667 14.5272 9.47276 13.333 8 13.333ZM24 4C22.5272 4 21.333 5.19423 21.333 6.66699C21.3332 8.1396 22.5273 9.33301 24 9.33301C25.4727 9.33301 26.6668 8.1396 26.667 6.66699C26.667 5.19423 25.4728 4 24 4Z" fill="black"/>
</svg>
