<svg width="56" height="56" viewBox="0 0 56 56" fill="none" xmlns="http://www.w3.org/2000/svg">
<path d="M49.3333 0H6.66667C2.99067 0 0 2.99067 0 6.66667V49.3333C0 53.0093 2.99067 56 6.66667 56H49.3333C53.0093 56 56 53.0093 56 49.3333V6.66667C56 2.99067 53.0093 0 49.3333 0ZM44.008 24.4307C43.7053 24.4587 43.3987 24.4773 43.088 24.4773C39.5907 24.4773 36.5173 22.6787 34.7293 19.96C34.7293 27.092 34.7293 35.2067 34.7293 35.3427C34.7293 41.6213 29.6387 46.712 23.36 46.712C17.0813 46.712 11.9907 41.6213 11.9907 35.3427C11.9907 29.064 17.0813 23.9733 23.36 23.9733C23.5973 23.9733 23.8293 23.9947 24.0627 24.0093V29.612C23.8293 29.584 23.6 29.5413 23.36 29.5413C20.1547 29.5413 17.5573 32.1387 17.5573 35.344C17.5573 38.5493 20.1547 41.1467 23.36 41.1467C26.5653 41.1467 29.396 38.6213 29.396 35.416C29.396 35.2893 29.452 9.29067 29.452 9.29067H34.8067C35.3107 14.0787 39.176 17.8573 44.008 18.204V24.4307Z" fill="black"/>
</svg>
