<svg width="56" height="56" viewBox="0 0 56 56" fill="none" xmlns="http://www.w3.org/2000/svg">
<path d="M9.33333 0C4.17867 0 0 4.17867 0 9.33333V46.6667C0 51.8213 4.17867 56 9.33333 56H46.6667C51.8213 56 56 51.8213 56 46.6667V9.33333C56 4.17867 51.8213 0 46.6667 0H9.33333ZM12.1146 12H22.6979L30.2135 22.6797L39.3333 12H42.6667L31.7188 24.8177L45.2188 44H34.638L25.9167 31.6094L15.3333 44H12L24.4115 29.4714L12.1146 12ZM17.2188 14.6667L36.0286 41.3333H40.1146L21.3047 14.6667H17.2188Z" fill="black"/>
</svg>
