<?xml version="1.0" encoding="UTF-8"?>
<svg id="Calque_2" xmlns="http://www.w3.org/2000/svg" viewBox="0 0 632.83 595.77">
  <defs>
    <style>
      .cls-1 {
        fill: #fff;
      }
    </style>
  </defs>
  <g id="Calque_2-2" data-name="Calque_2">
    <g>
      <g>
        <path d="M398.63,254.08c0,32.59-17.03,59-38.04,59s-38.05-26.41-38.05-59,17.03-58.99,38.05-58.99,38.04,26.41,38.04,58.99Z"/>
        <path d="M525.49,254.08c0,32.59-17.03,59-38.05,59s-38.05-26.41-38.05-59,17.04-58.99,38.05-58.99,38.05,26.41,38.05,58.99Z"/>
        <path d="M522.55,179.46c-.92.37-1.87.55-2.8.55-2.97,0-5.78-1.77-6.96-4.7-.78-1.92-5.22-11.72-16.24-15.22-9.3-2.95-17.36.53-19.61,1.67-3.69,1.87-8.21.39-10.07-3.31-1.87-3.69-.39-8.2,3.3-10.07,4.53-2.29,16.61-7.13,30.92-2.58,16.99,5.39,23.9,19.66,25.61,23.9,1.55,3.84-.31,8.21-4.15,9.76Z"/>
        <path d="M380.04,159.09c-1.89,3.69-6.41,5.14-10.1,3.24-4.41-2.27-8.93-3.32-13.46-3.13-16.43.69-25.75,17.85-26.14,18.58-1.35,2.53-3.94,3.98-6.62,3.98-1.19,0-2.4-.29-3.52-.88-3.66-1.95-5.04-6.49-3.1-10.15,1.39-2.6,14.26-25.48,38.75-26.52,7.15-.31,14.2,1.31,20.95,4.78,3.69,1.9,5.14,6.42,3.24,10.1Z"/>
        <path d="M632.77,129.48c-.83-13.77-7.73-21.72-8.46-22.53-9.52-10.67-22.26-11.32-26.12-11.22l-34.06-.14.3-18.23v-.09c-.02-3.56-.9-12.62-8.46-19.81-5.47-5.2-11.75-6.74-15.01-7.2l-.5-.07-279.92-1.35c-3.24-.02-6.3-1.45-8.39-3.95l-22.09-26.38c-8.83-10.56-21.8-16.7-35.58-16.84L31.81.01c-3.25-.1-13.89.24-22.55,8.68C1.42,16.32.18,25.65.01,29.31v.17S0,548.07,0,548.07c-.03,3.96.66,24.42,17.77,37.87,9.51,7.48,19.78,9.45,26.72,9.78.76.03,1.52.05,2.27.05.4,0,.8,0,1.19-.01h508.6c5.57-.27,19.67-2.2,30.14-14.47,7.27-8.5,9.16-17.97,9.65-22.87,3.9-40.97,38.1-401.04,36.43-428.94ZM44.71,523.53l-6.43,56.15c-3.58-.93-7.51-2.6-11.24-5.53-11.84-9.31-12.05-24.27-12.04-26.01V29.85c.1-1.63.73-6.53,4.72-10.41,4.61-4.49,10.48-4.5,11.61-4.44l162.99,1.67c9.39.09,18.22,4.27,24.24,11.47l22.09,26.38c4.93,5.89,12.16,9.29,19.83,9.32l278.84,1.34c1.55.28,4.1,1.05,6.31,3.15,3.42,3.25,3.78,7.6,3.8,8.97l-.3,18.23c-95.85-.39-191.71-.78-287.56-1.17l-26.9-.11h-99.03c-23.92,0-44.01,17.92-46.72,41.69l-44.21,387.59ZM581.41,556.97c-.31,3.13-1.52,9.19-6.12,14.58-6.73,7.88-16.26,9.04-19.28,9.21H53.26l6.35-55.52,44.21-387.6c1.85-16.19,15.53-28.39,31.82-28.39h99l26.87.11c98.32.4,196.65.8,294.96,1.2h0s41.76.17,41.76.17h.22c1.48-.07,9.14.08,14.66,6.2.25.29,4.18,5.04,4.68,13.44,1.31,21.8-23.23,288.59-36.38,426.6Z"/>
        <path class="cls-1" d="M617.79,130.37c-.5-8.4-4.43-13.15-4.68-13.44-5.52-6.12-13.18-6.27-14.66-6.21h-.22s-41.76-.17-41.76-.17h0c-98.31-.39-196.64-.79-294.96-1.19l-26.87-.11h-99c-16.29,0-29.97,12.2-31.82,28.39l-44.21,387.6-6.35,55.52h502.75c3.02-.17,12.55-1.33,19.28-9.21,4.6-5.39,5.81-11.45,6.12-14.58,13.15-138.01,37.69-404.8,36.38-426.6ZM317.1,170.73c1.39-2.6,14.26-25.48,38.75-26.52,7.15-.31,14.2,1.31,20.95,4.78,3.69,1.9,5.14,6.42,3.24,10.1-1.89,3.69-6.41,5.14-10.1,3.24-4.41-2.27-8.93-3.32-13.46-3.13-16.43.69-25.75,17.85-26.14,18.58-1.35,2.53-3.94,3.98-6.62,3.98-1.19,0-2.4-.29-3.52-.88-3.66-1.95-5.04-6.49-3.1-10.15ZM360.59,313.08c-21.02,0-38.05-26.41-38.05-59s17.03-58.99,38.05-58.99,38.04,26.41,38.04,58.99-17.03,59-38.04,59ZM487.44,313.08c-21.01,0-38.05-26.41-38.05-59s17.04-58.99,38.05-58.99,38.05,26.41,38.05,58.99-17.03,59-38.05,59ZM522.55,179.46c-.92.37-1.87.55-2.8.55-2.97,0-5.78-1.77-6.96-4.7-.78-1.92-5.22-11.72-16.24-15.22-9.3-2.95-17.36.53-19.61,1.67-3.69,1.87-8.21.39-10.07-3.31-1.87-3.69-.39-8.2,3.3-10.07,4.53-2.29,16.61-7.13,30.92-2.58,16.99,5.39,23.9,19.66,25.61,23.9,1.55,3.84-.31,8.21-4.15,9.76Z"/>
        <path d="M549.43,77.3l-.3,18.23c-95.85-.39-191.71-.78-287.56-1.17l-26.9-.11h-99.03c-23.92,0-44.01,17.92-46.72,41.69l-44.21,387.59-6.43,56.15c-3.58-.93-7.51-2.6-11.24-5.53-11.84-9.31-12.05-24.27-12.04-26.01V29.85c.1-1.63.73-6.53,4.72-10.41,4.61-4.49,10.48-4.5,11.61-4.44l162.99,1.67c9.39.09,18.22,4.27,24.24,11.47l22.09,26.38c4.93,5.89,12.16,9.29,19.83,9.32l278.84,1.34c1.55.28,4.1,1.05,6.31,3.15,3.42,3.25,3.78,7.6,3.8,8.97Z"/>
      </g>
      <ellipse class="cls-1" cx="369.63" cy="236.52" rx="14.98" ry="17.57"/>
      <ellipse class="cls-1" cx="496.78" cy="231.77" rx="14.98" ry="17.57"/>
    </g>
  </g>
</svg>