<?xml version="1.0" encoding="UTF-8"?>
<svg id="Calque_2" xmlns="http://www.w3.org/2000/svg" viewBox="0 0 1143.22 830.99">
  <defs>
    <style>
      .cls-1 {
        fill: #fff;
      }
    </style>
  </defs>
  <g id="Calque_3">
    <g>
      <g>
        <path d="M574.1,298.5c0,38.57-20.72,69.83-46.28,69.83s-46.29-31.26-46.29-69.83,20.72-69.82,46.29-69.82,46.28,31.26,46.28,69.82Z"/>
        <path d="M716.12,298.5c0,38.57-20.72,69.83-46.28,69.83s-46.29-31.26-46.29-69.83,20.72-69.82,46.29-69.82,46.28,31.26,46.28,69.82Z"/>
        <path d="M715.55,219.43c-1.27.84-2.7,1.24-4.11,1.24-2.44,0-4.83-1.19-6.27-3.38-18.36-27.89-44.3-30.06-45.4-30.14-4.12-.29-7.24-3.86-6.97-7.97.28-4.12,3.8-7.24,7.92-7,1.39.09,34.34,2.47,56.98,36.86,2.27,3.46,1.31,8.11-2.15,10.39Z"/>
        <path d="M542.07,186.39c-33.37,5.09-46.2,28.4-46.32,28.63-1.36,2.53-3.95,3.96-6.62,3.96-1.2,0-2.41-.28-3.54-.89-3.65-1.95-5.02-6.5-3.07-10.15.66-1.23,16.58-30.17,57.28-36.38,4.09-.62,7.92,2.19,8.55,6.29.62,4.09-2.19,7.92-6.28,8.54Z"/>
        <path d="M1142.98,578.15c-.79-3.35-3.52-5.84-6.98-6.34-47.31-6.55-78.71-25.38-95.69-38.68l18.25-20.64c2.52-2.85,3.29-6.85,2.01-10.44-1.28-3.58-4.41-6.18-8.16-6.79-12.6-2.03-25.5-4.41-38.42-7.01l47.8-42.18c2.44-2.17,3.43-5.59,2.51-8.72-.91-3.14-3.59-5.49-6.82-6-20.48-3.23-40.59-8.84-59.8-16.66-12.76-5.2-25.17-11.43-37.03-18.55l34.89-27.04c2.67-2.12,4.04-5.42,3.67-8.81-.38-3.39-2.44-6.3-5.51-7.78-12.28-5.95-26.95-13.29-43.68-21.86,12.2-13.7,22.79-28.73,31.7-45.02,6.24-1.05,12.54-3.32,18.58-7.41,9.94-6.72,17.1-17.09,20.9-30.15,15.85-5.95,29.33-18.53,38.37-32.58,8.97-13.74,14.78-29.44,17.93-45.41,11.65-15,22.17-30.4,31.35-47.08,8.01-15.35,17.34-33.91,14.79-52.1-2.85-17.99-21.59-26.69-37.47-19.95-6.67,2.77-12.66,6.9-18.11,11.81,9.23-30.02,8.78-47.8-1.32-55.74-1.39-1.08-6.47-4.66-13.84-5.14-12.49-.82-25.67,9.41-40.2,31.26-2.7,4.07-5.26,8.27-7.67,12.58-.02-.5-.03-.99-.05-1.48-.91-23.19-5.47-35.46-15.25-41.03-5.21-2.97-11.45-3.9-18.06-2.69-20.4,3.75-28.68,30.54-34.16,48.26-6.37,20.61-9.51,42.45-9.41,65.07-1.55-2.19-2.89-4.55-4-7.14-1.3-2.86-2.61-6.35-4.68-10.11-2.07-3.77-5.14-7.49-8.53-10.25-12.38-10.47-31.02-14.33-43.98-2.38-22.75,21.34-5.73,50.57,15.25,65.6-1.26,18.35,2.71,37.07,12.47,52.77.88,1.4,1.83,2.76,2.81,4.1-6.04,10.82-8.13,21.89-6.03,32.25,1.47,7.2,4.66,13.13,8.83,18.05-10.96,11.77-22.22,21.84-33.03,30.38-8.02-4.29-16.1-8.63-24.14-12.98l13.91-109.62c1.21-9.5-1.7-19.1-7.98-26.33-6.28-7.23-15.37-11.46-24.95-11.59l-332-4.67-53.52-49.83c-12.25-11.39-28.21-17.46-44.89-17.08l-148.79,3.31c-8.56.19-16.54,3.7-22.46,9.89-5.91,6.19-9.06,14.31-8.88,22.86l2.39,107.47c-14.85,4.45-29.61,9.04-44.2,13.74-3.86,1.16-6.86,4.28-7.86,8.23-.99,4.02.19,8.13,3.15,11l.33.33.37.28c17.03,12.87,33.51,26.87,48.98,41.62.31.29.61.59.91.88l.9,40.47-86.57,24.49c-3.85,1.09-6.74,4.21-7.53,8.13-.79,3.93.67,7.92,3.81,10.42l34.08,27.1c-23.93,11.22-66.11,28.88-103.47,33.6-4.16.52-7.66,3.29-9.14,7.22-1.48,3.93-.67,8.33,2.11,11.47,8.44,9.52,26.12,27.97,49.61,44.34l-67.63,28.63c-2.94,1.23-5.11,3.8-5.83,6.9-.72,3.1.11,6.38,2.23,8.79,4.82,5.45,16.17,17.61,31.11,29.4-12.27,3.71-24.6,6.91-36.24,9.11-3.89.75-6.95,3.57-8.01,7.38-1.05,3.79.12,7.79,3.05,10.42,6.47,5.8,21.92,19.46,40.21,34.27l-55.51,24.3-.12.05c-2.78,1.27-4.56,3.95-4.64,7-.09,3.06,1.54,5.84,4.24,7.27l77.67,36.66-13.8,11c-2.56,2.02-3.75,5.26-3.11,8.46.65,3.19,3,5.72,6.15,6.59,49.8,13.7,174.7,49.74,175.97,50.11.78.22,1.58.33,2.37.33,2.49,0,4.9-1.08,6.52-2.99l15.35-17.86c17.25,3.52,44.04,9.52,67.29,16.99l-10.11,7.9c-2.54,1.98-3.68,5.29-2.9,8.42.78,3.12,3.33,5.51,6.44,6.05,12.74,2.36,126.42,23.64,193.07,43.58.79.24,1.6.36,2.4.36,1.97,0,3.89-.71,5.42-2.07l50.06-46.85,29.94,12.89,76.05-37.3c13.93,9.73,28.42,18.86,43.19,27.19,1.48.85,3.14,1.28,4.81,1.28,1.04,0,2.08-.16,3.07-.5l112.59-37.65c6.56,4.58,13.44,8.79,20.52,12.53,11.23,5.93,23.13,10.79,35.34,14.42.79.24,1.61.35,2.43.35,1,0,2-.17,2.94-.52l176.21-67.83c3.32-1.27,5.45-4.38,5.43-7.93-.02-3.55-2.18-6.63-5.52-7.87-10.24-3.77-20.22-8.52-29.63-14.12-.83-.49-1.66-1-2.48-1.51l76.15-32.64c3.44-1.48,5.62-4.87,5.55-8.62-.07-3.74-2.36-7.03-5.83-8.39-11.54-4.52-23.01-9.5-34.23-14.83,20.59-10.56,35.46-20.81,40.09-24.12,2.82-1.97,4.13-5.4,3.33-8.75ZM1041.88,508.72l-85.62,96.8c-6.78-.34-25.59-2.07-54.34-10.96,3.97-3.54,7.65-7,10.95-10.34,2.43-2.46,3.51-5.95,2.89-9.35-.63-3.41-2.88-6.3-6.04-7.74-28.18-12.86-56.44-26.57-83.98-40.76-4.6-2.36-9.2-4.76-13.79-7.17l1.38-10.9,34.06-47.09c24.42,7.39,114.3,33.81,194.49,47.51ZM293.85,632.33c8.04,6.84,16.89,12.23,24.69,19.25,1.16,1.02,2.3,2.06,3.43,3.12.54.67,1.07,1.35,1.58,2.05.76,1.08,1.49,2.17,2.13,3.33.63,1.16,1.33,2.28,1.84,3.52,2.26,4.84,3.83,10.14,4.41,15.51.59,5.35.4,10.8-.86,15.7-.35,1.21-.64,2.44-1.13,3.55-.23.56-.38,1.18-.68,1.68l-.79,1.6-.2.4-.24.35-.47.73c-.32.46-.57,1.01-.97,1.4-.36.42-.71.85-1.05,1.29-.35.44-.73.78-1.13,1.16-1.63,1.5-3.55,2.76-5.55,3.62-.25.11-.5.22-.76.31-.26.1-.51.2-.73.25l-.67.21-.7.15c-.93.19-1.91.31-2.95.28-2.06,0-4.31-.44-6.55-1.22-.56-.2-1.11-.41-1.69-.66-.64-.26-1.14-.52-1.65-.76-.53-.24-.99-.55-1.49-.81-.45-.32-.95-.58-1.37-.92-.91-.63-1.71-1.38-2.51-2.16-.77-.83-1.55-1.67-2.26-2.66-1.44-1.95-2.76-4.29-4.04-6.85-2.57-5.15-5.03-11.18-8.3-17.13-3.22-5.97-7.32-11.83-12.24-16.86-4.91-5.07-10.57-9.37-16.58-12.79-6.03-3.41-12.37-6.06-18.81-8.03l-4.45-1.31c-1.35-.36-2.61-.86-3.9-1.28-2.54-.94-5.01-1.96-7.27-3.25-4.61-2.46-8.53-5.84-11.57-10.33-1.54-2.23-2.84-4.73-4.07-7.43l-.69-1.81-.36-.9c-.1-.3-.17-.62-.26-.93l-.52-1.88-.32-1.95c-.06-.32-.13-.64-.17-.97l-.07-1c-.04-.67-.13-1.33-.14-2.01.02-1.35-.03-2.71.12-4.09.07-1.37.35-2.75.55-4.14.31-1.37.55-2.76.97-4.13.73-2.75,1.68-5.5,2.87-8.15,1.17-2.67,2.49-5.29,3.99-7.82l.02-.03s.03-.05.05-.08c1.43-2.55.53-5.78-2.02-7.21-2.55-1.44-5.78-.54-7.21,2.01-3.25,5.77-6.07,11.82-8,18.34-.52,1.61-.88,3.29-1.28,4.95-.3,1.7-.65,3.39-.82,5.13-.26,1.72-.31,3.49-.4,5.26-.02.88.04,1.78.06,2.67l.05,1.34c.03.45.1.9.15,1.35l.34,2.69.47,2.14c-9.07-3.22-14.28-11.83-15.31-13.68-7.86-14.14.53-32.46,4.5-39.68,9.88-17.95,31.53-32.49,55.17-37.04,16.05-3.09,30.07-.91,38.47,5.99,1.54,1.26,2.94,2.75,4.2,4.42-7.68.72-15.31,1.89-22.82,3.51-2.84.63-4.83,3.33-4.47,6.28.37,3.15,3.24,5.39,6.38,5,48.78-6.05,99.8,3.53,141.28,29.92,16.69,11.07,30.86,25.75,37.59,44.62,9.31,25.34,8.01,48.54-22.47,46.86-1.69-18.11-11.45-38.39-20.35-50.56-10.14-14.18-24.23-25.53-39.85-32.95-3.03-1.45-6.7-.24-8.25,2.77-1.59,3.07-.38,6.85,2.7,8.43,9.06,4.69,17.44,10.7,24.56,17.97,14.04,13.58,31.09,47.21,25.7,66.67-2.18,7.82-10.4,10.47-18.04,9.81-4.09-.44-7.31-1.76-10.44-4.5-7.48-6.92-12.01-16.3-18.22-24.7-11.84-16.8-32.07-36.8-51.22-44.55-7.17-2.67-12.71,6.54-6.94,11.62ZM154.55,496.53c.21-11.77,2.33-23.56,6.44-34.93,8.73-24.19,24.43-40.4,39.84-51.1.7-.33,1.34-.77,1.93-1.3,10.08-6.72,19.9-11.12,27.43-13.87l5.04-1.84-1.59-71.55c.12-.83.11-1.68-.06-2.54l-.65-29.49c11.86,12.26,23.22,25.09,33.89,38.33l.3.37.35.33c1.71,1.65,3.85,2.72,6.11,3.07.62.1,1.24.15,1.87.15,1.7,0,3.38-.38,4.95-1.13l.47-.23.43-.29c5.1-3.38,10.36-6.58,15.74-9.58l-14.6,116.63c-25.13,5.44-42.36,17.81-51.25,36.82-5.27,11.27-6.65,23.02-6.42,33.06-.11.82-.08,1.66.09,2.5.05,1.02.12,2.01.2,2.98-23.62,6.64-44.77,21.75-55.96,40.24-9.49-16.6-14.44-35.15-14.57-53.85.18-.94.18-1.88.02-2.78ZM583.84,604.33l43.52,25.29-86.89,48.53c-.75.42-1.64.49-2.44.18l-80.55-30.56c-.26-9.88-3.07-19.73-6.38-28.88-1.84-4.81-4.04-9.35-6.54-13.65l91.11-48.48c2.02-1.07,4.37-1.45,6.64-1.07l72.05,12.11c-9.77,5.98-19.96,12.06-30.51,18.18-3.26,1.89-5.29,5.41-5.29,9.18s2.02,7.28,5.28,9.17ZM436.01,592.79c-8.94-11.12-20.1-20.31-32.51-27.85l46.14-19.53c11.82,4.6,27.69,10.45,45.24,16.06l-58.87,31.32ZM386.16,555.75c-16.73-7.73-34.68-13.11-51.85-16.79-12.77-2.56-25.77-3.77-38.72-3.68-2.89-6.12-6.75-11.22-11.56-15.17-7.73-6.34-18.29-9.94-30.36-10.61l101.54-32.76,97.21,50.96-66.26,28.05ZM240.12,497.89c1.89-17.32,11.21-36.26,40.33-44.38l-4.09,32.69-36.24,11.69ZM346.66,698.66c.28-.91.39-1.81.57-2.72.16-.9.35-1.81.45-2.71l.27-2.71c.04-.46.1-.91.12-1.36l.04-1.35v-.46c1.75,2.53,3.55,5.03,5.47,7.42,8.77,11.45,21.37,17.1,35.88,14.46,14.25-3.08,21.37-11.29,23.89-21.74,17.13,1.16,35.08-4.81,41.52-22.39.24-.68.44-1.36.65-2.04l77.2,29.29c2.06.78,4.2,1.16,6.34,1.16,3.02,0,6.03-.76,8.73-2.28l45.46-25.39c28.41,19.13,50.76,46.3,61.97,61.44-110.18,20.5-183.24,42.5-203.41,48.89-39.06-40.76-80.72-63.57-105.9-74.78.27-.91.51-1.82.75-2.73ZM607.79,657.73l34.65-19.35,34.74,20.18-41.32,23.36c-8.34-8.3-17.78-16.66-28.07-24.19ZM597.9,595.15c74.36-43.61,129.8-84.94,145.1-96.63,24.9,14.23,50.41,28.08,75.87,41.19,25.86,13.32,52.34,26.22,78.8,38.39-41.09,38.92-130.38,93.8-148.62,104.86l-151.15-87.81ZM817.27,477.24l8.57-67.45c14.32,1.37,48.92,6.16,81.91,22.08,13.19,6.37,24.84,13.9,34.72,22.43l-14.54,13.88c-38.94-10.11-69.55-19.3-79.28-22.28-4.28-1.31-8.92.26-11.5,3.87l-19.88,27.47ZM992.02,428.58c16.08,6.55,32.76,11.63,49.75,15.15l-46.11,40.68c-17.36-3.76-34.48-7.81-50.59-11.84l19.18-18.31-5.57-5.42c-9.61-9.37-20.96-17.73-33.83-24.95l23.13-17.93c14,8.8,28.78,16.41,44.04,22.62ZM979.72,362.37l-69.68,54.01c-20.65-9.41-41.27-14.83-57.61-17.94,14.51-5.89,30.79-13.89,47.33-24.69,14.44-9.43,27.61-20.06,39.49-31.78,15.16,7.79,28.73,14.63,40.47,20.4ZM999.41,99.37c5.81-21.43,14.46-40.9,25.78-57.94,10.51-15.8,20.48-25.02,26.73-24.6,2.72.18,4.93,1.49,5.55,1.98.3.24,7.26,6.25-5.34,44.57-5.07,15.42-12.65,34.01-21.95,53.91-9.79-6.03-20.84-10.22-32.24-12.13.51-1.93,1-3.86,1.47-5.79ZM896.58,158.61c0-3.96.26-7.95.86-11.75.46-2.75-.79-5.66-3.25-7.28-7.53-5.42-14.22-11.91-18.48-19.99-2.43-4.84-4.26-10.46-2.92-15.54.06-.21.29-.94.32-1.13.12-.3.27-.6.44-.95,5.94-12.07,17.6-10.35,26.7-2.86,4.74,3.9,6.06,8.38,8.83,14.42,1.57,3.45,3.58,7.15,6.07,10.47,2.47,3.33,5.28,6.34,8.47,8.87,6.38,5.07,13.91,8.03,21.21,10.05,15.13,5.77,26.03,20.5,27.58,36.62.21,2.13,2.06,3.74,4.22,3.64,2.24-.1,3.97-2,3.87-4.24-.47-9.83-3.49-19.57-8.75-27.91-5.42-8.54-13.03-15.57-22.03-20.29-2.23-.86-4.38-1.91-6.4-3.1.12-.62.18-1.26.14-1.91-1.47-25.38,1.35-49.78,8.38-72.52,4.14-13.4,11.08-35.83,22.54-37.94,3.04-.55,5.85-.21,7.92.97,5.55,3.16,7.25,17.29,7.7,28.59.65,16.67-1.07,33.73-5.12,50.82-.66,2.42-1.29,4.85-1.88,7.32,0,.08-.02.15-.04.23-.03.14-.05.27-.07.4-.02.12-.03.23-.04.35,0,0-.01.02-.01.03-3.92.05-7.83.39-11.69,1.02-4.76.87-4.5,7.81.33,8.3,12.63,1.24,24.93,3.5,36.81,7.73,5.87,2.07,11.59,4.55,17.17,7.38,5.57,2.86,10.98,6.09,16.4,9.53,1.57,1.03,3.7.93,5.17-.38,1.77-1.56,1.94-4.27.37-6.04-1.56-1.76-3.23-3.43-4.96-5.03,4.04-8.37,8.45-16.53,13.32-24.34,7.91-12.72,28.27-41.67,44.91-38.1,24.49,7.72-10.79,62.76-19.57,75.55-5.21,7.73-10.76,15.4-16.48,22.62-.71.89-1.25,1.98-1.49,3.17-1.98,9.95-5.01,19.67-9.16,28.78-12.31,26.91-35.37,48.94-66.76,42.18-7.64-1.11-10.31,9.58-2.98,12.18,5.36,1.73,11.1,3.03,17.32,3.18.77,0,1.54-.02,2.3-.05-2.9,5.98-6.89,10.71-11.95,14.14-15.28,10.34-33.86,4.01-47.44-.62-13-4.44-34.77-11.88-38.35-29.47-1.25-6.2.05-12.22,2.17-17.32,7.89,7.05,17.2,12.53,27.19,15.89,7.46,2.3,11.19-8.26,4.04-11.19-27.52-10.29-43.13-35.5-42.93-64.48ZM911.53,266.62c9.6,6.42,20.51,10.15,28.11,12.75,6.63,2.26,15.28,5.2,24.76,6.41-38.32,64.49-97.57,93.16-136.22,105.54l8.31-65.44c20.38-11.6,48.52-30.74,75.04-59.26ZM853.94,297.03c-5.24,3.7-10.29,7.03-15.05,9.98l2.15-16.92c4.3,2.32,8.61,4.64,12.9,6.94ZM823.84,141.6c5.39.07,10.3,2.35,13.83,6.42,3.54,4.07,5.11,9.26,4.43,14.61l-44.32,349.06c-16.77-8.99-33.45-18.23-49.86-27.64-3.73-2.14-8.34-1.82-11.74.8-4.36,3.37-16.18,12.36-33.81,24.89-17.64,12.53-41.1,28.59-68.77,46.09l-88.8-14.93c-5.51-.93-11.26,0-16.18,2.63l-15.03,7.99c-16.01-4.69-31.21-9.9-43.94-14.57l.07-.03.16-.07c3.31-1.49,5.43-4.67,5.54-8.3.11-3.62-1.82-6.92-5.04-8.61l-110.27-57.81c-2.22-1.16-4.86-1.39-7.25-.62l-60.75,19.6,41.27-329.78c1.19-9.46,9.29-16.47,18.81-16.36l471.65,6.63ZM233.24,78.58c3.14-3.3,7.39-5.16,11.94-5.27l148.79-3.31c12.75-.28,24.97,4.36,34.34,13.08l41.39,38.53-117.3-1.65c-17.19-.25-31.76,12.43-33.9,29.5l-2.72,21.7c-18.03,4.5-35.91,9.19-53.21,13.96-10.59,2.92-21.19,5.93-31.77,9.02l-2.29-103.4c-.1-4.55,1.58-8.87,4.73-12.16ZM182.5,224.58c27.65-8.82,55.89-17.22,84.06-24.99,15.38-4.24,31.22-8.42,47.23-12.45l-14.48,115.65c-7.93,3.99-15.69,8.38-23.14,13.17-15.24-18.65-31.76-36.49-49.15-53.07-14.14-13.47-29.08-26.33-44.52-38.31ZM144.67,351.79l74.16-20.98,1.17,52.38c-6.5,2.65-14.04,6.28-21.85,11.13l-16.69-13.28s-.03-.02-.05-.03l-36.74-29.22ZM68.12,432.86c40.08-6.56,82.58-24.98,107.41-37.07l9.65,7.67c-15.08,12.02-29.64,29.07-38.3,53.06-3.57,9.86-5.82,20.01-6.8,30.21-32.22-14.71-58.39-39.41-71.96-53.87ZM46.21,521.52l70.48-29.84c7.26,4.25,14.93,8.14,22.92,11.44.27,7.37,1.2,14.71,2.78,21.93-14.61,6.42-38.16,16.27-63.61,24.91-13.98-9.82-25.58-21.07-32.57-28.44ZM37.06,577.53c40.1-8.96,85.3-27.37,109.44-37.9,3.65,10.42,8.68,20.44,15.09,29.78-5.02,14.97-4.53,29.17,1.67,40.33,1.32,2.38,4.71,7.82,10.36,12.78-23.87,7.1-47.91,13.22-58.58,15.88-.25.06-.51,0-.74-.14-28.11-18.4-60.99-46.43-77.24-60.73ZM24.97,648.58l48.6-21.26c10.75,8.34,21.94,16.55,32.5,23.47,2.62,1.73,5.68,2.62,8.77,2.62,1.28,0,2.56-.15,3.82-.47,4.23-1.05,10.55-2.64,18.12-4.62l-41.79,33.3-70.02-33.04ZM247.31,752.65c-19.97-5.76-110.68-31.87-160.08-45.66l86.37-68.82c6.76-1.98,13.58-4.05,20.16-6.15,1.51.21,3.04.32,4.57.34,1.57,2.71,3.4,5.36,5.52,7.8,2.4,2.79,5.2,5.22,8.16,7.34,1.48,1.09,3.04,1.98,4.59,2.91.78.45,1.59.81,2.39,1.22.8.4,1.6.8,2.42,1.12,1.62.71,3.27,1.36,4.92,1.87l2.44.8,2.06.65c5.48,1.73,10.71,3.99,15.53,6.78,4.82,2.81,9.16,6.19,12.92,10.13,3.76,3.96,6.89,8.43,9.6,13.45,2.74,5.01,5,10.57,7.96,16.63,1.47,2.95,3.15,6.02,5.34,9.04l-34.87,40.55ZM282.54,734.69l10.63-12.36s.06.03.09.05c.87.48,1.74,1,2.63,1.42.9.42,1.8.86,2.6,1.18.86.37,1.77.71,2.69,1.02,3.66,1.25,7.62,2.06,11.81,2.07,2.08.02,4.23-.21,6.35-.65l1.58-.37,1.57-.49c.53-.16,1.01-.34,1.48-.53.48-.17.94-.38,1.4-.58,3.72-1.64,7.09-3.88,10.04-6.62,1.35-1.27,2.56-2.63,3.65-4.05,10.16,4.48,23.25,10.99,37.84,20.01l-24.1,18.84c-21.93-7.82-48.43-14.29-70.26-18.94ZM525.73,815.16c-55.96-16.37-140.9-33.3-176.06-40.05l40.51-31.66c16.35,11.23,33.92,25.46,50.98,43.3,2.81,2.93,6.6,4.5,10.49,4.5,1.5,0,3.01-.23,4.49-.7,15.14-4.81,61.79-18.93,132.77-34.52l-63.18,59.13ZM612.56,778.45l-17.57-7.57,22.32-20.89c13.06-2.68,26.79-5.38,41.17-8.05,2.19-.4,4.2-1.28,5.94-2.53,3.56,2.81,7.18,5.58,10.82,8.3l-62.68,30.74ZM737.58,770.65c-17.13-9.76-33.81-20.58-49.63-32.18-5.99-4.39-11.92-8.96-17.71-13.6-.4-2.14-1.28-4.2-2.62-6.03-4.98-6.75-12.14-15.88-21.08-25.73l45.68-25.81,51.54,29.94c1.65.96,3.49,1.44,5.33,1.44s3.79-.51,5.47-1.52c9.74-5.87,39.68-24.12,72.18-46.09,3.81,3.32,7.6,6.56,11.29,9.66,22.24,18.69,45.64,36.49,69.72,53.02l-170.17,56.9ZM1069.51,698.78l-158.78,61.12c-10.55-3.27-20.81-7.53-30.52-12.67-3.17-1.67-6.29-3.47-9.36-5.34l51.88-17.35c3.53-1.19,6.03-4.23,6.51-7.92.48-3.69-1.14-7.26-4.22-9.3-26.75-17.89-52.77-37.43-77.34-58.09-2.67-2.24-5.39-4.56-8.14-6.92,9.88-6.85,19.78-13.92,29.23-21,20.24,17.48,62.02,47.02,136.31,74.09,1.03.38,2.1.56,3.17.56,1.23,0,2.46-.24,3.63-.74l29.48-12.64c3.7,2.57,7.51,5.02,11.37,7.31,5.44,3.24,11.05,6.21,16.78,8.89ZM1115.38,634.54l-107.29,45.98c-68.06-25.05-107.22-51.83-127.14-68.54,2.57-2.02,5.08-4.02,7.53-6.02,38.8,13.1,62.97,14.5,69.64,14.62h.13c3.01,0,5.87-1.29,7.83-3.54l39.4-44.54c15.06,10.94,30.77,21.19,46.79,30.53,8.68,5.06,17.69,9.98,26.78,14.62,11.83,6.03,24,11.69,36.33,16.89ZM1082.65,602.62c-7.75-4.02-15.42-8.22-22.83-12.54-15.18-8.84-30.06-18.53-44.36-28.86l14.89-16.83c16.19,12.8,44.85,30.58,86.9,39.38-8.68,5.41-20.6,12.28-34.6,18.85Z"/>
        <path class="cls-1" d="M1052.13,63.39c-5.07,15.42-12.65,34.01-21.95,53.91-9.79-6.03-20.84-10.22-32.24-12.13.51-1.93,1-3.86,1.47-5.79,5.81-21.43,14.46-40.9,25.78-57.94,10.51-15.8,20.48-25.02,26.73-24.6,2.72.18,4.93,1.49,5.55,1.98.3.24,7.26,6.25-5.34,44.57Z"/>
        <path class="cls-1" d="M853.94,297.03c-5.24,3.7-10.29,7.03-15.05,9.98l2.15-16.92c4.3,2.32,8.61,4.64,12.9,6.94Z"/>
        <path class="cls-1" d="M979.72,362.37l-69.68,54.01c-20.65-9.41-41.27-14.83-57.61-17.94,14.51-5.89,30.79-13.89,47.33-24.69,14.44-9.43,27.61-20.06,39.49-31.78,15.16,7.79,28.73,14.63,40.47,20.4Z"/>
        <path class="cls-1" d="M942.47,454.31l-14.54,13.88c-38.94-10.11-69.55-19.3-79.28-22.28-4.28-1.31-8.92.26-11.5,3.87l-19.88,27.47,8.57-67.45c14.32,1.37,48.92,6.16,81.91,22.08,13.19,6.37,24.84,13.9,34.72,22.43Z"/>
        <path class="cls-1" d="M1041.88,508.72l-85.62,96.8c-6.78-.34-25.59-2.07-54.34-10.96,3.97-3.54,7.65-7,10.95-10.34,2.43-2.46,3.51-5.95,2.89-9.35-.63-3.41-2.88-6.3-6.04-7.74-28.18-12.86-56.44-26.57-83.98-40.76-4.6-2.36-9.2-4.76-13.79-7.17l1.38-10.9,34.06-47.09c24.42,7.39,114.3,33.81,194.49,47.51Z"/>
        <path class="cls-1" d="M1115.38,634.54l-107.29,45.98c-68.06-25.05-107.22-51.83-127.14-68.54,2.57-2.02,5.08-4.02,7.53-6.02,38.8,13.1,62.97,14.5,69.64,14.62h.13c3.01,0,5.87-1.29,7.83-3.54l39.4-44.54c15.06,10.94,30.77,21.19,46.79,30.53,8.68,5.06,17.69,9.98,26.78,14.62,11.83,6.03,24,11.69,36.33,16.89Z"/>
        <path class="cls-1" d="M588.91,756.03l-63.18,59.13c-55.96-16.37-140.9-33.3-176.06-40.05l40.51-31.66c16.35,11.23,33.92,25.46,50.98,43.3,2.81,2.93,6.6,4.5,10.49,4.5,1.5,0,3.01-.23,4.49-.7,15.14-4.81,61.79-18.93,132.77-34.52Z"/>
        <path class="cls-1" d="M907.75,713.74l-170.17,56.9c-17.13-9.76-33.81-20.58-49.63-32.18-5.99-4.39-11.92-8.96-17.71-13.6-.4-2.14-1.28-4.2-2.62-6.03-4.98-6.75-12.14-15.88-21.08-25.73l45.68-25.81,51.54,29.94c1.65.96,3.49,1.44,5.33,1.44s3.79-.51,5.47-1.52c9.74-5.87,39.68-24.12,72.18-46.09,3.81,3.32,7.6,6.56,11.29,9.66,22.24,18.69,45.64,36.49,69.72,53.02Z"/>
        <path class="cls-1" d="M897.67,578.1c-41.09,38.92-130.38,93.8-148.62,104.86l-151.15-87.81c74.36-43.61,129.8-84.94,145.1-96.63,24.9,14.23,50.41,28.08,75.87,41.19,25.86,13.32,52.34,26.22,78.8,38.39Z"/>
        <path class="cls-1" d="M627.36,629.62l-86.89,48.53c-.75.42-1.64.49-2.44.18l-80.55-30.56c-.26-9.88-3.07-19.73-6.38-28.88-1.84-4.81-4.04-9.35-6.54-13.65l91.11-48.48c2.02-1.07,4.37-1.45,6.64-1.07l72.05,12.11c-9.77,5.98-19.96,12.06-30.51,18.18-3.26,1.89-5.29,5.41-5.29,9.18s2.02,7.28,5.28,9.17l43.52,25.29Z"/>
        <path class="cls-1" d="M655.22,727.28c-110.18,20.5-183.24,42.5-203.41,48.89-39.06-40.76-80.72-63.57-105.9-74.78.27-.91.51-1.82.75-2.73.28-.91.39-1.81.57-2.72.16-.9.35-1.81.45-2.71l.27-2.71c.04-.46.1-.91.12-1.36l.04-1.35v-.46c1.75,2.53,3.55,5.03,5.47,7.42,8.77,11.45,21.37,17.1,35.88,14.46,14.25-3.08,21.37-11.29,23.89-21.74,17.13,1.16,35.08-4.81,41.52-22.39.24-.68.44-1.36.65-2.04l77.2,29.29c2.06.78,4.2,1.16,6.34,1.16,3.02,0,6.03-.76,8.73-2.28l45.46-25.39c28.41,19.13,50.76,46.3,61.97,61.44Z"/>
        <path class="cls-1" d="M282.18,712.1l-34.87,40.55c-19.97-5.76-110.68-31.87-160.08-45.66l86.37-68.82c6.76-1.98,13.58-4.05,20.16-6.15,1.51.21,3.04.32,4.57.34,1.57,2.71,3.4,5.36,5.52,7.8,2.4,2.79,5.2,5.22,8.16,7.34,1.48,1.09,3.04,1.98,4.59,2.91.78.45,1.59.81,2.39,1.22.8.4,1.6.8,2.42,1.12,1.62.71,3.27,1.36,4.92,1.87l2.44.8,2.06.65c5.48,1.73,10.71,3.99,15.53,6.78,4.82,2.81,9.16,6.19,12.92,10.13,3.76,3.96,6.89,8.43,9.6,13.45,2.74,5.01,5,10.57,7.96,16.63,1.47,2.95,3.15,6.02,5.34,9.04Z"/>
        <path class="cls-1" d="M280.45,453.5l-4.09,32.69-36.24,11.69c1.89-17.32,11.21-36.26,40.33-44.38Z"/>
        <path class="cls-1" d="M414.2,672.33c-1.69-18.11-11.45-38.39-20.35-50.56-10.14-14.18-24.23-25.53-39.85-32.95-3.03-1.45-6.7-.24-8.25,2.77-1.59,3.07-.38,6.85,2.7,8.43,9.06,4.69,17.44,10.7,24.56,17.97,14.04,13.58,31.09,47.21,25.7,66.67-2.18,7.82-10.4,10.47-18.04,9.81-4.09-.44-7.31-1.76-10.44-4.5-7.48-6.92-12.01-16.3-18.22-24.7-11.84-16.8-32.07-36.8-51.22-44.55-7.17-2.67-12.71,6.54-6.94,11.62,8.04,6.84,16.89,12.23,24.69,19.25,1.16,1.02,2.3,2.06,3.43,3.12.54.67,1.07,1.35,1.58,2.05.76,1.08,1.49,2.17,2.13,3.33.63,1.16,1.33,2.28,1.84,3.52,2.26,4.84,3.83,10.14,4.41,15.51.59,5.35.4,10.8-.86,15.7-.35,1.21-.64,2.44-1.13,3.55-.23.56-.38,1.18-.68,1.68l-.79,1.6-.2.4-.24.35-.47.73c-.32.46-.57,1.01-.97,1.4-.36.42-.71.85-1.05,1.29-.35.44-.73.78-1.13,1.16-1.63,1.5-3.55,2.76-5.55,3.62-.25.11-.5.22-.76.31-.26.1-.51.2-.73.25l-.67.21-.7.15c-.93.19-1.91.31-2.95.28-2.06,0-4.31-.44-6.55-1.22-.56-.2-1.11-.41-1.69-.66-.64-.26-1.14-.52-1.65-.76-.53-.24-.99-.55-1.49-.81-.45-.32-.95-.58-1.37-.92-.91-.63-1.71-1.38-2.51-2.16-.77-.83-1.55-1.67-2.26-2.66-1.44-1.95-2.76-4.29-4.04-6.85-2.57-5.15-5.03-11.18-8.3-17.13-3.22-5.97-7.32-11.83-12.24-16.86-4.91-5.07-10.57-9.37-16.58-12.79-6.03-3.41-12.37-6.06-18.81-8.03l-4.45-1.31c-1.35-.36-2.61-.86-3.9-1.28-2.54-.94-5.01-1.96-7.27-3.25-4.61-2.46-8.53-5.84-11.57-10.33-1.54-2.23-2.84-4.73-4.07-7.43l-.69-1.81-.36-.9c-.1-.3-.17-.62-.26-.93l-.52-1.88-.32-1.95c-.06-.32-.13-.64-.17-.97l-.07-1c-.04-.67-.13-1.33-.14-2.01.02-1.35-.03-2.71.12-4.09.07-1.37.35-2.75.55-4.14.31-1.37.55-2.76.97-4.13.73-2.75,1.68-5.5,2.87-8.15,1.17-2.67,2.49-5.29,3.99-7.82l.02-.03s.03-.05.05-.08c1.43-2.55.53-5.78-2.02-7.21-2.55-1.44-5.78-.54-7.21,2.01-3.25,5.77-6.07,11.82-8,18.34-.52,1.61-.88,3.29-1.28,4.95-.3,1.7-.65,3.39-.82,5.13-.26,1.72-.31,3.49-.4,5.26-.02.88.04,1.78.06,2.67l.05,1.34c.03.45.1.9.15,1.35l.34,2.69.47,2.14c-9.07-3.22-14.28-11.83-15.31-13.68-7.86-14.14.53-32.46,4.5-39.68,9.88-17.95,31.53-32.49,55.17-37.04,16.05-3.09,30.07-.91,38.47,5.99,1.54,1.26,2.94,2.75,4.2,4.42-7.68.72-15.31,1.89-22.82,3.51-2.84.63-4.83,3.33-4.47,6.28.37,3.15,3.24,5.39,6.38,5,48.78-6.05,99.8,3.53,141.28,29.92,16.69,11.07,30.86,25.75,37.59,44.62,9.31,25.34,8.01,48.54-22.47,46.86Z"/>
        <path class="cls-1" d="M452.42,527.7l-66.26,28.05c-16.73-7.73-34.68-13.11-51.85-16.79-12.77-2.56-25.77-3.77-38.72-3.68-2.89-6.12-6.75-11.22-11.56-15.17-7.73-6.34-18.29-9.94-30.36-10.61l101.54-32.76,97.21,50.96Z"/>
        <path class="cls-1" d="M173.62,622.52c-23.87,7.1-47.91,13.22-58.58,15.88-.25.06-.51,0-.74-.14-28.11-18.4-60.99-46.43-77.24-60.73,40.1-8.96,85.3-27.37,109.44-37.9,3.65,10.42,8.68,20.44,15.09,29.78-5.02,14.97-4.53,29.17,1.67,40.33,1.32,2.38,4.71,7.82,10.36,12.78Z"/>
        <path class="cls-1" d="M185.18,403.45c-15.08,12.02-29.64,29.07-38.3,53.06-3.57,9.86-5.82,20.01-6.8,30.21-32.22-14.71-58.39-39.41-71.96-53.87,40.08-6.56,82.58-24.98,107.41-37.07l9.65,7.67Z"/>
        <path class="cls-1" d="M220,383.2c-6.5,2.65-14.04,6.28-21.85,11.13l-16.69-13.28s-.03-.02-.05-.03l-36.74-29.22,74.16-20.98,1.17,52.38Z"/>
        <path class="cls-1" d="M469.7,121.62l-117.3-1.65c-17.19-.25-31.76,12.43-33.9,29.5l-2.72,21.7c-18.03,4.5-35.91,9.19-53.21,13.96-10.59,2.92-21.19,5.93-31.77,9.02l-2.29-103.4c-.1-4.55,1.58-8.87,4.73-12.16,3.14-3.3,7.39-5.16,11.94-5.27l148.79-3.31c12.75-.28,24.97,4.36,34.34,13.08l41.39,38.53Z"/>
        <path class="cls-1" d="M313.79,187.14l-14.48,115.65c-7.93,3.99-15.69,8.38-23.14,13.17-15.24-18.65-31.76-36.49-49.15-53.07-14.14-13.47-29.08-26.33-44.52-38.31,27.65-8.82,55.89-17.22,84.06-24.99,15.38-4.24,31.22-8.42,47.23-12.45Z"/>
        <path class="cls-1" d="M837.67,148.02c-3.53-4.07-8.44-6.35-13.83-6.42l-471.65-6.63c-9.52-.11-17.62,6.9-18.81,16.36l-41.27,329.78,60.75-19.6c2.39-.77,5.03-.54,7.25.62l110.27,57.81c3.22,1.69,5.15,4.99,5.04,8.61-.11,3.63-2.23,6.81-5.54,8.3l-.16.07-.07.03c12.73,4.67,27.93,9.88,43.94,14.57l15.03-7.99c4.92-2.63,10.67-3.56,16.18-2.63l88.8,14.93c27.67-17.5,51.13-33.56,68.77-46.09,17.63-12.53,29.45-21.52,33.81-24.89,3.4-2.62,8.01-2.94,11.74-.8,16.41,9.41,33.09,18.65,49.86,27.64l44.32-349.06c.68-5.35-.89-10.54-4.43-14.61ZM482.52,207.94c.66-1.23,16.58-30.17,57.28-36.38,4.09-.62,7.92,2.19,8.55,6.29.62,4.09-2.19,7.92-6.28,8.54-33.37,5.09-46.2,28.4-46.32,28.63-1.36,2.53-3.95,3.96-6.62,3.96-1.2,0-2.41-.28-3.54-.89-3.65-1.95-5.02-6.5-3.07-10.15ZM527.82,368.33c-25.57,0-46.29-31.26-46.29-69.83s20.72-69.82,46.29-69.82,46.28,31.26,46.28,69.82-20.72,69.83-46.28,69.83ZM669.84,368.33c-25.57,0-46.29-31.26-46.29-69.83s20.72-69.82,46.29-69.82,46.28,31.26,46.28,69.82-20.72,69.83-46.28,69.83ZM715.55,219.43c-1.27.84-2.7,1.24-4.11,1.24-2.44,0-4.83-1.19-6.27-3.38-18.36-27.89-44.3-30.06-45.4-30.14-4.12-.29-7.24-3.86-6.97-7.97.28-4.12,3.8-7.24,7.92-7,1.39.09,34.34,2.47,56.98,36.86,2.27,3.46,1.31,8.11-2.15,10.39Z"/>
        <path class="cls-1" d="M1081.1,139.6c-5.21,7.73-10.76,15.4-16.48,22.62-.71.89-1.25,1.98-1.49,3.17-1.98,9.95-5.01,19.67-9.16,28.78-12.31,26.91-35.37,48.94-66.76,42.18-7.64-1.11-10.31,9.58-2.98,12.18,5.36,1.73,11.1,3.03,17.32,3.18.77,0,1.54-.02,2.3-.05-2.9,5.98-6.89,10.71-11.95,14.14-15.28,10.34-33.86,4.01-47.44-.62-13-4.44-34.77-11.88-38.35-29.47-1.25-6.2.05-12.22,2.17-17.32,7.89,7.05,17.2,12.53,27.19,15.89,7.46,2.3,11.19-8.26,4.04-11.19-27.52-10.29-43.13-35.5-42.93-64.48,0-3.96.26-7.95.86-11.75.46-2.75-.79-5.66-3.25-7.28-7.53-5.42-14.22-11.91-18.48-19.99-2.43-4.84-4.26-10.46-2.92-15.54.06-.21.29-.94.32-1.13.12-.3.27-.6.44-.95,5.94-12.07,17.6-10.35,26.7-2.86,4.74,3.9,6.06,8.38,8.83,14.42,1.57,3.45,3.58,7.15,6.07,10.47,2.47,3.33,5.28,6.34,8.47,8.87,6.38,5.07,13.91,8.03,21.21,10.05,15.13,5.77,26.03,20.5,27.58,36.62.21,2.13,2.06,3.74,4.22,3.64,2.24-.1,3.97-2,3.87-4.24-.47-9.83-3.49-19.57-8.75-27.91-5.42-8.54-13.03-15.57-22.03-20.29-2.23-.86-4.38-1.91-6.4-3.1.12-.62.18-1.26.14-1.91-1.47-25.38,1.35-49.78,8.38-72.52,4.14-13.4,11.08-35.83,22.54-37.94,3.04-.55,5.85-.21,7.92.97,5.55,3.16,7.25,17.29,7.7,28.59.65,16.67-1.07,33.73-5.12,50.82-.66,2.42-1.29,4.85-1.88,7.32,0,.08-.02.15-.04.23-.03.14-.05.27-.07.4-.02.12-.03.23-.04.35,0,0-.01.02-.01.03-3.92.05-7.83.39-11.69,1.02-4.76.87-4.5,7.81.33,8.3,12.63,1.24,24.93,3.5,36.81,7.73,5.87,2.07,11.59,4.55,17.17,7.38,5.57,2.86,10.98,6.09,16.4,9.53,1.57,1.03,3.7.93,5.17-.38,1.77-1.56,1.94-4.27.37-6.04-1.56-1.76-3.23-3.43-4.96-5.03,4.04-8.37,8.45-16.53,13.32-24.34,7.91-12.72,28.27-41.67,44.91-38.1,24.49,7.72-10.79,62.76-19.57,75.55Z"/>
        <path d="M136.78,648.33l-41.79,33.3-70.02-33.04,48.6-21.26c10.75,8.34,21.94,16.55,32.5,23.47,2.62,1.73,5.68,2.62,8.77,2.62,1.28,0,2.56-.15,3.82-.47,4.23-1.05,10.55-2.64,18.12-4.62Z"/>
        <path d="M142.39,525.05c-14.61,6.42-38.16,16.27-63.61,24.91-13.98-9.82-25.58-21.07-32.57-28.44l70.48-29.84c7.26,4.25,14.93,8.14,22.92,11.44.27,7.37,1.2,14.71,2.78,21.93Z"/>
        <path d="M494.88,561.48l-58.87,31.32c-8.94-11.12-20.1-20.31-32.51-27.85l46.14-19.53c11.82,4.6,27.69,10.45,45.24,16.06Z"/>
        <path d="M376.9,734.79l-24.1,18.84c-21.93-7.82-48.43-14.29-70.26-18.94l10.63-12.36s.06.03.09.05c.87.48,1.74,1,2.63,1.42.9.42,1.8.86,2.6,1.18.86.37,1.77.71,2.69,1.02,3.66,1.25,7.62,2.06,11.81,2.07,2.08.02,4.23-.21,6.35-.65l1.58-.37,1.57-.49c.53-.16,1.01-.34,1.48-.53.48-.17.94-.38,1.4-.58,3.72-1.64,7.09-3.88,10.04-6.62,1.35-1.27,2.56-2.63,3.65-4.05,10.16,4.48,23.25,10.99,37.84,20.01Z"/>
        <path d="M675.24,747.71l-62.68,30.74-17.57-7.57,22.32-20.89c13.06-2.68,26.79-5.38,41.17-8.05,2.19-.4,4.2-1.28,5.94-2.53,3.56,2.81,7.18,5.58,10.82,8.3Z"/>
        <path d="M1069.51,698.79l-158.78,61.12c-10.55-3.27-20.81-7.53-30.52-12.67-3.17-1.67-6.29-3.47-9.36-5.34l51.88-17.35c3.53-1.19,6.03-4.23,6.51-7.92.48-3.69-1.14-7.26-4.22-9.3-26.75-17.89-52.77-37.43-77.34-58.09-2.67-2.24-5.39-4.56-8.14-6.92,9.88-6.85,19.78-13.92,29.23-21,20.24,17.48,62.02,47.02,136.31,74.09,1.03.38,2.1.56,3.17.56,1.23,0,2.46-.24,3.63-.74l29.48-12.64c3.7,2.57,7.51,5.02,11.37,7.31,5.44,3.24,11.05,6.21,16.78,8.89Z"/>
        <path d="M677.18,658.56l-41.32,23.36c-8.34-8.3-17.78-16.66-28.07-24.19l34.65-19.35,34.74,20.18Z"/>
        <path d="M1117.25,583.77c-8.68,5.41-20.6,12.28-34.6,18.85-7.75-4.02-15.42-8.22-22.83-12.54-15.18-8.84-30.06-18.53-44.36-28.86l14.89-16.83c16.19,12.8,44.85,30.58,86.9,39.38Z"/>
        <path d="M1041.77,443.73l-46.11,40.68c-17.36-3.76-34.48-7.81-50.59-11.84l19.18-18.31-5.57-5.42c-9.61-9.37-20.96-17.73-33.83-24.95l23.13-17.93c14,8.8,28.78,16.41,44.04,22.62,16.08,6.55,32.76,11.63,49.75,15.15Z"/>
        <path d="M297.04,320.94l-14.6,116.63c-25.13,5.44-42.36,17.81-51.25,36.82-5.27,11.27-6.65,23.02-6.42,33.06-.11.82-.08,1.66.09,2.5.05,1.02.12,2.01.2,2.98-23.62,6.64-44.77,21.75-55.96,40.24-9.49-16.6-14.44-35.15-14.57-53.85.18-.94.18-1.88.02-2.78.21-11.77,2.33-23.56,6.44-34.93,8.73-24.19,24.43-40.4,39.84-51.1.7-.33,1.34-.77,1.93-1.3,10.08-6.72,19.9-11.12,27.43-13.87l5.04-1.84-1.59-71.55c.12-.83.11-1.68-.06-2.54l-.65-29.49c11.86,12.26,23.22,25.09,33.89,38.33l.3.37.35.33c1.71,1.65,3.85,2.72,6.11,3.07.62.1,1.24.15,1.87.15,1.7,0,3.38-.38,4.95-1.13l.47-.23.43-.29c5.1-3.38,10.36-6.58,15.74-9.58Z"/>
        <path d="M964.4,285.79c-38.32,64.49-97.57,93.16-136.22,105.54l8.31-65.44c20.38-11.6,48.52-30.74,75.04-59.26,9.6,6.42,20.51,10.15,28.11,12.75,6.63,2.26,15.28,5.2,24.76,6.41Z"/>
      </g>
      <path class="cls-1" d="M553.71,261.93c0,9.7-6.7,17.57-14.98,17.57s-14.98-7.87-14.98-17.57,6.71-17.58,14.98-17.58,14.98,7.87,14.98,17.58Z"/>
      <path class="cls-1" d="M697.91,263.3c0,9.7-6.7,17.57-14.98,17.57s-14.98-7.87-14.98-17.57,6.71-17.58,14.98-17.58,14.98,7.87,14.98,17.58Z"/>
    </g>
  </g>
</svg>