<?xml version="1.0" encoding="UTF-8"?>
<svg id="Calque_2" xmlns="http://www.w3.org/2000/svg" viewBox="0 0 748.08 980.13">
  <defs>
    <style>
      .cls-1 {
        fill: #fff;
      }
    </style>
  </defs>
  <g id="Calque_2-2" data-name="Calque_2">
    <g>
      <g>
        <path d="M347.78,228.91c0,38.57-20.72,69.83-46.28,69.83s-46.29-31.26-46.29-69.83,20.72-69.82,46.29-69.82,46.28,31.26,46.28,69.82Z"/>
        <path d="M489.81,228.91c0,38.57-20.73,69.83-46.29,69.83s-46.29-31.26-46.29-69.83,20.73-69.82,46.29-69.82,46.29,31.26,46.29,69.82Z"/>
        <path d="M747.87,470.28l-.19-2.26c-1.53-17-7.27-30.49-10.56-37.03-13.84-27.43-37.16-41.35-56.7-48.4l10.54-25.92c2.53-6.23,1.8-13.28-1.96-18.86-3.75-5.59-10.02-8.92-16.75-8.92h-57.56c2.97-70.75,5.94-141.5,8.9-212.31.15-4.59-.33-20.55-12.94-33.45-9.34-9.56-20.44-12.54-27.78-13.39-1.21-4.97-3.55-10.71-7.95-16.16-11.65-14.44-28.66-15.63-33.62-15.65h-242.73c-8.98,0-17.73-3.04-24.66-8.55-3.15-2.51-5.57-4.61-7.91-6.64-4.3-3.74-8.01-6.97-14.21-10.93-10.54-6.74-23.3-10.5-37.94-11.16L61.49,0h-.14c-9.1,0-17.66,3.53-24.1,9.95-6.48,6.46-10.05,15.04-10.05,24.18l-.42,333.77c-5.95,6.87-11.39,14.92-15.79,24.36-13.81,29.6-19.1,76.43,11.46,110.99,1.33,1.51,2.73,2.97,4.16,4.39l-.04,37.11v.18c.41,18.42,14.52,33.83,32.79,35.85,1.1.13,2.23.2,3.35.23l130.16.83c-6.32,33.42-10.76,67.47-13.18,101.35-2.37,33.13-2.87,66.66-1.51,99.96-7.61,3.11-14.68,8.28-19.57,15.26-5.98,8.88-5.89,18.25-2.04,26.54-22.81-9.98-50.4-13.57-73.47-5.9-37.88,13.04-49.39,53.19-41.92,89.4-4.94,9.22-6.52,18.08-4.68,26.4,5.59,25.17,40,34.07,60.57,39.39,17.85,4.62,33.5,5.89,48.66,5.89,9.03,0,17.88-.45,26.92-.91,38.75-1.97,70.25-8.69,93.61-19.99,27.7-13.41,34.26-25.15,36.88-33.87,4.32-14.4-.15-28.06-5.06-37.45,2.98-14.82.2-32.63-9.95-53.67,2.06-2.1,3.89-4.47,5.41-7.17,9.35-16.73-3.06-34.37-17.34-43.3-1.4-.82-3.35-1.77-5.42-2.45-1.04-30.52-.32-61.26,2.19-91.64,2.96-35.89,8.48-71.93,16.39-107.22l29.3.19-1.2,2.91c-2.55,6.22-1.86,13.28,1.85,18.88,3.71,5.6,9.93,9,16.65,9.08l61.72.74c4.52,24.9,7.87,50.24,9.95,75.43,2.51,30.36,3.23,61.19,2.18,91.67-8.98,2.82-17.4,11.7-21.9,19.04-7.44,12.48-3.98,25.08,4.52,33.79-8.87,18.05-13.13,36.74-9.84,53.58-4.94,9.4-9.47,23.12-5.13,37.59,2.62,8.73,9.18,20.46,36.88,33.87,23.36,11.3,54.86,18.02,93.62,19.99,9.03.46,17.88.91,26.91.91,15.16,0,30.81-1.27,48.66-5.89,20.57-5.32,54.99-14.22,60.57-39.39,1.84-8.31.26-17.17-4.67-26.38,6.2-29.92-.5-64.92-27.6-82.43-24.17-15.9-59.6-13.44-87.75-1.09,8.29-17.54-3.88-34.53-21.66-41.79,1.37-33.23.87-66.85-1.5-99.97-1.61-22.57-4.13-45.33-7.48-67.78l78.14.94h.28c8.26,0,15.57-4.92,18.68-12.59l20.3-49.95c13.83,6,29.73,9.33,44.75,9.33,2.34,0,4.65-.08,6.93-.24,8.71-.61,53.29-5.7,75.27-45.8,7.8-14.23,11.19-29.96,10.08-46.82ZM689.41,403c-2.3-.61-4.61-1.15-6.92-1.6-2.96-.68-5.98-1.24-9.03-1.68l1.31-3.22c4.7,1.67,9.67,3.8,14.64,6.5ZM576.49,84.44h.28c2.29-.09,14.13-.06,23.15,9.17,8.46,8.65,8.78,19.39,8.68,22.41-2.96,70.95-5.94,141.91-8.92,212.87h-163.16c-8.22,0-15.54,4.91-18.66,12.5l-46.27,112.53-7.16-21.56-1.47-1.32c-4.93-4.45-9.86-8.9-14.79-13.36,6.92-19.95-8.72-43.5-23.45-57.67-11.53-11.11-25.39-19.96-40.89-24.53-9.42-2.66-19.01-3.81-28.57-3.7-15.59-16.17-31.17-32.34-46.75-48.51l-37.8-39.22-2.58-.35c-4-.53-17.98-1.48-30.02,8.87-12.53,10.76-13.35,25.3-13.3,29.51l.03,3.02,65.62,66.68c-12.53,7.85-23.84,17.63-33.19,28.66-6.79,7.88-12.36,16.78-16.62,26.28-16.63-1.62-23.59,3.78-27.33,6.7-.28.21-.54.41-.79.6-9.1,6.74-14.92,18.39-16.9,32.98-1.7-.23-3.39-.55-5.04-.98-5.62-1.46-10.96-4.08-15.63-7.64l18.27-340.28v-.25c.03-1.32.41-5.92,4.09-9.53,3.97-3.9,9.06-3.92,10.04-3.89h.14s468.99.01,468.99.01ZM244.04,380.83c16.34,1.8,31.95,8,43.65,19.17,8.86,8.76,16.44,19.57,19.47,31.78,3.38,14.04-.53,31.52-12.54,40.31-2.7,1.9-5.69,3.28-8.93,4.3.43-3.78.41-7.64-.11-11.51-3.45-23.04-24.43-39.74-46.41-44.04-4.83-.88-6.45,6.03-1.76,7.39,6.36,1.67,12.39,4.36,17.84,7.83,10.44,6.76,18.81,17.56,20.24,30.15,2.17,18.36-11.26,36.88-27.94,43.43-9.03,3.52-18.98,2.08-27.08-2.88,5.14-7.69,7.72-17.23,6.25-27.7-.64-3.97-6.34-4.33-7.46-.42-3.5,13.55-12.45,26.44-25.99,30.79-13.61,4.53-28.57.03-39.71-9.42-1.04-.93-2.59-1.15-3.88-.43-1.62.9-2.2,2.95-1.3,4.57,3.72,6.68,9.6,12.35,16.68,16.13-.62.34-1.31.71-2.13,1.12-5.84,2.96-11.34,2.64-14.22,2.47-.06,0-5.35-.39-10.07-2.21-12.87-4.97-24.61-26.34-27.91-50.8-2.79-20.66,1.32-37.82,10.73-44.79.34-.25.7-.53,1.07-.82,2.31-1.79,5.11-3.95,12.71-3.84-4.32,14.79-5.66,30.44-3.72,45.58.5,3.66,5.78,3.33,5.93-.24.87-28.41,10.29-56.78,29.49-78.02,23.04-25.93,57.61-43.33,92.57-42.13,27.43.61,52.72,17.4,67.39,40.22,4.38,7.19,9.45,16.61,6.97,24.98-.9,2.94-2.71,6.05-4.75,7.68-2.86,2.24-6.44,3.35-10.04,2.89-.63-.08-1.16-.17-1.91-.35-.57-.14-1.15-.2-1.71-.2-5.4-14.89-16.43-27.81-29.93-35.88-12.45-7.49-26.87-11.05-41.29-10.78-3.56.17-3.68,5.28-.2,5.67ZM170.3,284.94c3.58-2.91,7.4-5.54,11.4-7.87l16.01,16.61c12.84,13.32,25.68,26.64,38.52,39.96-11.06,2.05-21.88,5.7-32.12,10.63l-46.22-46.97c3.73-4.53,7.88-8.67,12.41-12.36ZM156.48,295.87l-16.5-16.77c.47-3.76,2.14-10.21,7.9-15.16,5.69-4.88,12.23-5.58,15.84-5.53l16.55,17.17c-3.94,2.32-7.7,4.93-11.23,7.81-4.58,3.73-8.78,7.91-12.56,12.48ZM318.88,437.47c3.18.24,6.43-.03,9.49-.87,4.17-1.1,7.96-3.19,11.23-5.94.09-.08.18-.17.27-.26,3.86,3.48,7.71,6.97,11.57,10.45l.31.93c-1.58,1.38-3.27,2.63-5.08,3.73-4.15,2.53-8.69,4.22-13.49,5.01l-.68.11-.14.67c-.6,2.9-1.71,5.63-3.29,8.11-.58.92-1.24,1.79-1.94,2.62l-.88-.42c-2.77-2.64-5.53-5.28-8.29-7.92.6-3.4.94-6.84,1.07-10.21.06-2.02,0-4.02-.15-6.01ZM330.76,460.48c1.59-2.49,2.73-5.21,3.41-8.1,4.81-.88,9.36-2.61,13.54-5.16,1.67-1.02,3.24-2.15,4.72-3.39l7.58,22.82c-2.32,1.82-4.89,4.36-7.05,7.79l-23.97-11.51c.64-.79,1.23-1.6,1.77-2.45ZM360.7,468.71l2.15,6.47-1.38,3.34-6.67-3.2c1.82-2.81,3.93-4.98,5.9-6.61ZM42.2,34.14c0-5.13,2-9.94,5.63-13.56,3.62-3.6,8.41-5.58,13.52-5.58h.08l151.89.64c11.91.56,22.13,3.52,30.39,8.81,5.28,3.37,8.44,6.12,12.45,9.6,2.34,2.04,5,4.35,8.41,7.07,9.57,7.61,21.64,11.81,34,11.81h242.69c2.33.01,14.3.54,21.99,10.07,1.71,2.12,2.93,4.32,3.8,6.44H107.76c-3.09-.09-12.95.31-20.95,8.18-7.42,7.28-8.47,16.16-8.57,19.79l-12.98,241.79c-7.38,3.48-15.51,8.17-23.46,14.42l.4-319.48ZM53.23,563.46c-6.8-3.62-11.45-10.71-11.66-18.79l.03-25.1c4.3,2.75,8.85,5.17,13.6,7.21-.66,12.23-1.32,24.45-1.97,36.68ZM33.69,493.32c-24.1-27.26-21.94-67.21-9.11-94.72,9.76-20.92,25.51-34,39.75-42.05l-4.74,88.38,2.67,2.39c7.03,6.3,15.52,10.87,24.54,13.21,2.67.7,5.39,1.2,8.14,1.51.12,3.51.42,7.12.92,10.83,2.12,15.67,7.84,32.8,16.86,45.54-15.97,2.98-32.36,1.76-47.18-3.65-12.43-4.52-23.45-11.94-31.85-21.44ZM289.41,908.06c.71,4.16.69,8.58-.64,12.98-1.01,3.4-3.72,12.43-29.04,24.68-21.55,10.42-51.1,16.65-87.84,18.52-24.04,1.22-44.8,2.27-71.07-4.52-17.23-4.46-46.08-11.92-49.67-28.12-.77-3.47-.37-7.32,1.16-11.49,6.79,3.88,13.77,7.41,20.96,10.5,42.1,18.12,89.01,20.2,134.05,14.98,36.86-4.38,67.25-16.44,82.09-37.53ZM271.93,804.7l-.23-3.74c-.05-.88-.09-1.76-.14-2.64,1,.93,1.97,1.9,2.85,2.95,3.04,3.54,6.51,8.46,6.82,13.03.73,10.12-12.14,17.24-19.43,23.69-1.13.83-1.83,2.16-1.72,3.66.16,2.25,2.12,3.95,4.38,3.78,3.89-.29,7.42-1.26,10.92-2.69.65-.28,1.28-.58,1.92-.89,6.18,13.59,10.55,29.12,7.48,43.47-1.22,1.54-1.78,3.51-1.57,5.46-.74,2.05-1.65,4.07-2.76,6.04-21.95,36.71-95.99,38.04-134.53,35.59-22.8-1.67-45.5-6.94-66.47-16-8-3.52-15.76-7.59-23.21-12.15-3.59-15.88-3.3-33.61,3.6-48.32,12.08-25.82,40.79-32.54,67.19-28.48,27.51,3.51,52.93,17.97,68.92,41.07,3.16,4.21,9.49-.11,6.69-4.59-2.75-4.15-5.79-8.13-9.08-11.89,5.48,1.28,11.05,1.89,16.64,1.13,2.51-.35,5-.98,7.37-2.04,1.16-.53,2.12-1.53,2.55-2.84.8-2.48-.55-5.13-3.02-5.93-2.29-.76-4.52-1.25-6.68-1.71-6.04-1.29-12.31-2-17.95-4.34-5.64-2.21-10.56-5.5-14.97-9.54-6.29-5.46-11.69-12.81-6.82-20.78,2.04-3.43,4.94-6.74,8.13-9.88.16,2.89.33,5.79.52,8.68l.23,3.52,2.87,2.07c5.88,4.24,21.01,13.45,41.43,13.45,1.87,0,3.79-.08,5.74-.24,19.35-1.64,33.03-11.02,39.46-16.47l2.87-2.43ZM258.02,688.45c-3,36.3-3.5,73.12-1.51,109.49-5.76,4.24-15.41,9.63-28.17,10.71-15.57,1.32-27.83-4.49-34.27-8.51-2.36-38.49-2.17-77.46.58-115.88,2.44-34.22,6.99-68.61,13.47-102.32l65.9.42c-7.69,34.95-13.07,70.59-16,106.09ZM201.98,566.9l-133.87-.86c.61-11.42,1.23-22.84,1.84-34.26,8.36,2.13,17.02,3.22,25.74,3.22,9.74,0,19.56-1.34,29.12-4,2.64,1.92,5.45,3.5,8.42,4.65,6.81,2.63,13.73,3.14,14.54,3.19.96.06,2.25.13,3.79.13,4.48,0,11.11-.63,18.12-4.17,6.02-3.03,9.13-5.43,12.15-9.51,11.13.94,21.92-2.64,30.18-9.3,11.54,7.59,26.78,9.9,39.72,4.48,14.11-5.9,25.63-17.81,31-31.95,2.69,0,5.42-.36,8.1-1.05,3.94-1.01,7.68-2.87,11.04-5.24,4.74-3.4,8.28-7.81,10.89-12.76,1.34,1.27,2.67,2.54,4,3.82l.86.81,38.14,18.32-30.95,75.27-122.83-.79ZM629.45,931.6c-3.59,16.2-32.44,23.66-49.67,28.12-26.26,6.79-47.02,5.74-71.06,4.52-36.75-1.87-66.3-8.1-87.84-18.52-25.32-12.24-28.03-21.28-29.05-24.68-1.32-4.37-1.34-8.76-.65-12.9,4.93,7.11,11.89,13.56,21.2,19.05,31.01,17.64,67.7,20.4,102.48,20.81,28.05.23,56.13-3.84,82.58-13.47,10.69-3.87,20.98-8.77,30.85-14.41,1.54,4.17,1.93,8.01,1.16,11.48ZM498.18,810.39l2.86-2.06.23-3.53c.19-2.87.36-5.78.53-8.68,3.18,3.14,6.08,6.45,8.12,9.88,3.52,6.28,1.88,11.26-2.71,16.66-5.21,5.79-11.7,10.77-19.08,13.66-7.84,3.21-16.51,3.4-24.65,6.05-4.01,1.25-4.35,7.07-.45,8.77,7.67,3.28,16.01,2.78,24.01.9-3.3,3.77-6.33,7.75-9.08,11.9-1.2,1.81-.76,4.28,1.03,5.55,1.83,1.3,4.36.87,5.66-.96,10.73-15.08,25.41-27.27,42.35-34.03,43.63-17.28,96.94-9.2,99.55,46.55.28,7.68-.44,15.65-2.16,23.18-4.68,2.87-9.47,5.55-14.38,8.01-41.37,21.01-89.53,23.87-134.99,19.01-37.9-4.51-68.73-16.23-77.62-40.61.17-1.88-.38-3.76-1.53-5.25-2.58-11.72-.56-26.06,7.41-43.51,4.01,1.9,8.38,3.15,12.87,3.55,3.89.34,5.98-4.77,2.89-7.25-7.31-6.49-20.42-13.72-19.67-23.89.3-4.56,3.78-9.48,6.82-13.03.88-1.05,1.85-2.02,2.86-2.95-.05.89-.1,1.77-.15,2.65l-.22,3.75,2.86,2.42c6.43,5.45,20.11,14.84,39.47,16.47,1.95.17,3.86.24,5.73.24,20.42,0,35.56-9.21,41.44-13.45ZM422.58,688.45c-2.04-24.71-5.27-49.56-9.62-74.01l65.27.79c3.48,22.85,6.08,46.04,7.73,69.03,2.37,33.17,2.85,66.87,1.41,100.14-.23,5.23-.51,10.51-.83,15.74-6.44,4.02-18.71,9.83-34.27,8.52-12.77-1.08-22.41-6.47-28.17-10.71.24-4.42.45-8.85.61-13.22,1.23-31.99.51-64.38-2.13-96.28ZM576.64,598.12c-.8,1.97-2.67,3.23-4.8,3.23h-.07l-235.63-2.83c-2.51-.03-3.86-1.66-4.32-2.36-.46-.7-1.44-2.57-.48-4.9l46.44-112.94,53.96-131.23c.79-1.95,2.67-3.2,4.78-3.2h235.73c2.5,0,3.85,1.6,4.31,2.29s1.44,2.54.5,4.84l-19.36,47.62c-9.85.13-19.68,1.83-28.84,5.71-3.56,1.46-7,3.37-10.25,5.44-4.66,3.06-9.06,6.35-12.44,11.01-5.06,6.71-6.57,15.87-4.39,23.99-5.24,2.67-10.07,6.43-13.86,11.35-1.9,2.47-3.54,5.25-4.7,8.32-1.15,3.06-1.88,6.42-1.85,9.86,0,3.45.7,6.84,1.88,9.91,1.11,2.8,2.61,5.33,4.31,7.62-7.73,8.27-11.43,16.72-10.99,25.18.55,10.9,7.93,21.29,20.95,29.72l-20.88,51.37ZM724.64,509.88c-18.23,33.28-55.83,37.54-63.18,38.06-16.72,1.19-36.26-3.01-51.01-10.95-11.49-6.19-18.56-13.94-18.9-20.73-.22-4.25,2.22-9.15,7.11-14.32,1,.66,2.02,1.29,3.05,1.88,2.46,1.41,4.97,2.64,7.52,3.73,2.57,1.07,5.01,2.04,7.79,2.92,2.72.85,5.51,1.51,8.32,1.92,2.78.41,5.5.64,8.21.77,2.73.13,5.36.16,8.17.04,2.71-.12,5.4-.36,8.06-.71,5.33-.69,10.55-1.78,15.66-3.23,1.34-.38,2.24-1.68,2.07-3.11-.19-1.57-1.62-2.7-3.19-2.51h-.03c-10.07,1.2-20.19,1.6-29.88.12-2.44-.34-4.86-.77-7.17-1.32-2.28-.57-4.5-1.26-6.67-2.12-2.1-.83-4.41-1.94-6.55-3.03-2.13-1.12-4.22-2.27-6.18-3.56-1.96-1.29-3.81-2.67-5.47-4.15l-1.21-1.13c-.36-.35-.72-.73-1.07-1.12-.7-.77-1.37-1.59-1.97-2.43-2.42-3.39-3.76-7.07-3.7-10.52,0-3.48,1.43-7.19,3.84-10.52,2.37-3.29,5.61-6.16,9.25-8.56,3.18,3.32,7.34,5.74,11.56,7.06,5.86,1.94,11.86,2.49,17.86,2.88,8.78.64,17.77.5,26.42-1.05,5.81-1.02,11.52-2.54,17.06-4.48,1.52-.53,2.37-2.17,1.89-3.72-.48-1.6-2.18-2.5-3.77-2.01-10.62,3.24-21.7,4.75-32.67,4.33-9.91-.79-22.54-.89-30.4-7.03-7.14-5.73-7.47-17.99-1.79-24.86,2.59-3.39,6.5-6.08,10.22-8.33,16.76-10.19,37.45-10,56.23-5.66,18.81,3.35,33.68,12.32,43.81,25.72,2.83,5.71,7.53,17.01,8.8,31.13.02.2.04.39.05.58l.12,1.45c.92,13.92-1.85,26.9-8.26,38.57Z"/>
        <path class="cls-1" d="M624.39,904.23c-4.68,2.87-9.47,5.55-14.38,8.01-41.37,21.01-89.53,23.87-134.99,19.01-37.9-4.51-68.73-16.23-77.62-40.61.17-1.88-.38-3.76-1.53-5.25-2.58-11.72-.56-26.06,7.41-43.51,4.01,1.9,8.38,3.15,12.87,3.55,3.89.34,5.98-4.77,2.89-7.25-7.31-6.49-20.42-13.72-19.67-23.89.3-4.56,3.78-9.48,6.82-13.03.88-1.05,1.85-2.02,2.86-2.95-.05.89-.1,1.77-.15,2.65l-.22,3.75,2.86,2.42c6.43,5.45,20.11,14.84,39.47,16.47,1.95.17,3.86.24,5.73.24,20.42,0,35.56-9.21,41.44-13.45l2.86-2.06.23-3.53c.19-2.87.36-5.78.53-8.68,3.18,3.14,6.08,6.45,8.12,9.88,3.52,6.28,1.88,11.26-2.71,16.66-5.21,5.79-11.7,10.77-19.08,13.66-7.84,3.21-16.51,3.4-24.65,6.05-4.01,1.25-4.35,7.07-.45,8.77,7.67,3.28,16.01,2.78,24.01.9-3.3,3.77-6.33,7.75-9.08,11.9-1.2,1.81-.76,4.28,1.03,5.55,1.83,1.3,4.36.87,5.66-.96,10.73-15.08,25.41-27.27,42.35-34.03,43.63-17.28,96.94-9.2,99.55,46.55.28,7.68-.44,15.65-2.16,23.18Z"/>
        <path class="cls-1" d="M284.78,885.32c-1.22,1.54-1.78,3.51-1.57,5.46-.74,2.05-1.65,4.07-2.76,6.04-21.95,36.71-95.99,38.04-134.53,35.59-22.8-1.67-45.5-6.94-66.47-16-8-3.52-15.76-7.59-23.21-12.15-3.59-15.88-3.3-33.61,3.6-48.32,12.08-25.82,40.79-32.54,67.19-28.48,27.51,3.51,52.93,17.97,68.92,41.07,3.16,4.21,9.49-.11,6.69-4.59-2.75-4.15-5.79-8.13-9.08-11.89,5.48,1.28,11.05,1.89,16.64,1.13,2.51-.35,5-.98,7.37-2.04,1.16-.53,2.12-1.53,2.55-2.84.8-2.48-.55-5.13-3.02-5.93-2.29-.76-4.52-1.25-6.68-1.71-6.04-1.29-12.31-2-17.95-4.34-5.64-2.21-10.56-5.5-14.97-9.54-6.29-5.46-11.69-12.81-6.82-20.78,2.04-3.43,4.94-6.74,8.13-9.88.16,2.89.33,5.79.52,8.68l.23,3.52,2.87,2.07c5.88,4.24,21.01,13.45,41.43,13.45,1.87,0,3.79-.08,5.74-.24,19.35-1.64,33.03-11.02,39.46-16.47l2.87-2.43-.23-3.74c-.05-.88-.09-1.76-.14-2.64,1,.93,1.97,1.9,2.85,2.95,3.04,3.54,6.51,8.46,6.82,13.03.73,10.12-12.14,17.24-19.43,23.69-1.13.83-1.83,2.16-1.72,3.66.16,2.25,2.12,3.95,4.38,3.78,3.89-.29,7.42-1.26,10.92-2.69.65-.28,1.28-.58,1.92-.89,6.18,13.59,10.55,29.12,7.48,43.47Z"/>
        <path class="cls-1" d="M724.64,509.88c-18.23,33.28-55.83,37.54-63.18,38.06-16.72,1.19-36.26-3.01-51.01-10.95-11.49-6.19-18.56-13.94-18.9-20.73-.22-4.25,2.22-9.15,7.11-14.32,1,.66,2.02,1.29,3.05,1.88,2.46,1.41,4.97,2.64,7.52,3.73,2.57,1.07,5.01,2.04,7.79,2.92,2.72.85,5.51,1.51,8.32,1.92,2.78.41,5.5.64,8.21.77,2.73.13,5.36.16,8.17.04,2.71-.12,5.4-.36,8.06-.71,5.33-.69,10.55-1.78,15.66-3.23,1.34-.38,2.24-1.68,2.07-3.11-.19-1.57-1.62-2.7-3.19-2.51h-.03c-10.07,1.2-20.19,1.6-29.88.12-2.44-.34-4.86-.77-7.17-1.32-2.28-.57-4.5-1.26-6.67-2.12-2.1-.83-4.41-1.94-6.55-3.03-2.13-1.12-4.22-2.27-6.18-3.56-1.96-1.29-3.81-2.67-5.47-4.15l-1.21-1.13c-.36-.35-.72-.73-1.07-1.12-.7-.77-1.37-1.59-1.97-2.43-2.42-3.39-3.76-7.07-3.7-10.52,0-3.48,1.43-7.19,3.84-10.52,2.37-3.29,5.61-6.16,9.25-8.56,3.18,3.32,7.34,5.74,11.56,7.06,5.86,1.94,11.86,2.49,17.86,2.88,8.78.64,17.77.5,26.42-1.05,5.81-1.02,11.52-2.54,17.06-4.48,1.52-.53,2.37-2.17,1.89-3.72-.48-1.6-2.18-2.5-3.77-2.01-10.62,3.24-21.7,4.75-32.67,4.33-9.91-.79-22.54-.89-30.4-7.03-7.14-5.73-7.47-17.99-1.79-24.86,2.59-3.39,6.5-6.08,10.22-8.33,16.76-10.19,37.45-10,56.23-5.66,18.81,3.35,33.68,12.32,43.81,25.72,2.83,5.71,7.53,17.01,8.8,31.13.02.2.04.39.05.58l.12,1.45c.92,13.92-1.85,26.9-8.26,38.57Z"/>
        <path class="cls-1" d="M55.2,526.78c-.66,12.23-1.32,24.45-1.97,36.68-6.8-3.62-11.45-10.71-11.66-18.79l.03-25.1c4.3,2.75,8.85,5.17,13.6,7.21Z"/>
        <path class="cls-1" d="M333.87,411.8c-.9,2.94-2.71,6.05-4.75,7.68-2.86,2.24-6.44,3.35-10.04,2.89-.63-.08-1.16-.17-1.91-.35-.57-.14-1.15-.2-1.71-.2-5.4-14.89-16.43-27.81-29.93-35.88-12.45-7.49-26.87-11.05-41.29-10.78-3.56.17-3.68,5.28-.2,5.67,16.34,1.8,31.95,8,43.65,19.17,8.86,8.76,16.44,19.57,19.47,31.78,3.38,14.04-.53,31.52-12.54,40.31-2.7,1.9-5.69,3.28-8.93,4.3.43-3.78.41-7.64-.11-11.51-3.45-23.04-24.43-39.74-46.41-44.04-4.83-.88-6.45,6.03-1.76,7.39,6.36,1.67,12.39,4.36,17.84,7.83,10.44,6.76,18.81,17.56,20.24,30.15,2.17,18.36-11.26,36.88-27.94,43.43-9.03,3.52-18.98,2.08-27.08-2.88,5.14-7.69,7.72-17.23,6.25-27.7-.64-3.97-6.34-4.33-7.46-.42-3.5,13.55-12.45,26.44-25.99,30.79-13.61,4.53-28.57.03-39.71-9.42-1.04-.93-2.59-1.15-3.88-.43-1.62.9-2.2,2.95-1.3,4.57,3.72,6.68,9.6,12.35,16.68,16.13-.62.34-1.31.71-2.13,1.12-5.84,2.96-11.34,2.64-14.22,2.47-.06,0-5.35-.39-10.07-2.21-12.87-4.97-24.61-26.34-27.91-50.8-2.79-20.66,1.32-37.82,10.73-44.79.34-.25.7-.53,1.07-.82,2.31-1.79,5.11-3.95,12.71-3.84-4.32,14.79-5.66,30.44-3.72,45.58.5,3.66,5.78,3.33,5.93-.24.87-28.41,10.29-56.78,29.49-78.02,23.04-25.93,57.61-43.33,92.57-42.13,27.43.61,52.72,17.4,67.39,40.22,4.38,7.19,9.45,16.61,6.97,24.98Z"/>
        <path class="cls-1" d="M677.06,351.02l-19.36,47.62c-9.85.13-19.68,1.83-28.84,5.71-3.56,1.46-7,3.37-10.25,5.44-4.66,3.06-9.06,6.35-12.44,11.01-5.06,6.71-6.57,15.87-4.39,23.99-5.24,2.67-10.07,6.43-13.86,11.35-1.9,2.47-3.54,5.25-4.7,8.32-1.15,3.06-1.88,6.42-1.85,9.86,0,3.45.7,6.84,1.88,9.91,1.11,2.8,2.61,5.33,4.31,7.62-7.73,8.27-11.43,16.72-10.99,25.18.55,10.9,7.93,21.29,20.95,29.72l-20.88,51.37c-.8,1.97-2.67,3.23-4.8,3.23h-.07l-235.63-2.83c-2.51-.03-3.86-1.66-4.32-2.36-.46-.7-1.44-2.57-.48-4.9l46.44-112.94,53.96-131.23c.79-1.95,2.67-3.2,4.78-3.2h235.73c2.5,0,3.85,1.6,4.31,2.29s1.44,2.54.5,4.84Z"/>
        <path class="cls-1" d="M355.76,492.42l-30.95,75.27-122.83-.79-133.87-.86c.61-11.42,1.23-22.84,1.84-34.26,8.36,2.13,17.02,3.22,25.74,3.22,9.74,0,19.56-1.34,29.12-4,2.64,1.92,5.45,3.5,8.42,4.65,6.81,2.63,13.73,3.14,14.54,3.19.96.06,2.25.13,3.79.13,4.48,0,11.11-.63,18.12-4.17,6.02-3.03,9.13-5.43,12.15-9.51,11.13.94,21.92-2.64,30.18-9.3,11.54,7.59,26.78,9.9,39.72,4.48,14.11-5.9,25.63-17.81,31-31.95,2.69,0,5.42-.36,8.1-1.05,3.94-1.01,7.68-2.87,11.04-5.24,4.74-3.4,8.28-7.81,10.89-12.76,1.34,1.27,2.67,2.54,4,3.82l.86.81,38.14,18.32Z"/>
        <path class="cls-1" d="M360.01,466.65c-2.32,1.82-4.89,4.36-7.05,7.79l-23.97-11.51c.64-.79,1.23-1.6,1.77-2.45,1.59-2.49,2.73-5.21,3.41-8.1,4.81-.88,9.36-2.61,13.54-5.16,1.67-1.02,3.24-2.15,4.72-3.39l7.58,22.82Z"/>
        <path class="cls-1" d="M180.27,275.58c-3.94,2.32-7.7,4.93-11.23,7.81-4.58,3.73-8.78,7.91-12.56,12.48l-16.5-16.77c.47-3.76,2.14-10.21,7.9-15.16,5.69-4.88,12.23-5.58,15.84-5.53l16.55,17.17Z"/>
        <path class="cls-1" d="M599.92,93.61c-9.02-9.23-20.86-9.26-23.15-9.18h-.28s-468.99.01-468.99.01h-.14c-.98-.04-6.07-.02-10.04,3.88-3.68,3.61-4.06,8.21-4.08,9.53v.25s-18.28,340.28-18.28,340.28c4.67,3.56,10.01,6.18,15.63,7.64,1.65.43,3.34.75,5.04.98,1.98-14.59,7.8-26.24,16.9-32.98.25-.19.51-.39.79-.6,3.74-2.92,10.7-8.32,27.33-6.7,4.26-9.5,9.83-18.4,16.62-26.28,9.35-11.03,20.66-20.81,33.19-28.66l-65.62-66.68-.03-3.02c-.05-4.21.77-18.75,13.3-29.51,12.04-10.35,26.02-9.4,30.02-8.87l2.58.35,37.8,39.22c15.58,16.17,31.16,32.34,46.75,48.51,9.56-.11,19.15,1.04,28.57,3.7,15.5,4.57,29.36,13.42,40.89,24.53,14.73,14.17,30.37,37.72,23.45,57.67,4.93,4.46,9.86,8.91,14.79,13.36l1.47,1.32,7.16,21.56,46.27-112.53c3.12-7.59,10.44-12.5,18.66-12.5h163.16c2.98-70.96,5.96-141.92,8.92-212.87.1-3.02-.22-13.76-8.68-22.41ZM301.5,298.74c-25.57,0-46.29-31.26-46.29-69.83s20.72-69.82,46.29-69.82,46.28,31.26,46.28,69.82-20.72,69.83-46.28,69.83ZM443.52,298.74c-25.56,0-46.29-31.26-46.29-69.83s20.73-69.82,46.29-69.82,46.29,31.26,46.29,69.82-20.73,69.83-46.29,69.83Z"/>
        <path class="cls-1" d="M567.05,69.44H107.76c-3.09-.09-12.95.31-20.95,8.18-7.42,7.28-8.47,16.16-8.57,19.79l-12.98,241.79c-7.38,3.48-15.51,8.17-23.46,14.42l.4-319.48c0-5.13,2-9.94,5.63-13.56,3.62-3.6,8.41-5.58,13.52-5.58h.08l151.89.64c11.91.56,22.13,3.52,30.39,8.81,5.28,3.37,8.44,6.12,12.45,9.6,2.34,2.04,5,4.35,8.41,7.07,9.57,7.61,21.64,11.81,34,11.81h242.69c2.33.01,14.3.54,21.99,10.07,1.71,2.12,2.93,4.32,3.8,6.44Z"/>
        <path d="M288.77,921.04c-1.01,3.4-3.72,12.43-29.04,24.68-21.55,10.42-51.1,16.65-87.84,18.52-24.04,1.22-44.8,2.27-71.07-4.52-17.23-4.46-46.08-11.92-49.67-28.12-.77-3.47-.37-7.32,1.16-11.49,6.79,3.88,13.77,7.41,20.96,10.5,42.1,18.12,89.01,20.2,134.05,14.98,36.86-4.38,67.25-16.44,82.09-37.53.71,4.16.69,8.58-.64,12.98Z"/>
        <path d="M629.45,931.6c-3.59,16.2-32.44,23.66-49.67,28.12-26.26,6.79-47.02,5.74-71.06,4.52-36.75-1.87-66.3-8.1-87.84-18.52-25.32-12.24-28.03-21.28-29.05-24.68-1.32-4.37-1.34-8.76-.65-12.9,4.93,7.11,11.89,13.56,21.2,19.05,31.01,17.64,67.7,20.4,102.48,20.81,28.05.23,56.13-3.84,82.58-13.47,10.69-3.87,20.98-8.77,30.85-14.41,1.54,4.17,1.93,8.01,1.16,11.48Z"/>
        <path d="M487.37,784.4c-.23,5.23-.51,10.51-.83,15.74-6.44,4.02-18.71,9.83-34.27,8.52-12.77-1.08-22.41-6.47-28.17-10.71.24-4.42.45-8.85.61-13.22,1.23-31.99.51-64.38-2.13-96.28-2.04-24.71-5.27-49.56-9.62-74.01l65.27.79c3.48,22.85,6.08,46.04,7.73,69.03,2.37,33.17,2.85,66.87,1.41,100.14Z"/>
        <path d="M258.02,688.45c-3,36.3-3.5,73.12-1.51,109.49-5.76,4.24-15.41,9.63-28.17,10.71-15.57,1.32-27.83-4.49-34.27-8.51-2.36-38.49-2.17-77.46.58-115.88,2.44-34.22,6.99-68.61,13.47-102.32l65.9.42c-7.69,34.95-13.07,70.59-16,106.09Z"/>
        <path d="M112.72,518.41c-15.97,2.98-32.36,1.76-47.18-3.65-12.43-4.52-23.45-11.94-31.85-21.44-24.1-27.26-21.94-67.21-9.11-94.72,9.76-20.92,25.51-34,39.75-42.05l-4.74,88.38,2.67,2.39c7.03,6.3,15.52,10.87,24.54,13.21,2.67.7,5.39,1.2,8.14,1.51.12,3.51.42,7.12.92,10.83,2.12,15.67,7.84,32.8,16.86,45.54Z"/>
        <path d="M236.23,333.64c-11.06,2.05-21.88,5.7-32.12,10.63l-46.22-46.97c3.73-4.53,7.88-8.67,12.41-12.36,3.58-2.91,7.4-5.54,11.4-7.87l16.01,16.61c12.84,13.32,25.68,26.64,38.52,39.96Z"/>
        <path d="M362.85,475.18l-1.38,3.34-6.67-3.2c1.82-2.81,3.93-4.98,5.9-6.61l2.15,6.47Z"/>
        <path d="M351.75,441.78c-1.58,1.38-3.27,2.63-5.08,3.73-4.15,2.53-8.69,4.22-13.49,5.01l-.68.11-.14.67c-.6,2.9-1.71,5.63-3.29,8.11-.58.92-1.24,1.79-1.94,2.62l-.88-.42c-2.77-2.64-5.53-5.28-8.29-7.92.6-3.4.94-6.84,1.07-10.21.06-2.02,0-4.02-.15-6.01,3.18.24,6.43-.03,9.49-.87,4.17-1.1,7.96-3.19,11.23-5.94.09-.08.18-.17.27-.26,3.86,3.48,7.71,6.97,11.57,10.45l.31.93Z"/>
        <path d="M689.41,403c-2.3-.61-4.61-1.15-6.92-1.6-2.96-.68-5.98-1.24-9.03-1.68l1.31-3.22c4.7,1.67,9.67,3.8,14.64,6.5Z"/>
      </g>
      <path d="M260.23,148.57c-1.59,0-3.19-.5-4.55-1.55-3.28-2.51-3.92-7.19-1.42-10.47,8.78-11.56,33.18-29.18,62.64-13.15,3.64,1.98,4.98,6.53,3,10.17-1.98,3.64-6.53,4.98-10.17,3-25.4-13.81-42.83,8.14-43.55,9.08-1.48,1.91-3.71,2.92-5.95,2.92Z"/>
      <path d="M475.66,146.49c-2.04,0-4.06-.91-5.4-2.66-16.16-21.01-38.53-9.01-39.48-8.49-3.29,1.82-7.44.62-9.25-2.67-1.82-3.29-.62-7.44,2.67-9.25,11.54-6.37,38.28-12.03,56.86,12.11,2.29,2.98,1.74,7.26-1.25,9.55-1.24.95-2.7,1.41-4.15,1.41Z"/>
      <path class="cls-1" d="M467.69,264.43c0,9.7-6.7,17.57-14.98,17.57s-14.98-7.87-14.98-17.57,6.71-17.58,14.98-17.58,14.98,7.87,14.98,17.58Z"/>
      <ellipse class="cls-1" cx="308.57" cy="264.42" rx="14.98" ry="17.57"/>
    </g>
  </g>
</svg>